<svg xmlns="http://www.w3.org/2000/svg" viewBox="0 0 1450 1000" width="1450" height="1000">
<title>Anterior skull: facial bones and openings</title>
<desc>Skull seen from the front, mandible included. Orbital openings (optic canal, superior and inferior orbital fissures), supraorbital and mental foramina are drawn as holes. Patient right is on the viewer's left; one pin per structure on that side.</desc>
<rect id="background" width="1450" height="1000" fill="#ECEAE2"/><g><path d="M980 320C980 346.99 975.64 375.3 967.52 400.96C959.4 426.63 946.74 452.17 931.3 474C915.86 495.83 896.14 516.1 874.89 531.96C853.64 547.83 828.78 560.84 803.8 569.18C778.82 577.52 751.27 582 725 582C698.73 582 671.18 577.52 646.2 569.18C621.22 560.84 596.36 547.83 575.11 531.96C553.86 516.1 534.14 495.83 518.7 474C503.26 452.17 490.6 426.63 482.48 400.96C474.36 375.3 470 346.99 470 320C470 293.01 474.36 264.7 482.48 239.04C490.6 213.37 503.26 187.83 518.7 166C534.14 144.17 553.86 123.9 575.11 108.04C596.36 92.17 621.22 79.16 646.2 70.82C671.18 62.48 698.73 58 725 58C751.27 58 778.82 62.48 803.8 70.82C828.78 79.16 853.64 92.17 874.89 108.04C896.14 123.9 915.86 144.17 931.3 166C946.74 187.83 959.4 213.37 967.52 239.04C975.64 264.7 980 293.01 980 320Z" fill="#586F73" stroke="#586F73" stroke-width="3" stroke-linejoin="round" stroke-linecap="round"/><path d="M980 320C980 346.99 975.64 375.3 967.52 400.96C959.4 426.63 946.74 452.17 931.3 474C915.86 495.83 896.14 516.1 874.89 531.96C853.64 547.83 828.78 560.84 803.8 569.18C778.82 577.52 751.27 582 725 582C698.73 582 671.18 577.52 646.2 569.18C621.22 560.84 596.36 547.83 575.11 531.96C553.86 516.1 534.14 495.83 518.7 474C503.26 452.17 490.6 426.63 482.48 400.96C474.36 375.3 470 346.99 470 320C470 293.01 474.36 264.7 482.48 239.04C490.6 213.37 503.26 187.83 518.7 166C534.14 144.17 553.86 123.9 575.11 108.04C596.36 92.17 621.22 79.16 646.2 70.82C671.18 62.48 698.73 58 725 58C751.27 58 778.82 62.48 803.8 70.82C828.78 79.16 853.64 92.17 874.89 108.04C896.14 123.9 915.86 144.17 931.3 166C946.74 187.83 959.4 213.37 967.52 239.04C975.64 264.7 980 293.01 980 320Z" fill="#B8C8CA" stroke="none"/></g><g data-structure-id="parietal-bone" data-anchor="551,228"><path d="M480 330C469 314.17 476 270 486 240C496 210 516.83 172 540 150C563.17 128 613.33 104.67 625 108C636.67 111.33 620 144.67 610 170C600 195.33 574.67 232.5 565 260C555.33 287.5 566.17 323.33 552 335C537.83 346.67 491 345.83 480 330Z" fill="#586F73" stroke="#586F73" stroke-width="3" stroke-linejoin="round" stroke-linecap="round"/><path d="M480 330C469 314.17 476 270 486 240C496 210 516.83 172 540 150C563.17 128 613.33 104.67 625 108C636.67 111.33 620 144.67 610 170C600 195.33 574.67 232.5 565 260C555.33 287.5 566.17 323.33 552 335C537.83 346.67 491 345.83 480 330Z" fill="#9DB3B6" stroke="none"/></g><g><path d="M970 330C981 314.17 974 270 964 240C954 210 933.17 172 910 150C886.83 128 836.67 104.67 825 108C813.33 111.33 830 144.67 840 170C850 195.33 875.33 232.5 885 260C894.67 287.5 883.83 323.33 898 335C912.17 346.67 959 345.83 970 330Z" fill="#586F73" stroke="#586F73" stroke-width="3" stroke-linejoin="round" stroke-linecap="round"/><path d="M970 330C981 314.17 974 270 964 240C954 210 933.17 172 910 150C886.83 128 836.67 104.67 825 108C813.33 111.33 830 144.67 840 170C850 195.33 875.33 232.5 885 260C894.67 287.5 883.83 323.33 898 335C912.17 346.67 959 345.83 970 330Z" fill="#9DB3B6" stroke="none"/></g><g data-structure-id="frontal-bone" data-anchor="725,185"><path d="M552 335C549.5 312.5 555.33 287.5 565 260C574.67 232.5 600 195.33 610 170C620 144.67 605.83 120.5 625 108C644.17 95.5 691.67 95 725 95C758.33 95 805.83 95.5 825 108C844.17 120.5 830 144.67 840 170C850 195.33 875.33 232.5 885 260C894.67 287.5 900.5 312.5 898 335C895.5 357.5 886.33 385 870 395C853.67 405 824.17 397.5 800 395C775.83 392.5 750 380 725 380C700 380 674.17 392.5 650 395C625.83 397.5 596.33 405 580 395C563.67 385 554.5 357.5 552 335Z" fill="#586F73" stroke="#586F73" stroke-width="3" stroke-linejoin="round" stroke-linecap="round"/><path d="M552 335C549.5 312.5 555.33 287.5 565 260C574.67 232.5 600 195.33 610 170C620 144.67 605.83 120.5 625 108C644.17 95.5 691.67 95 725 95C758.33 95 805.83 95.5 825 108C844.17 120.5 830 144.67 840 170C850 195.33 875.33 232.5 885 260C894.67 287.5 900.5 312.5 898 335C895.5 357.5 886.33 385 870 395C853.67 405 824.17 397.5 800 395C775.83 392.5 750 380 725 380C700 380 674.17 392.5 650 395C625.83 397.5 596.33 405 580 395C563.67 385 554.5 357.5 552 335Z" fill="#B8C8CA" stroke="none"/></g><g data-structure-id="temporal-bone" data-anchor="511,423"><path d="M470 380C471.33 362.5 466.67 341.67 480 335C493.33 328.33 536.67 322.5 550 340C563.33 357.5 560.83 410 560 440C559.17 470 555 509.17 545 520C535 530.83 512.17 518.33 500 505C487.83 491.67 477 460.83 472 440C467 419.17 468.67 397.5 470 380Z" fill="#586F73" stroke="#586F73" stroke-width="3" stroke-linejoin="round" stroke-linecap="round"/><path d="M470 380C471.33 362.5 466.67 341.67 480 335C493.33 328.33 536.67 322.5 550 340C563.33 357.5 560.83 410 560 440C559.17 470 555 509.17 545 520C535 530.83 512.17 518.33 500 505C487.83 491.67 477 460.83 472 440C467 419.17 468.67 397.5 470 380Z" fill="#9DB3B6" stroke="none"/></g><g><path d="M980 380C978.67 362.5 983.33 341.67 970 335C956.67 328.33 913.33 322.5 900 340C886.67 357.5 889.17 410 890 440C890.83 470 895 509.17 905 520C915 530.83 937.83 518.33 950 505C962.17 491.67 973 460.83 978 440C983 419.17 981.33 397.5 980 380Z" fill="#586F73" stroke="#586F73" stroke-width="3" stroke-linejoin="round" stroke-linecap="round"/><path d="M980 380C978.67 362.5 983.33 341.67 970 335C956.67 328.33 913.33 322.5 900 340C886.67 357.5 889.17 410 890 440C890.83 470 895 509.17 905 520C915 530.83 937.83 518.33 950 505C962.17 491.67 973 460.83 978 440C983 419.17 981.33 397.5 980 380Z" fill="#9DB3B6" stroke="none"/></g><g data-structure-id="sphenoid-bone" data-anchor="564,403"><path d="M552 340C557.33 335.33 574.5 354.5 580 372C585.5 389.5 589 430.67 585 445C581 459.33 562.17 465.5 556 458C549.83 450.5 548.67 419.67 548 400C547.33 380.33 546.67 344.67 552 340Z" fill="#8A7146" stroke="#8A7146" stroke-width="3" stroke-linejoin="round" stroke-linecap="round"/><path d="M552 340C557.33 335.33 574.5 354.5 580 372C585.5 389.5 589 430.67 585 445C581 459.33 562.17 465.5 556 458C549.83 450.5 548.67 419.67 548 400C547.33 380.33 546.67 344.67 552 340Z" fill="#E4CFA8" stroke="none"/></g><g><path d="M898 340C892.67 335.33 875.5 354.5 870 372C864.5 389.5 861 430.67 865 445C869 459.33 887.83 465.5 894 458C900.17 450.5 901.33 419.67 902 400C902.67 380.33 903.33 344.67 898 340Z" fill="#8A7146" stroke="#8A7146" stroke-width="3" stroke-linejoin="round" stroke-linecap="round"/><path d="M898 340C892.67 335.33 875.5 354.5 870 372C864.5 389.5 861 430.67 865 445C869 459.33 887.83 465.5 894 458C900.17 450.5 901.33 419.67 902 400C902.67 380.33 903.33 344.67 898 340Z" fill="#E4CFA8" stroke="none"/></g><g data-structure-id="zygomatic-bone" data-anchor="572,492"><path d="M616.43 480.09C617.45 483.88 617.75 488.04 617.3 492.02C616.85 495.99 615.6 500.16 613.73 503.94C611.86 507.72 609.18 511.48 606.07 514.7C602.97 517.91 599.12 520.89 595.08 523.23C591.04 525.56 586.41 527.48 581.84 528.71C577.26 529.93 572.29 530.59 567.62 530.59C562.96 530.59 558.14 529.92 553.84 528.69C549.54 527.46 545.34 525.54 541.83 523.21C538.32 520.87 535.16 517.88 532.78 514.67C530.4 511.45 528.58 507.69 527.57 503.91C526.55 500.12 526.25 495.96 526.7 491.98C527.15 488.01 528.4 483.84 530.27 480.06C532.14 476.28 534.82 472.52 537.93 469.3C541.03 466.09 544.88 463.11 548.92 460.77C552.96 458.44 557.59 456.52 562.16 455.29C566.74 454.07 571.71 453.41 576.38 453.41C581.04 453.41 585.86 454.08 590.16 455.31C594.46 456.54 598.66 458.46 602.17 460.79C605.68 463.13 608.84 466.12 611.22 469.33C613.6 472.55 615.42 476.31 616.43 480.09Z" fill="#7F7766" stroke="#7F7766" stroke-width="3" stroke-linejoin="round" stroke-linecap="round"/><path d="M616.43 480.09C617.45 483.88 617.75 488.04 617.3 492.02C616.85 495.99 615.6 500.16 613.73 503.94C611.86 507.72 609.18 511.48 606.07 514.7C602.97 517.91 599.12 520.89 595.08 523.23C591.04 525.56 586.41 527.48 581.84 528.71C577.26 529.93 572.29 530.59 567.62 530.59C562.96 530.59 558.14 529.92 553.84 528.69C549.54 527.46 545.34 525.54 541.83 523.21C538.32 520.87 535.16 517.88 532.78 514.67C530.4 511.45 528.58 507.69 527.57 503.91C526.55 500.12 526.25 495.96 526.7 491.98C527.15 488.01 528.4 483.84 530.27 480.06C532.14 476.28 534.82 472.52 537.93 469.3C541.03 466.09 544.88 463.11 548.92 460.77C552.96 458.44 557.59 456.52 562.16 455.29C566.74 454.07 571.71 453.41 576.38 453.41C581.04 453.41 585.86 454.08 590.16 455.31C594.46 456.54 598.66 458.46 602.17 460.79C605.68 463.13 608.84 466.12 611.22 469.33C613.6 472.55 615.42 476.31 616.43 480.09Z" fill="#E9E2D1" stroke="none"/></g><g><path d="M922.43 503.91C921.42 507.69 919.6 511.45 917.22 514.67C914.84 517.88 911.68 520.87 908.17 523.21C904.66 525.54 900.46 527.46 896.16 528.69C891.86 529.92 887.04 530.59 882.38 530.59C877.71 530.59 872.74 529.93 868.16 528.71C863.59 527.48 858.96 525.56 854.92 523.23C850.88 520.89 847.03 517.91 843.93 514.7C840.82 511.48 838.14 507.72 836.27 503.94C834.4 500.16 833.15 495.99 832.7 492.02C832.25 488.04 832.55 483.88 833.57 480.09C834.58 476.31 836.4 472.55 838.78 469.33C841.16 466.12 844.32 463.13 847.83 460.79C851.34 458.46 855.54 456.54 859.84 455.31C864.14 454.08 868.96 453.41 873.62 453.41C878.29 453.41 883.26 454.07 887.84 455.29C892.41 456.52 897.04 458.44 901.08 460.77C905.12 463.11 908.97 466.09 912.07 469.3C915.18 472.52 917.86 476.28 919.73 480.06C921.6 483.84 922.85 488.01 923.3 491.98C923.75 495.96 923.45 500.12 922.43 503.91Z" fill="#7F7766" stroke="#7F7766" stroke-width="3" stroke-linejoin="round" stroke-linecap="round"/><path d="M922.43 503.91C921.42 507.69 919.6 511.45 917.22 514.67C914.84 517.88 911.68 520.87 908.17 523.21C904.66 525.54 900.46 527.46 896.16 528.69C891.86 529.92 887.04 530.59 882.38 530.59C877.71 530.59 872.74 529.93 868.16 528.71C863.59 527.48 858.96 525.56 854.92 523.23C850.88 520.89 847.03 517.91 843.93 514.7C840.82 511.48 838.14 507.72 836.27 503.94C834.4 500.16 833.15 495.99 832.7 492.02C832.25 488.04 832.55 483.88 833.57 480.09C834.58 476.31 836.4 472.55 838.78 469.33C841.16 466.12 844.32 463.13 847.83 460.79C851.34 458.46 855.54 456.54 859.84 455.31C864.14 454.08 868.96 453.41 873.62 453.41C878.29 453.41 883.26 454.07 887.84 455.29C892.41 456.52 897.04 458.44 901.08 460.77C905.12 463.11 908.97 466.09 912.07 469.3C915.18 472.52 917.86 476.28 919.73 480.06C921.6 483.84 922.85 488.01 923.3 491.98C923.75 495.96 923.45 500.12 922.43 503.91Z" fill="#E9E2D1" stroke="none"/></g><g data-structure-id="maxilla" data-anchor="644,672"><path d="M590 540C596.67 517 623.33 513.67 640 512C656.67 510.33 675.83 524.5 690 530C704.17 535.5 713.33 545 725 545C736.67 545 745.83 535.5 760 530C774.17 524.5 793.33 510.33 810 512C826.67 513.67 853.33 517 860 540C866.67 563 857.5 620.83 850 650C842.5 679.17 835.83 700 815 715C794.17 730 755 740 725 740C695 740 655.83 730 635 715C614.17 700 607.5 679.17 600 650C592.5 620.83 583.33 563 590 540Z" fill="#7F7766" stroke="#7F7766" stroke-width="3" stroke-linejoin="round" stroke-linecap="round"/><path d="M590 540C596.67 517 623.33 513.67 640 512C656.67 510.33 675.83 524.5 690 530C704.17 535.5 713.33 545 725 545C736.67 545 745.83 535.5 760 530C774.17 524.5 793.33 510.33 810 512C826.67 513.67 853.33 517 860 540C866.67 563 857.5 620.83 850 650C842.5 679.17 835.83 700 815 715C794.17 730 755 740 725 740C695 740 655.83 730 635 715C614.17 700 607.5 679.17 600 650C592.5 620.83 583.33 563 590 540Z" fill="#E9E2D1" stroke="none"/></g><g data-structure-id="nasal-bone" data-anchor="711,475"><path d="M701 425C705.5 412 721 405.5 725 420C729 434.5 727.83 495.33 725 512C722.17 528.67 712.5 522.33 708 520C703.5 517.67 699.17 513.83 698 498C696.83 482.17 696.5 438 701 425Z" fill="#7F7766" stroke="#7F7766" stroke-width="3" stroke-linejoin="round" stroke-linecap="round"/><path d="M701 425C705.5 412 721 405.5 725 420C729 434.5 727.83 495.33 725 512C722.17 528.67 712.5 522.33 708 520C703.5 517.67 699.17 513.83 698 498C696.83 482.17 696.5 438 701 425Z" fill="#CFC6B1" stroke="none"/></g><g><path d="M749 425C744.5 412 729 405.5 725 420C721 434.5 722.17 495.33 725 512C727.83 528.67 737.5 522.33 742 520C746.5 517.67 750.83 513.83 752 498C753.17 482.17 753.5 438 749 425Z" fill="#7F7766" stroke="#7F7766" stroke-width="3" stroke-linejoin="round" stroke-linecap="round"/><path d="M749 425C744.5 412 729 405.5 725 420C721 434.5 722.17 495.33 725 512C727.83 528.67 737.5 522.33 742 520C746.5 517.67 750.83 513.83 752 498C753.17 482.17 753.5 438 749 425Z" fill="#CFC6B1" stroke="none"/></g><g data-structure-id="mandible" data-anchor="641,860"><path d="M517.47 708.26L519.4 714.1L521.8 721.88L524.75 731.54L528.18 742.55L532.05 754.46L536.35 766.86L541.08 779.39L546.27 791.71L552.01 803.54L558.32 814.36L565.19 823.83L572.36 832.57L579.92 840.82L587.78 848.58L595.87 855.85L604.12 862.62L612.47 868.91L620.84 874.7L629.18 879.98L637.54 884.82L646.12 889.22L654.9 893.08L663.74 896.38L672.6 899.13L681.47 901.36L690.31 903.12L699.1 904.43L707.82 905.32L716.46 905.84L725 906L733.54 905.84L742.18 905.32L750.9 904.43L759.69 903.12L768.53 901.36L777.4 899.13L786.26 896.38L795.1 893.08L803.88 889.22L812.46 884.82L820.82 879.98L829.16 874.7L837.53 868.91L845.88 862.62L854.13 855.85L862.22 848.58L870.08 840.82L877.64 832.57L884.81 823.83L891.68 814.36L897.99 803.54L903.73 791.71L908.92 779.39L913.65 766.86L917.95 754.46L921.82 742.55L925.25 731.54L928.2 721.88L930.6 714.1L932.53 708.26L933.89 697.67L930.51 687.54L923.07 679.87L913.04 676.19L902.41 677.23L893.28 682.78L887.47 691.74L884.91 698.14L881.88 706.54L878.52 716.16L874.82 726.7L870.8 737.79L866.51 749.01L862.01 759.89L857.39 769.95L852.8 778.64L848.32 785.64L843.66 792.04L838.36 798.5L832.64 804.74L826.58 810.72L820.24 816.4L813.72 821.76L807.09 826.75L800.44 831.35L793.85 835.52L787.54 839.18L781.52 842.27L775.54 844.9L769.47 847.16L763.32 849.07L757.1 850.64L750.79 851.89L744.42 852.83L737.98 853.49L731.5 853.88L725 854L718.5 853.88L712.02 853.49L705.58 852.83L699.21 851.89L692.9 850.64L686.68 849.07L680.53 847.16L674.46 844.9L668.48 842.27L662.46 839.18L656.15 835.52L649.56 831.35L642.91 826.75L636.28 821.76L629.76 816.4L623.42 810.72L617.36 804.74L611.64 798.5L606.34 792.04L601.68 785.64L597.2 778.64L592.61 769.95L587.99 759.89L583.49 749.01L579.2 737.79L575.18 726.7L571.48 716.16L568.12 706.54L565.09 698.14L562.53 691.74L556.72 682.78L547.59 677.23L536.96 676.19L526.93 679.87L519.49 687.54L516.11 697.67Z" fill="#586F73" stroke="#586F73" stroke-width="3" stroke-linejoin="round" stroke-linecap="round"/><path d="M517.47 708.26L519.4 714.1L521.8 721.88L524.75 731.54L528.18 742.55L532.05 754.46L536.35 766.86L541.08 779.39L546.27 791.71L552.01 803.54L558.32 814.36L565.19 823.83L572.36 832.57L579.92 840.82L587.78 848.58L595.87 855.85L604.12 862.62L612.47 868.91L620.84 874.7L629.18 879.98L637.54 884.82L646.12 889.22L654.9 893.08L663.74 896.38L672.6 899.13L681.47 901.36L690.31 903.12L699.1 904.43L707.82 905.32L716.46 905.84L725 906L733.54 905.84L742.18 905.32L750.9 904.43L759.69 903.12L768.53 901.36L777.4 899.13L786.26 896.38L795.1 893.08L803.88 889.22L812.46 884.82L820.82 879.98L829.16 874.7L837.53 868.91L845.88 862.62L854.13 855.85L862.22 848.58L870.08 840.82L877.64 832.57L884.81 823.83L891.68 814.36L897.99 803.54L903.73 791.71L908.92 779.39L913.65 766.86L917.95 754.46L921.82 742.55L925.25 731.54L928.2 721.88L930.6 714.1L932.53 708.26L933.89 697.67L930.51 687.54L923.07 679.87L913.04 676.19L902.41 677.23L893.28 682.78L887.47 691.74L884.91 698.14L881.88 706.54L878.52 716.16L874.82 726.7L870.8 737.79L866.51 749.01L862.01 759.89L857.39 769.95L852.8 778.64L848.32 785.64L843.66 792.04L838.36 798.5L832.64 804.74L826.58 810.72L820.24 816.4L813.72 821.76L807.09 826.75L800.44 831.35L793.85 835.52L787.54 839.18L781.52 842.27L775.54 844.9L769.47 847.16L763.32 849.07L757.1 850.64L750.79 851.89L744.42 852.83L737.98 853.49L731.5 853.88L725 854L718.5 853.88L712.02 853.49L705.58 852.83L699.21 851.89L692.9 850.64L686.68 849.07L680.53 847.16L674.46 844.9L668.48 842.27L662.46 839.18L656.15 835.52L649.56 831.35L642.91 826.75L636.28 821.76L629.76 816.4L623.42 810.72L617.36 804.74L611.64 798.5L606.34 792.04L601.68 785.64L597.2 778.64L592.61 769.95L587.99 759.89L583.49 749.01L579.2 737.79L575.18 726.7L571.48 716.16L568.12 706.54L565.09 698.14L562.53 691.74L556.72 682.78L547.59 677.23L536.96 676.19L526.93 679.87L519.49 687.54L516.11 697.67Z" fill="#B8C8CA" stroke="none"/></g><g><path d="M700 437C700 443.39 698.8 450.09 696.57 456.16C694.35 462.23 690.87 468.28 686.63 473.44C682.39 478.61 676.98 483.41 671.14 487.16C665.31 490.91 658.49 493.99 651.63 495.97C644.77 497.94 637.21 499 630 499C622.79 499 615.23 497.94 608.37 495.97C601.51 493.99 594.69 490.91 588.86 487.16C583.02 483.41 577.61 478.61 573.37 473.44C569.13 468.28 565.65 462.23 563.43 456.16C561.2 450.09 560 443.39 560 437C560 430.61 561.2 423.91 563.43 417.84C565.65 411.77 569.13 405.72 573.37 400.56C577.61 395.39 583.02 390.59 588.86 386.84C594.69 383.09 601.51 380.01 608.37 378.03C615.23 376.06 622.79 375 630 375C637.21 375 644.77 376.06 651.63 378.03C658.49 380.01 665.31 383.09 671.14 386.84C676.98 390.59 682.39 395.39 686.63 400.56C690.87 405.72 694.35 411.77 696.57 417.84C698.8 423.91 700 430.61 700 437Z" fill="#586F73" stroke="#586F73" stroke-width="3" stroke-linejoin="round" stroke-linecap="round"/><path d="M700 437C700 443.39 698.8 450.09 696.57 456.16C694.35 462.23 690.87 468.28 686.63 473.44C682.39 478.61 676.98 483.41 671.14 487.16C665.31 490.91 658.49 493.99 651.63 495.97C644.77 497.94 637.21 499 630 499C622.79 499 615.23 497.94 608.37 495.97C601.51 493.99 594.69 490.91 588.86 487.16C583.02 483.41 577.61 478.61 573.37 473.44C569.13 468.28 565.65 462.23 563.43 456.16C561.2 450.09 560 443.39 560 437C560 430.61 561.2 423.91 563.43 417.84C565.65 411.77 569.13 405.72 573.37 400.56C577.61 395.39 583.02 390.59 588.86 386.84C594.69 383.09 601.51 380.01 608.37 378.03C615.23 376.06 622.79 375 630 375C637.21 375 644.77 376.06 651.63 378.03C658.49 380.01 665.31 383.09 671.14 386.84C676.98 390.59 682.39 395.39 686.63 400.56C690.87 405.72 694.35 411.77 696.57 417.84C698.8 423.91 700 430.61 700 437Z" fill="#DAD6CA" stroke="none"/></g><g><path d="M890 437C890 443.39 888.8 450.09 886.57 456.16C884.35 462.23 880.87 468.28 876.63 473.44C872.39 478.61 866.98 483.41 861.14 487.16C855.31 490.91 848.49 493.99 841.63 495.97C834.77 497.94 827.21 499 820 499C812.79 499 805.23 497.94 798.37 495.97C791.51 493.99 784.69 490.91 778.86 487.16C773.02 483.41 767.61 478.61 763.37 473.44C759.13 468.28 755.65 462.23 753.43 456.16C751.2 450.09 750 443.39 750 437C750 430.61 751.2 423.91 753.43 417.84C755.65 411.77 759.13 405.72 763.37 400.56C767.61 395.39 773.02 390.59 778.86 386.84C784.69 383.09 791.51 380.01 798.37 378.03C805.23 376.06 812.79 375 820 375C827.21 375 834.77 376.06 841.63 378.03C848.49 380.01 855.31 383.09 861.14 386.84C866.98 390.59 872.39 395.39 876.63 400.56C880.87 405.72 884.35 411.77 886.57 417.84C888.8 423.91 890 430.61 890 437Z" fill="#586F73" stroke="#586F73" stroke-width="3" stroke-linejoin="round" stroke-linecap="round"/><path d="M890 437C890 443.39 888.8 450.09 886.57 456.16C884.35 462.23 880.87 468.28 876.63 473.44C872.39 478.61 866.98 483.41 861.14 487.16C855.31 490.91 848.49 493.99 841.63 495.97C834.77 497.94 827.21 499 820 499C812.79 499 805.23 497.94 798.37 495.97C791.51 493.99 784.69 490.91 778.86 487.16C773.02 483.41 767.61 478.61 763.37 473.44C759.13 468.28 755.65 462.23 753.43 456.16C751.2 450.09 750 443.39 750 437C750 430.61 751.2 423.91 753.43 417.84C755.65 411.77 759.13 405.72 763.37 400.56C767.61 395.39 773.02 390.59 778.86 386.84C784.69 383.09 791.51 380.01 798.37 378.03C805.23 376.06 812.79 375 820 375C827.21 375 834.77 376.06 841.63 378.03C848.49 380.01 855.31 383.09 861.14 386.84C866.98 390.59 872.39 395.39 876.63 400.56C880.87 405.72 884.35 411.77 886.57 417.84C888.8 423.91 890 430.61 890 437Z" fill="#DAD6CA" stroke="none"/></g><g><path d="M725 545C716.67 545 705.83 562.5 700 575C694.17 587.5 685.83 609.17 690 620C694.17 630.83 713.33 640 725 640C736.67 640 755.83 630.83 760 620C764.17 609.17 755.83 587.5 750 575C744.17 562.5 733.33 545 725 545Z" fill="#38434A" stroke="#38434A" stroke-width="3" stroke-linejoin="round" stroke-linecap="round"/><path d="M725 545C716.67 545 705.83 562.5 700 575C694.17 587.5 685.83 609.17 690 620C694.17 630.83 713.33 640 725 640C736.67 640 755.83 630.83 760 620C764.17 609.17 755.83 587.5 750 575C744.17 562.5 733.33 545 725 545Z" fill="#56636A" stroke="none"/></g><g data-structure-id="vomer" data-anchor="725,593"><path d="M722 556L721.9 560.74L721.8 567.25L721.7 575.09L721.6 583.82L721.5 593L721.4 602.18L721.3 610.91L721.2 618.75L721.1 625.26L721 630L721.4 631.74L722.51 633.13L724.11 633.9L725.89 633.9L727.49 633.13L728.6 631.74L729 630L728.9 625.26L728.8 618.75L728.7 610.91L728.6 602.18L728.5 593L728.4 583.82L728.3 575.09L728.2 567.25L728.1 560.74L728 556L727.7 554.7L726.87 553.65L725.67 553.08L724.33 553.08L723.13 553.65L722.3 554.7Z" fill="#7F7766" stroke="#7F7766" stroke-width="3" stroke-linejoin="round" stroke-linecap="round"/><path d="M722 556L721.9 560.74L721.8 567.25L721.7 575.09L721.6 583.82L721.5 593L721.4 602.18L721.3 610.91L721.2 618.75L721.1 625.26L721 630L721.4 631.74L722.51 633.13L724.11 633.9L725.89 633.9L727.49 633.13L728.6 631.74L729 630L728.9 625.26L728.8 618.75L728.7 610.91L728.6 602.18L728.5 593L728.4 583.82L728.3 575.09L728.2 567.25L728.1 560.74L728 556L727.7 554.7L726.87 553.65L725.67 553.08L724.33 553.08L723.13 553.65L722.3 554.7Z" fill="#E9E2D1" stroke="none"/></g><g data-structure-id="inferior-nasal-concha" data-anchor="706,610"><path d="M716 610C716 611.85 715.83 613.8 715.51 615.56C715.19 617.33 714.7 619.08 714.09 620.58C713.48 622.08 712.71 623.47 711.88 624.56C711.04 625.65 710.07 626.55 709.09 627.12C708.11 627.69 707.03 628 706 628C704.97 628 703.89 627.69 702.91 627.12C701.93 626.55 700.96 625.65 700.12 624.56C699.29 623.47 698.52 622.08 697.91 620.58C697.3 619.08 696.81 617.33 696.49 615.56C696.17 613.8 696 611.85 696 610C696 608.15 696.17 606.2 696.49 604.44C696.81 602.67 697.3 600.92 697.91 599.42C698.52 597.92 699.29 596.53 700.12 595.44C700.96 594.35 701.93 593.45 702.91 592.88C703.89 592.31 704.97 592 706 592C707.03 592 708.11 592.31 709.09 592.88C710.07 593.45 711.04 594.35 711.88 595.44C712.71 596.53 713.48 597.92 714.09 599.42C714.7 600.92 715.19 602.67 715.51 604.44C715.83 606.2 716 608.15 716 610Z" fill="#7F7766" stroke="#7F7766" stroke-width="3" stroke-linejoin="round" stroke-linecap="round"/><path d="M716 610C716 611.85 715.83 613.8 715.51 615.56C715.19 617.33 714.7 619.08 714.09 620.58C713.48 622.08 712.71 623.47 711.88 624.56C711.04 625.65 710.07 626.55 709.09 627.12C708.11 627.69 707.03 628 706 628C704.97 628 703.89 627.69 702.91 627.12C701.93 626.55 700.96 625.65 700.12 624.56C699.29 623.47 698.52 622.08 697.91 620.58C697.3 619.08 696.81 617.33 696.49 615.56C696.17 613.8 696 611.85 696 610C696 608.15 696.17 606.2 696.49 604.44C696.81 602.67 697.3 600.92 697.91 599.42C698.52 597.92 699.29 596.53 700.12 595.44C700.96 594.35 701.93 593.45 702.91 592.88C703.89 592.31 704.97 592 706 592C707.03 592 708.11 592.31 709.09 592.88C710.07 593.45 711.04 594.35 711.88 595.44C712.71 596.53 713.48 597.92 714.09 599.42C714.7 600.92 715.19 602.67 715.51 604.44C715.83 606.2 716 608.15 716 610Z" fill="#CFC6B1" stroke="none"/></g><g><path d="M754 610C754 611.85 753.83 613.8 753.51 615.56C753.19 617.33 752.7 619.08 752.09 620.58C751.48 622.08 750.71 623.47 749.88 624.56C749.04 625.65 748.07 626.55 747.09 627.12C746.11 627.69 745.03 628 744 628C742.97 628 741.89 627.69 740.91 627.12C739.93 626.55 738.96 625.65 738.12 624.56C737.29 623.47 736.52 622.08 735.91 620.58C735.3 619.08 734.81 617.33 734.49 615.56C734.17 613.8 734 611.85 734 610C734 608.15 734.17 606.2 734.49 604.44C734.81 602.67 735.3 600.92 735.91 599.42C736.52 597.92 737.29 596.53 738.12 595.44C738.96 594.35 739.93 593.45 740.91 592.88C741.89 592.31 742.97 592 744 592C745.03 592 746.11 592.31 747.09 592.88C748.07 593.45 749.04 594.35 749.88 595.44C750.71 596.53 751.48 597.92 752.09 599.42C752.7 600.92 753.19 602.67 753.51 604.44C753.83 606.2 754 608.15 754 610Z" fill="#7F7766" stroke="#7F7766" stroke-width="3" stroke-linejoin="round" stroke-linecap="round"/><path d="M754 610C754 611.85 753.83 613.8 753.51 615.56C753.19 617.33 752.7 619.08 752.09 620.58C751.48 622.08 750.71 623.47 749.88 624.56C749.04 625.65 748.07 626.55 747.09 627.12C746.11 627.69 745.03 628 744 628C742.97 628 741.89 627.69 740.91 627.12C739.93 626.55 738.96 625.65 738.12 624.56C737.29 623.47 736.52 622.08 735.91 620.58C735.3 619.08 734.81 617.33 734.49 615.56C734.17 613.8 734 611.85 734 610C734 608.15 734.17 606.2 734.49 604.44C734.81 602.67 735.3 600.92 735.91 599.42C736.52 597.92 737.29 596.53 738.12 595.44C738.96 594.35 739.93 593.45 740.91 592.88C741.89 592.31 742.97 592 744 592C745.03 592 746.11 592.31 747.09 592.88C748.07 593.45 749.04 594.35 749.88 595.44C750.71 596.53 751.48 597.92 752.09 599.42C752.7 600.92 753.19 602.67 753.51 604.44C753.83 606.2 754 608.15 754 610Z" fill="#CFC6B1" stroke="none"/></g><g data-structure-id="lacrimal-bone" data-anchor="692,458"><path d="M699 458C699 459.55 698.88 461.17 698.66 462.64C698.43 464.1 698.09 465.57 697.66 466.82C697.24 468.07 696.7 469.23 696.11 470.14C695.53 471.04 694.85 471.79 694.16 472.27C693.48 472.74 692.72 473 692 473C691.28 473 690.52 472.74 689.84 472.27C689.15 471.79 688.47 471.04 687.89 470.14C687.3 469.23 686.76 468.07 686.34 466.82C685.91 465.57 685.57 464.1 685.34 462.64C685.12 461.17 685 459.55 685 458C685 456.45 685.12 454.83 685.34 453.36C685.57 451.9 685.91 450.43 686.34 449.18C686.76 447.93 687.3 446.77 687.89 445.86C688.47 444.96 689.15 444.21 689.84 443.73C690.52 443.26 691.28 443 692 443C692.72 443 693.48 443.26 694.16 443.73C694.85 444.21 695.53 444.96 696.11 445.86C696.7 446.77 697.24 447.93 697.66 449.18C698.09 450.43 698.43 451.9 698.66 453.36C698.88 454.83 699 456.45 699 458Z" fill="#7F7766" stroke="#7F7766" stroke-width="3" stroke-linejoin="round" stroke-linecap="round"/><path d="M699 458C699 459.55 698.88 461.17 698.66 462.64C698.43 464.1 698.09 465.57 697.66 466.82C697.24 468.07 696.7 469.23 696.11 470.14C695.53 471.04 694.85 471.79 694.16 472.27C693.48 472.74 692.72 473 692 473C691.28 473 690.52 472.74 689.84 472.27C689.15 471.79 688.47 471.04 687.89 470.14C687.3 469.23 686.76 468.07 686.34 466.82C685.91 465.57 685.57 464.1 685.34 462.64C685.12 461.17 685 459.55 685 458C685 456.45 685.12 454.83 685.34 453.36C685.57 451.9 685.91 450.43 686.34 449.18C686.76 447.93 687.3 446.77 687.89 445.86C688.47 444.96 689.15 444.21 689.84 443.73C690.52 443.26 691.28 443 692 443C692.72 443 693.48 443.26 694.16 443.73C694.85 444.21 695.53 444.96 696.11 445.86C696.7 446.77 697.24 447.93 697.66 449.18C698.09 450.43 698.43 451.9 698.66 453.36C698.88 454.83 699 456.45 699 458Z" fill="#CFC6B1" stroke="none"/></g><g><path d="M765 458C765 459.55 764.88 461.17 764.66 462.64C764.43 464.1 764.09 465.57 763.66 466.82C763.24 468.07 762.7 469.23 762.11 470.14C761.53 471.04 760.85 471.79 760.16 472.27C759.48 472.74 758.72 473 758 473C757.28 473 756.52 472.74 755.84 472.27C755.15 471.79 754.47 471.04 753.89 470.14C753.3 469.23 752.76 468.07 752.34 466.82C751.91 465.57 751.57 464.1 751.34 462.64C751.12 461.17 751 459.55 751 458C751 456.45 751.12 454.83 751.34 453.36C751.57 451.9 751.91 450.43 752.34 449.18C752.76 447.93 753.3 446.77 753.89 445.86C754.47 444.96 755.15 444.21 755.84 443.73C756.52 443.26 757.28 443 758 443C758.72 443 759.48 443.26 760.16 443.73C760.85 444.21 761.53 444.96 762.11 445.86C762.7 446.77 763.24 447.93 763.66 449.18C764.09 450.43 764.43 451.9 764.66 453.36C764.88 454.83 765 456.45 765 458Z" fill="#7F7766" stroke="#7F7766" stroke-width="3" stroke-linejoin="round" stroke-linecap="round"/><path d="M765 458C765 459.55 764.88 461.17 764.66 462.64C764.43 464.1 764.09 465.57 763.66 466.82C763.24 468.07 762.7 469.23 762.11 470.14C761.53 471.04 760.85 471.79 760.16 472.27C759.48 472.74 758.72 473 758 473C757.28 473 756.52 472.74 755.84 472.27C755.15 471.79 754.47 471.04 753.89 470.14C753.3 469.23 752.76 468.07 752.34 466.82C751.91 465.57 751.57 464.1 751.34 462.64C751.12 461.17 751 459.55 751 458C751 456.45 751.12 454.83 751.34 453.36C751.57 451.9 751.91 450.43 752.34 449.18C752.76 447.93 753.3 446.77 753.89 445.86C754.47 444.96 755.15 444.21 755.84 443.73C756.52 443.26 757.28 443 758 443C758.72 443 759.48 443.26 760.16 443.73C760.85 444.21 761.53 444.96 762.11 445.86C762.7 446.77 763.24 447.93 763.66 449.18C764.09 450.43 764.43 451.9 764.66 453.36C764.88 454.83 765 456.45 765 458Z" fill="#CFC6B1" stroke="none"/></g><g data-structure-id="supraorbital-foramen" data-anchor="655,376"><path d="M662 376C662 376.62 661.88 377.27 661.66 377.85C661.43 378.44 661.09 379.03 660.66 379.53C660.24 380.03 659.7 380.49 659.11 380.85C658.53 381.22 657.85 381.52 657.16 381.71C656.48 381.9 655.72 382 655 382C654.28 382 653.52 381.9 652.84 381.71C652.15 381.52 651.47 381.22 650.89 380.85C650.3 380.49 649.76 380.03 649.34 379.53C648.91 379.03 648.57 378.44 648.34 377.85C648.12 377.27 648 376.62 648 376C648 375.38 648.12 374.73 648.34 374.15C648.57 373.56 648.91 372.97 649.34 372.47C649.76 371.97 650.3 371.51 650.89 371.15C651.47 370.78 652.15 370.48 652.84 370.29C653.52 370.1 654.28 370 655 370C655.72 370 656.48 370.1 657.16 370.29C657.85 370.48 658.53 370.78 659.11 371.15C659.7 371.51 660.24 371.97 660.66 372.47C661.09 372.97 661.43 373.56 661.66 374.15C661.88 374.73 662 375.38 662 376Z" fill="#38434A" stroke="#38434A" stroke-width="3" stroke-linejoin="round" stroke-linecap="round"/><path d="M662 376C662 376.62 661.88 377.27 661.66 377.85C661.43 378.44 661.09 379.03 660.66 379.53C660.24 380.03 659.7 380.49 659.11 380.85C658.53 381.22 657.85 381.52 657.16 381.71C656.48 381.9 655.72 382 655 382C654.28 382 653.52 381.9 652.84 381.71C652.15 381.52 651.47 381.22 650.89 380.85C650.3 380.49 649.76 380.03 649.34 379.53C648.91 379.03 648.57 378.44 648.34 377.85C648.12 377.27 648 376.62 648 376C648 375.38 648.12 374.73 648.34 374.15C648.57 373.56 648.91 372.97 649.34 372.47C649.76 371.97 650.3 371.51 650.89 371.15C651.47 370.78 652.15 370.48 652.84 370.29C653.52 370.1 654.28 370 655 370C655.72 370 656.48 370.1 657.16 370.29C657.85 370.48 658.53 370.78 659.11 371.15C659.7 371.51 660.24 371.97 660.66 372.47C661.09 372.97 661.43 373.56 661.66 374.15C661.88 374.73 662 375.38 662 376Z" fill="#56636A" stroke="none"/></g><g><path d="M802 376C802 376.62 801.88 377.27 801.66 377.85C801.43 378.44 801.09 379.03 800.66 379.53C800.24 380.03 799.7 380.49 799.11 380.85C798.53 381.22 797.85 381.52 797.16 381.71C796.48 381.9 795.72 382 795 382C794.28 382 793.52 381.9 792.84 381.71C792.15 381.52 791.47 381.22 790.89 380.85C790.3 380.49 789.76 380.03 789.34 379.53C788.91 379.03 788.57 378.44 788.34 377.85C788.12 377.27 788 376.62 788 376C788 375.38 788.12 374.73 788.34 374.15C788.57 373.56 788.91 372.97 789.34 372.47C789.76 371.97 790.3 371.51 790.89 371.15C791.47 370.78 792.15 370.48 792.84 370.29C793.52 370.1 794.28 370 795 370C795.72 370 796.48 370.1 797.16 370.29C797.85 370.48 798.53 370.78 799.11 371.15C799.7 371.51 800.24 371.97 800.66 372.47C801.09 372.97 801.43 373.56 801.66 374.15C801.88 374.73 802 375.38 802 376Z" fill="#38434A" stroke="#38434A" stroke-width="3" stroke-linejoin="round" stroke-linecap="round"/><path d="M802 376C802 376.62 801.88 377.27 801.66 377.85C801.43 378.44 801.09 379.03 800.66 379.53C800.24 380.03 799.7 380.49 799.11 380.85C798.53 381.22 797.85 381.52 797.16 381.71C796.48 381.9 795.72 382 795 382C794.28 382 793.52 381.9 792.84 381.71C792.15 381.52 791.47 381.22 790.89 380.85C790.3 380.49 789.76 380.03 789.34 379.53C788.91 379.03 788.57 378.44 788.34 377.85C788.12 377.27 788 376.62 788 376C788 375.38 788.12 374.73 788.34 374.15C788.57 373.56 788.91 372.97 789.34 372.47C789.76 371.97 790.3 371.51 790.89 371.15C791.47 370.78 792.15 370.48 792.84 370.29C793.52 370.1 794.28 370 795 370C795.72 370 796.48 370.1 797.16 370.29C797.85 370.48 798.53 370.78 799.11 371.15C799.7 371.51 800.24 371.97 800.66 372.47C801.09 372.97 801.43 373.56 801.66 374.15C801.88 374.73 802 375.38 802 376Z" fill="#56636A" stroke="none"/></g><g data-structure-id="optic-canal" data-anchor="672,424"><path d="M681 424C681 424.93 680.85 425.9 680.56 426.78C680.27 427.66 679.83 428.54 679.28 429.29C678.74 430.04 678.04 430.74 677.29 431.28C676.54 431.83 675.66 432.27 674.78 432.56C673.9 432.85 672.93 433 672 433C671.07 433 670.1 432.85 669.22 432.56C668.34 432.27 667.46 431.83 666.71 431.28C665.96 430.74 665.26 430.04 664.72 429.29C664.17 428.54 663.73 427.66 663.44 426.78C663.15 425.9 663 424.93 663 424C663 423.07 663.15 422.1 663.44 421.22C663.73 420.34 664.17 419.46 664.72 418.71C665.26 417.96 665.96 417.26 666.71 416.72C667.46 416.17 668.34 415.73 669.22 415.44C670.1 415.15 671.07 415 672 415C672.93 415 673.9 415.15 674.78 415.44C675.66 415.73 676.54 416.17 677.29 416.72C678.04 417.26 678.74 417.96 679.28 418.71C679.83 419.46 680.27 420.34 680.56 421.22C680.85 422.1 681 423.07 681 424Z" fill="#38434A" stroke="#38434A" stroke-width="3" stroke-linejoin="round" stroke-linecap="round"/><path d="M681 424C681 424.93 680.85 425.9 680.56 426.78C680.27 427.66 679.83 428.54 679.28 429.29C678.74 430.04 678.04 430.74 677.29 431.28C676.54 431.83 675.66 432.27 674.78 432.56C673.9 432.85 672.93 433 672 433C671.07 433 670.1 432.85 669.22 432.56C668.34 432.27 667.46 431.83 666.71 431.28C665.96 430.74 665.26 430.04 664.72 429.29C664.17 428.54 663.73 427.66 663.44 426.78C663.15 425.9 663 424.93 663 424C663 423.07 663.15 422.1 663.44 421.22C663.73 420.34 664.17 419.46 664.72 418.71C665.26 417.96 665.96 417.26 666.71 416.72C667.46 416.17 668.34 415.73 669.22 415.44C670.1 415.15 671.07 415 672 415C672.93 415 673.9 415.15 674.78 415.44C675.66 415.73 676.54 416.17 677.29 416.72C678.04 417.26 678.74 417.96 679.28 418.71C679.83 419.46 680.27 420.34 680.56 421.22C680.85 422.1 681 423.07 681 424Z" fill="#56636A" stroke="none"/></g><g><path d="M787 424C787 424.93 786.85 425.9 786.56 426.78C786.27 427.66 785.83 428.54 785.28 429.29C784.74 430.04 784.04 430.74 783.29 431.28C782.54 431.83 781.66 432.27 780.78 432.56C779.9 432.85 778.93 433 778 433C777.07 433 776.1 432.85 775.22 432.56C774.34 432.27 773.46 431.83 772.71 431.28C771.96 430.74 771.26 430.04 770.72 429.29C770.17 428.54 769.73 427.66 769.44 426.78C769.15 425.9 769 424.93 769 424C769 423.07 769.15 422.1 769.44 421.22C769.73 420.34 770.17 419.46 770.72 418.71C771.26 417.96 771.96 417.26 772.71 416.72C773.46 416.17 774.34 415.73 775.22 415.44C776.1 415.15 777.07 415 778 415C778.93 415 779.9 415.15 780.78 415.44C781.66 415.73 782.54 416.17 783.29 416.72C784.04 417.26 784.74 417.96 785.28 418.71C785.83 419.46 786.27 420.34 786.56 421.22C786.85 422.1 787 423.07 787 424Z" fill="#38434A" stroke="#38434A" stroke-width="3" stroke-linejoin="round" stroke-linecap="round"/><path d="M787 424C787 424.93 786.85 425.9 786.56 426.78C786.27 427.66 785.83 428.54 785.28 429.29C784.74 430.04 784.04 430.74 783.29 431.28C782.54 431.83 781.66 432.27 780.78 432.56C779.9 432.85 778.93 433 778 433C777.07 433 776.1 432.85 775.22 432.56C774.34 432.27 773.46 431.83 772.71 431.28C771.96 430.74 771.26 430.04 770.72 429.29C770.17 428.54 769.73 427.66 769.44 426.78C769.15 425.9 769 424.93 769 424C769 423.07 769.15 422.1 769.44 421.22C769.73 420.34 770.17 419.46 770.72 418.71C771.26 417.96 771.96 417.26 772.71 416.72C773.46 416.17 774.34 415.73 775.22 415.44C776.1 415.15 777.07 415 778 415C778.93 415 779.9 415.15 780.78 415.44C781.66 415.73 782.54 416.17 783.29 416.72C784.04 417.26 784.74 417.96 785.28 418.71C785.83 419.46 786.27 420.34 786.56 421.22C786.85 422.1 787 423.07 787 424Z" fill="#56636A" stroke="none"/></g><g data-structure-id="superior-orbital-fissure" data-anchor="645,464"><path d="M668.64 459.83C668.72 460.34 668.41 460.94 667.75 461.56C667.08 462.17 665.99 462.86 664.63 463.52C663.27 464.19 661.51 464.89 659.59 465.53C657.68 466.18 655.42 466.83 653.13 467.4C650.84 467.96 648.3 468.49 645.87 468.92C643.43 469.35 640.87 469.72 638.52 469.97C636.18 470.22 633.83 470.38 631.81 470.43C629.79 470.48 627.89 470.42 626.39 470.27C624.89 470.11 623.63 469.83 622.79 469.49C621.95 469.14 621.45 468.67 621.36 468.17C621.28 467.66 621.59 467.06 622.25 466.44C622.92 465.83 624.01 465.14 625.37 464.48C626.73 463.81 628.49 463.11 630.41 462.47C632.32 461.82 634.58 461.17 636.87 460.6C639.16 460.04 641.7 459.51 644.13 459.08C646.57 458.65 649.13 458.28 651.48 458.03C653.82 457.78 656.17 457.62 658.19 457.57C660.21 457.52 662.11 457.58 663.61 457.73C665.11 457.89 666.37 458.17 667.21 458.51C668.05 458.86 668.55 459.33 668.64 459.83Z" fill="#38434A" stroke="#38434A" stroke-width="3" stroke-linejoin="round" stroke-linecap="round"/><path d="M668.64 459.83C668.72 460.34 668.41 460.94 667.75 461.56C667.08 462.17 665.99 462.86 664.63 463.52C663.27 464.19 661.51 464.89 659.59 465.53C657.68 466.18 655.42 466.83 653.13 467.4C650.84 467.96 648.3 468.49 645.87 468.92C643.43 469.35 640.87 469.72 638.52 469.97C636.18 470.22 633.83 470.38 631.81 470.43C629.79 470.48 627.89 470.42 626.39 470.27C624.89 470.11 623.63 469.83 622.79 469.49C621.95 469.14 621.45 468.67 621.36 468.17C621.28 467.66 621.59 467.06 622.25 466.44C622.92 465.83 624.01 465.14 625.37 464.48C626.73 463.81 628.49 463.11 630.41 462.47C632.32 461.82 634.58 461.17 636.87 460.6C639.16 460.04 641.7 459.51 644.13 459.08C646.57 458.65 649.13 458.28 651.48 458.03C653.82 457.78 656.17 457.62 658.19 457.57C660.21 457.52 662.11 457.58 663.61 457.73C665.11 457.89 666.37 458.17 667.21 458.51C668.05 458.86 668.55 459.33 668.64 459.83Z" fill="#56636A" stroke="none"/></g><g><path d="M828.64 468.17C828.55 468.67 828.05 469.14 827.21 469.49C826.37 469.83 825.11 470.11 823.61 470.27C822.11 470.42 820.21 470.48 818.19 470.43C816.17 470.38 813.82 470.22 811.48 469.97C809.13 469.72 806.57 469.35 804.13 468.92C801.7 468.49 799.16 467.96 796.87 467.4C794.58 466.83 792.32 466.18 790.41 465.53C788.49 464.89 786.73 464.19 785.37 463.52C784.01 462.86 782.92 462.17 782.25 461.56C781.59 460.94 781.28 460.34 781.36 459.83C781.45 459.33 781.95 458.86 782.79 458.51C783.63 458.17 784.89 457.89 786.39 457.73C787.89 457.58 789.79 457.52 791.81 457.57C793.83 457.62 796.18 457.78 798.52 458.03C800.87 458.28 803.43 458.65 805.87 459.08C808.3 459.51 810.84 460.04 813.13 460.6C815.42 461.17 817.68 461.82 819.59 462.47C821.51 463.11 823.27 463.81 824.63 464.48C825.99 465.14 827.08 465.83 827.75 466.44C828.41 467.06 828.72 467.66 828.64 468.17Z" fill="#38434A" stroke="#38434A" stroke-width="3" stroke-linejoin="round" stroke-linecap="round"/><path d="M828.64 468.17C828.55 468.67 828.05 469.14 827.21 469.49C826.37 469.83 825.11 470.11 823.61 470.27C822.11 470.42 820.21 470.48 818.19 470.43C816.17 470.38 813.82 470.22 811.48 469.97C809.13 469.72 806.57 469.35 804.13 468.92C801.7 468.49 799.16 467.96 796.87 467.4C794.58 466.83 792.32 466.18 790.41 465.53C788.49 464.89 786.73 464.19 785.37 463.52C784.01 462.86 782.92 462.17 782.25 461.56C781.59 460.94 781.28 460.34 781.36 459.83C781.45 459.33 781.95 458.86 782.79 458.51C783.63 458.17 784.89 457.89 786.39 457.73C787.89 457.58 789.79 457.52 791.81 457.57C793.83 457.62 796.18 457.78 798.52 458.03C800.87 458.28 803.43 458.65 805.87 459.08C808.3 459.51 810.84 460.04 813.13 460.6C815.42 461.17 817.68 461.82 819.59 462.47C821.51 463.11 823.27 463.81 824.63 464.48C825.99 465.14 827.08 465.83 827.75 466.44C828.41 467.06 828.72 467.66 828.64 468.17Z" fill="#56636A" stroke="none"/></g><g data-structure-id="inferior-orbital-fissure" data-anchor="600,484"><path d="M622.55 492.21C622.38 492.69 621.81 493.06 620.92 493.26C620.03 493.46 618.75 493.51 617.24 493.4C615.73 493.3 613.86 493.03 611.87 492.63C609.89 492.23 607.61 491.66 605.34 491.01C603.08 490.35 600.61 489.54 598.29 488.7C595.97 487.85 593.56 486.89 591.4 485.93C589.25 484.98 587.14 483.94 585.36 482.98C583.58 482.01 581.97 481.01 580.75 480.12C579.53 479.23 578.57 478.37 578.02 477.65C577.47 476.92 577.27 476.28 577.45 475.79C577.62 475.31 578.19 474.94 579.08 474.74C579.97 474.54 581.25 474.49 582.76 474.6C584.27 474.7 586.14 474.97 588.13 475.37C590.11 475.77 592.39 476.34 594.66 476.99C596.92 477.65 599.39 478.46 601.71 479.3C604.03 480.15 606.44 481.11 608.6 482.07C610.75 483.02 612.86 484.06 614.64 485.02C616.42 485.99 618.03 486.99 619.25 487.88C620.47 488.77 621.43 489.63 621.98 490.35C622.53 491.08 622.73 491.72 622.55 492.21Z" fill="#38434A" stroke="#38434A" stroke-width="3" stroke-linejoin="round" stroke-linecap="round"/><path d="M622.55 492.21C622.38 492.69 621.81 493.06 620.92 493.26C620.03 493.46 618.75 493.51 617.24 493.4C615.73 493.3 613.86 493.03 611.87 492.63C609.89 492.23 607.61 491.66 605.34 491.01C603.08 490.35 600.61 489.54 598.29 488.7C595.97 487.85 593.56 486.89 591.4 485.93C589.25 484.98 587.14 483.94 585.36 482.98C583.58 482.01 581.97 481.01 580.75 480.12C579.53 479.23 578.57 478.37 578.02 477.65C577.47 476.92 577.27 476.28 577.45 475.79C577.62 475.31 578.19 474.94 579.08 474.74C579.97 474.54 581.25 474.49 582.76 474.6C584.27 474.7 586.14 474.97 588.13 475.37C590.11 475.77 592.39 476.34 594.66 476.99C596.92 477.65 599.39 478.46 601.71 479.3C604.03 480.15 606.44 481.11 608.6 482.07C610.75 483.02 612.86 484.06 614.64 485.02C616.42 485.99 618.03 486.99 619.25 487.88C620.47 488.77 621.43 489.63 621.98 490.35C622.53 491.08 622.73 491.72 622.55 492.21Z" fill="#56636A" stroke="none"/></g><g><path d="M872.55 475.79C872.73 476.28 872.53 476.92 871.98 477.65C871.43 478.37 870.47 479.23 869.25 480.12C868.03 481.01 866.42 482.01 864.64 482.98C862.86 483.94 860.75 484.98 858.6 485.93C856.44 486.89 854.03 487.85 851.71 488.7C849.39 489.54 846.92 490.35 844.66 491.01C842.39 491.66 840.11 492.23 838.13 492.63C836.14 493.03 834.27 493.3 832.76 493.4C831.25 493.51 829.97 493.46 829.08 493.26C828.19 493.06 827.62 492.69 827.45 492.21C827.27 491.72 827.47 491.08 828.02 490.35C828.57 489.63 829.53 488.77 830.75 487.88C831.97 486.99 833.58 485.99 835.36 485.02C837.14 484.06 839.25 483.02 841.4 482.07C843.56 481.11 845.97 480.15 848.29 479.3C850.61 478.46 853.08 477.65 855.34 476.99C857.61 476.34 859.89 475.77 861.87 475.37C863.86 474.97 865.73 474.7 867.24 474.6C868.75 474.49 870.03 474.54 870.92 474.74C871.81 474.94 872.38 475.31 872.55 475.79Z" fill="#38434A" stroke="#38434A" stroke-width="3" stroke-linejoin="round" stroke-linecap="round"/><path d="M872.55 475.79C872.73 476.28 872.53 476.92 871.98 477.65C871.43 478.37 870.47 479.23 869.25 480.12C868.03 481.01 866.42 482.01 864.64 482.98C862.86 483.94 860.75 484.98 858.6 485.93C856.44 486.89 854.03 487.85 851.71 488.7C849.39 489.54 846.92 490.35 844.66 491.01C842.39 491.66 840.11 492.23 838.13 492.63C836.14 493.03 834.27 493.3 832.76 493.4C831.25 493.51 829.97 493.46 829.08 493.26C828.19 493.06 827.62 492.69 827.45 492.21C827.27 491.72 827.47 491.08 828.02 490.35C828.57 489.63 829.53 488.77 830.75 487.88C831.97 486.99 833.58 485.99 835.36 485.02C837.14 484.06 839.25 483.02 841.4 482.07C843.56 481.11 845.97 480.15 848.29 479.3C850.61 478.46 853.08 477.65 855.34 476.99C857.61 476.34 859.89 475.77 861.87 475.37C863.86 474.97 865.73 474.7 867.24 474.6C868.75 474.49 870.03 474.54 870.92 474.74C871.81 474.94 872.38 475.31 872.55 475.79Z" fill="#56636A" stroke="none"/></g><g data-structure-id="mental-foramen" data-anchor="620,836"><path d="M628 836C628 836.72 627.86 837.48 627.61 838.16C627.35 838.85 626.96 839.53 626.47 840.11C625.99 840.7 625.37 841.24 624.7 841.66C624.04 842.09 623.26 842.43 622.47 842.66C621.69 842.88 620.82 843 620 843C619.18 843 618.31 842.88 617.53 842.66C616.74 842.43 615.96 842.09 615.3 841.66C614.63 841.24 614.01 840.7 613.53 840.11C613.04 839.53 612.65 838.85 612.39 838.16C612.14 837.48 612 836.72 612 836C612 835.28 612.14 834.52 612.39 833.84C612.65 833.15 613.04 832.47 613.53 831.89C614.01 831.3 614.63 830.76 615.3 830.34C615.96 829.91 616.74 829.57 617.53 829.34C618.31 829.12 619.18 829 620 829C620.82 829 621.69 829.12 622.47 829.34C623.26 829.57 624.04 829.91 624.7 830.34C625.37 830.76 625.99 831.3 626.47 831.89C626.96 832.47 627.35 833.15 627.61 833.84C627.86 834.52 628 835.28 628 836Z" fill="#38434A" stroke="#38434A" stroke-width="3" stroke-linejoin="round" stroke-linecap="round"/><path d="M628 836C628 836.72 627.86 837.48 627.61 838.16C627.35 838.85 626.96 839.53 626.47 840.11C625.99 840.7 625.37 841.24 624.7 841.66C624.04 842.09 623.26 842.43 622.47 842.66C621.69 842.88 620.82 843 620 843C619.18 843 618.31 842.88 617.53 842.66C616.74 842.43 615.96 842.09 615.3 841.66C614.63 841.24 614.01 840.7 613.53 840.11C613.04 839.53 612.65 838.85 612.39 838.16C612.14 837.48 612 836.72 612 836C612 835.28 612.14 834.52 612.39 833.84C612.65 833.15 613.04 832.47 613.53 831.89C614.01 831.3 614.63 830.76 615.3 830.34C615.96 829.91 616.74 829.57 617.53 829.34C618.31 829.12 619.18 829 620 829C620.82 829 621.69 829.12 622.47 829.34C623.26 829.57 624.04 829.91 624.7 830.34C625.37 830.76 625.99 831.3 626.47 831.89C626.96 832.47 627.35 833.15 627.61 833.84C627.86 834.52 628 835.28 628 836Z" fill="#56636A" stroke="none"/></g><g><path d="M838 836C838 836.72 837.86 837.48 837.61 838.16C837.35 838.85 836.96 839.53 836.47 840.11C835.99 840.7 835.37 841.24 834.7 841.66C834.04 842.09 833.26 842.43 832.47 842.66C831.69 842.88 830.82 843 830 843C829.18 843 828.31 842.88 827.53 842.66C826.74 842.43 825.96 842.09 825.3 841.66C824.63 841.24 824.01 840.7 823.53 840.11C823.04 839.53 822.65 838.85 822.39 838.16C822.14 837.48 822 836.72 822 836C822 835.28 822.14 834.52 822.39 833.84C822.65 833.15 823.04 832.47 823.53 831.89C824.01 831.3 824.63 830.76 825.3 830.34C825.96 829.91 826.74 829.57 827.53 829.34C828.31 829.12 829.18 829 830 829C830.82 829 831.69 829.12 832.47 829.34C833.26 829.57 834.04 829.91 834.7 830.34C835.37 830.76 835.99 831.3 836.47 831.89C836.96 832.47 837.35 833.15 837.61 833.84C837.86 834.52 838 835.28 838 836Z" fill="#38434A" stroke="#38434A" stroke-width="3" stroke-linejoin="round" stroke-linecap="round"/><path d="M838 836C838 836.72 837.86 837.48 837.61 838.16C837.35 838.85 836.96 839.53 836.47 840.11C835.99 840.7 835.37 841.24 834.7 841.66C834.04 842.09 833.26 842.43 832.47 842.66C831.69 842.88 830.82 843 830 843C829.18 843 828.31 842.88 827.53 842.66C826.74 842.43 825.96 842.09 825.3 841.66C824.63 841.24 824.01 840.7 823.53 840.11C823.04 839.53 822.65 838.85 822.39 838.16C822.14 837.48 822 836.72 822 836C822 835.28 822.14 834.52 822.39 833.84C822.65 833.15 823.04 832.47 823.53 831.89C824.01 831.3 824.63 830.76 825.3 830.34C825.96 829.91 826.74 829.57 827.53 829.34C828.31 829.12 829.18 829 830 829C830.82 829 831.69 829.12 832.47 829.34C833.26 829.57 834.04 829.91 834.7 830.34C835.37 830.76 835.99 831.3 836.47 831.89C836.96 832.47 837.35 833.15 837.61 833.84C837.86 834.52 838 835.28 838 836Z" fill="#56636A" stroke="none"/></g>
</svg>
