<svg xmlns="http://www.w3.org/2000/svg" viewBox="0 0 1450 1000" width="1450" height="1000">
<title>Typical vertebra: superior view with lateral inset</title>
<desc>Main panel: the shared vertebral plan from above, with body/anterior at the top and spinous process at the bottom. Inset: a thoracic lateral detail with upper and lower costal demifacets on the posterior body margin, an attached inferior articular facet, and a disc between adjacent bodies. Anterior is toward the viewer's left. The inferior costal facet is shown only in this lateral detail, not as a visible superior surface.</desc>
<rect id="background" width="1450" height="1000" fill="#ECEAE2"/><rect x="880" y="110" width="480" height="780" rx="22" fill="#F3F1EA" stroke="#8A949B" stroke-width="1.4" stroke-dasharray="5 4"/><g><path d="M350 330C386.33 311.67 513.67 311.67 550 330C586.33 348.33 566 405 568 440C570 475 571 511.67 562 540C553 568.33 532.67 594.67 514 610C495.33 625.33 471.33 632 450 632C428.67 632 404.67 625.33 386 610C367.33 594.67 347 568.33 338 540C329 511.67 330 475 332 440C334 405 313.67 348.33 350 330Z" fill="#8A7146" stroke="#8A7146" stroke-width="3" stroke-linejoin="round" stroke-linecap="round"/><path d="M350 330C386.33 311.67 513.67 311.67 550 330C586.33 348.33 566 405 568 440C570 475 571 511.67 562 540C553 568.33 532.67 594.67 514 610C495.33 625.33 471.33 632 450 632C428.67 632 404.67 625.33 386 610C367.33 594.67 347 568.33 338 540C329 511.67 330 475 332 440C334 405 313.67 348.33 350 330Z" fill="#E4CFA8" stroke="none"/></g><g data-structure-id="spinous-process" data-anchor="450,779"><path d="M428 590L428.8 600.39L429.6 614.08L430.4 630.4L431.2 648.64L432 668.13L432.8 688.16L433.6 708.06L434.4 727.12L435.2 744.67L436 760L436.4 773.93L436.8 787.6L437.2 800.88L437.6 813.6L438 825.63L438.4 836.8L438.8 846.97L439.2 856L439.6 863.73L440 870L440.99 874.34L443.77 877.82L447.77 879.75L452.23 879.75L456.23 877.82L459.01 874.34L460 870L460.4 863.73L460.8 856L461.2 846.97L461.6 836.8L462 825.63L462.4 813.6L462.8 800.88L463.2 787.6L463.6 773.93L464 760L464.8 744.67L465.6 727.12L466.4 708.06L467.2 688.16L468 668.13L468.8 648.64L469.6 630.4L470.4 614.08L471.2 600.39L472 590L469.82 580.45L463.72 572.8L454.9 568.55L445.1 568.55L436.28 572.8L430.18 580.45Z" fill="#8A7146" stroke="#8A7146" stroke-width="3" stroke-linejoin="round" stroke-linecap="round"/><path d="M428 590L428.8 600.39L429.6 614.08L430.4 630.4L431.2 648.64L432 668.13L432.8 688.16L433.6 708.06L434.4 727.12L435.2 744.67L436 760L436.4 773.93L436.8 787.6L437.2 800.88L437.6 813.6L438 825.63L438.4 836.8L438.8 846.97L439.2 856L439.6 863.73L440 870L440.99 874.34L443.77 877.82L447.77 879.75L452.23 879.75L456.23 877.82L459.01 874.34L460 870L460.4 863.73L460.8 856L461.2 846.97L461.6 836.8L462 825.63L462.4 813.6L462.8 800.88L463.2 787.6L463.6 773.93L464 760L464.8 744.67L465.6 727.12L466.4 708.06L467.2 688.16L468 668.13L468.8 648.64L469.6 630.4L470.4 614.08L471.2 600.39L472 590L469.82 580.45L463.72 572.8L454.9 568.55L445.1 568.55L436.28 572.8L430.18 580.45Z" fill="#E4CFA8" stroke="none"/></g><g data-structure-id="transverse-process" data-anchor="294,475"><path d="M361.69 447.05L355.75 447.49L347.97 447.75L338.57 447.86L327.97 447.9L316.55 447.93L304.67 448L292.69 448.18L280.95 448.53L269.76 449.12L259.44 450.01L249.58 451.08L239.67 452.48L229.89 454.14L220.36 455.96L211.24 457.87L202.71 459.8L194.95 461.67L188.13 463.4L182.48 464.9L178.03 466.14L172.21 468.36L167.94 472.9L166.05 478.83L166.92 485L170.39 490.18L175.76 493.34L181.97 493.86L186.86 493.77L192.99 493.4L200.03 492.86L207.85 492.2L216.26 491.5L225.08 490.84L234.13 490.29L243.21 489.92L252.08 489.8L260.56 489.99L269.52 490.71L279.69 491.71L290.67 492.93L302.05 494.32L313.45 495.82L324.51 497.38L334.87 498.93L344.19 500.41L352.17 501.78L358.31 502.95L370.6 500.91L380.8 493.75L386.87 482.87L387.62 470.43L382.9 458.89L373.65 450.55Z" fill="#8A7146" stroke="#8A7146" stroke-width="3" stroke-linejoin="round" stroke-linecap="round"/><path d="M361.69 447.05L355.75 447.49L347.97 447.75L338.57 447.86L327.97 447.9L316.55 447.93L304.67 448L292.69 448.18L280.95 448.53L269.76 449.12L259.44 450.01L249.58 451.08L239.67 452.48L229.89 454.14L220.36 455.96L211.24 457.87L202.71 459.8L194.95 461.67L188.13 463.4L182.48 464.9L178.03 466.14L172.21 468.36L167.94 472.9L166.05 478.83L166.92 485L170.39 490.18L175.76 493.34L181.97 493.86L186.86 493.77L192.99 493.4L200.03 492.86L207.85 492.2L216.26 491.5L225.08 490.84L234.13 490.29L243.21 489.92L252.08 489.8L260.56 489.99L269.52 490.71L279.69 491.71L290.67 492.93L302.05 494.32L313.45 495.82L324.51 497.38L334.87 498.93L344.19 500.41L352.17 501.78L358.31 502.95L370.6 500.91L380.8 493.75L386.87 482.87L387.62 470.43L382.9 458.89L373.65 450.55Z" fill="#E4CFA8" stroke="none"/></g><g data-structure-id="transverse-process" data-pin="false"><path d="M541.69 502.95L547.83 501.78L555.81 500.41L565.13 498.93L575.49 497.38L586.55 495.82L597.95 494.32L609.33 492.93L620.31 491.71L630.48 490.71L639.44 489.99L647.92 489.8L656.79 489.92L665.87 490.29L674.92 490.84L683.74 491.5L692.15 492.2L699.97 492.86L707.01 493.4L713.14 493.77L718.03 493.86L724.24 493.34L729.61 490.18L733.08 485L733.95 478.83L732.06 472.9L727.79 468.36L721.97 466.14L717.52 464.9L711.87 463.4L705.05 461.67L697.29 459.8L688.76 457.87L679.64 455.96L670.11 454.14L660.33 452.48L650.42 451.08L640.56 450.01L630.24 449.12L619.05 448.53L607.31 448.18L595.33 448L583.45 447.93L572.03 447.9L561.43 447.86L552.03 447.75L544.25 447.49L538.31 447.05L526.35 450.55L517.1 458.89L512.38 470.43L513.13 482.87L519.2 493.75L529.4 500.91Z" fill="#8A7146" stroke="#8A7146" stroke-width="3" stroke-linejoin="round" stroke-linecap="round"/><path d="M541.69 502.95L547.83 501.78L555.81 500.41L565.13 498.93L575.49 497.38L586.55 495.82L597.95 494.32L609.33 492.93L620.31 491.71L630.48 490.71L639.44 489.99L647.92 489.8L656.79 489.92L665.87 490.29L674.92 490.84L683.74 491.5L692.15 492.2L699.97 492.86L707.01 493.4L713.14 493.77L718.03 493.86L724.24 493.34L729.61 490.18L733.08 485L733.95 478.83L732.06 472.9L727.79 468.36L721.97 466.14L717.52 464.9L711.87 463.4L705.05 461.67L697.29 459.8L688.76 457.87L679.64 455.96L670.11 454.14L660.33 452.48L650.42 451.08L640.56 450.01L630.24 449.12L619.05 448.53L607.31 448.18L595.33 448L583.45 447.93L572.03 447.9L561.43 447.86L552.03 447.75L544.25 447.49L538.31 447.05L526.35 450.55L517.1 458.89L512.38 470.43L513.13 482.87L519.2 493.75L529.4 500.91Z" fill="#E4CFA8" stroke="none"/></g><g data-structure-id="vertebral-body" data-anchor="450,247"><path d="M600 280C600 291.33 597.43 303.22 592.66 313.99C587.88 324.77 580.43 335.49 571.35 344.66C562.27 353.82 550.67 362.33 538.17 368.99C525.67 375.65 511.05 381.11 496.35 384.62C481.66 388.12 465.45 390 450 390C434.55 390 418.34 388.12 403.65 384.62C388.95 381.11 374.33 375.65 361.83 368.99C349.33 362.33 337.73 353.82 328.65 344.66C319.57 335.49 312.12 324.77 307.34 313.99C302.57 303.22 300 291.33 300 280C300 268.67 302.57 256.78 307.34 246.01C312.12 235.23 319.57 224.51 328.65 215.34C337.73 206.18 349.33 197.67 361.83 191.01C374.33 184.35 388.95 178.89 403.65 175.38C418.34 171.88 434.55 170 450 170C465.45 170 481.66 171.88 496.35 175.38C511.05 178.89 525.67 184.35 538.17 191.01C550.67 197.67 562.27 206.18 571.35 215.34C580.43 224.51 587.88 235.23 592.66 246.01C597.43 256.78 600 268.67 600 280Z" fill="#586F73" stroke="#586F73" stroke-width="3" stroke-linejoin="round" stroke-linecap="round"/><path d="M600 280C600 291.33 597.43 303.22 592.66 313.99C587.88 324.77 580.43 335.49 571.35 344.66C562.27 353.82 550.67 362.33 538.17 368.99C525.67 375.65 511.05 381.11 496.35 384.62C481.66 388.12 465.45 390 450 390C434.55 390 418.34 388.12 403.65 384.62C388.95 381.11 374.33 375.65 361.83 368.99C349.33 362.33 337.73 353.82 328.65 344.66C319.57 335.49 312.12 324.77 307.34 313.99C302.57 303.22 300 291.33 300 280C300 268.67 302.57 256.78 307.34 246.01C312.12 235.23 319.57 224.51 328.65 215.34C337.73 206.18 349.33 197.67 361.83 191.01C374.33 184.35 388.95 178.89 403.65 175.38C418.34 171.88 434.55 170 450 170C465.45 170 481.66 171.88 496.35 175.38C511.05 178.89 525.67 184.35 538.17 191.01C550.67 197.67 562.27 206.18 571.35 215.34C580.43 224.51 587.88 235.23 592.66 246.01C597.43 256.78 600 268.67 600 280Z" fill="#B8C8CA" stroke="none"/></g><g data-structure-id="vertebral-foramen" data-anchor="450,461"><path d="M388 400C399.67 384.17 429.33 385 450 385C470.67 385 500.33 384.17 512 400C523.67 415.83 525.33 456.67 520 480C514.67 503.33 496.67 530 480 540C463.33 550 436.67 550 420 540C403.33 530 385.33 503.33 380 480C374.67 456.67 376.33 415.83 388 400Z" fill="#38434A" stroke="#38434A" stroke-width="3" stroke-linejoin="round" stroke-linecap="round"/><path d="M388 400C399.67 384.17 429.33 385 450 385C470.67 385 500.33 384.17 512 400C523.67 415.83 525.33 456.67 520 480C514.67 503.33 496.67 530 480 540C463.33 550 436.67 550 420 540C403.33 530 385.33 503.33 380 480C374.67 456.67 376.33 415.83 388 400Z" fill="#56636A" stroke="none"/></g><g data-structure-id="superior-articular-facet" data-anchor="355,560"><path d="M376.52 555.43C377.25 558.85 377.64 562.52 377.65 565.93C377.66 569.33 377.28 572.8 376.56 575.85C375.85 578.9 374.73 581.82 373.37 584.22C372 586.61 370.26 588.71 368.37 590.22C366.49 591.72 364.29 592.79 362.07 593.26C359.85 593.73 357.41 593.65 355.07 593.04C352.74 592.43 350.29 591.23 348.07 589.59C345.85 587.96 343.64 585.74 341.75 583.25C339.85 580.75 338.1 577.74 336.72 574.63C335.34 571.51 334.21 568 333.48 564.57C332.75 561.15 332.36 557.48 332.35 554.07C332.34 550.67 332.72 547.2 333.44 544.15C334.15 541.1 335.27 538.18 336.63 535.78C338 533.39 339.74 531.29 341.63 529.78C343.51 528.28 345.71 527.21 347.93 526.74C350.15 526.27 352.59 526.35 354.93 526.96C357.26 527.57 359.71 528.77 361.93 530.41C364.15 532.04 366.36 534.26 368.25 536.75C370.15 539.25 371.9 542.26 373.28 545.37C374.66 548.49 375.79 552 376.52 555.43Z" fill="#586F73" stroke="#586F73" stroke-width="3" stroke-linejoin="round" stroke-linecap="round"/><path d="M376.52 555.43C377.25 558.85 377.64 562.52 377.65 565.93C377.66 569.33 377.28 572.8 376.56 575.85C375.85 578.9 374.73 581.82 373.37 584.22C372 586.61 370.26 588.71 368.37 590.22C366.49 591.72 364.29 592.79 362.07 593.26C359.85 593.73 357.41 593.65 355.07 593.04C352.74 592.43 350.29 591.23 348.07 589.59C345.85 587.96 343.64 585.74 341.75 583.25C339.85 580.75 338.1 577.74 336.72 574.63C335.34 571.51 334.21 568 333.48 564.57C332.75 561.15 332.36 557.48 332.35 554.07C332.34 550.67 332.72 547.2 333.44 544.15C334.15 541.1 335.27 538.18 336.63 535.78C338 533.39 339.74 531.29 341.63 529.78C343.51 528.28 345.71 527.21 347.93 526.74C350.15 526.27 352.59 526.35 354.93 526.96C357.26 527.57 359.71 528.77 361.93 530.41C364.15 532.04 366.36 534.26 368.25 536.75C370.15 539.25 371.9 542.26 373.28 545.37C374.66 548.49 375.79 552 376.52 555.43Z" fill="#C7D0CB" stroke="none"/></g><g data-structure-id="superior-articular-facet" data-pin="false"><path d="M566.52 564.57C565.79 568 564.66 571.51 563.28 574.63C561.9 577.74 560.15 580.75 558.25 583.25C556.36 585.74 554.15 587.96 551.93 589.59C549.71 591.23 547.26 592.43 544.93 593.04C542.59 593.65 540.15 593.73 537.93 593.26C535.71 592.79 533.51 591.72 531.63 590.22C529.74 588.71 528 586.61 526.63 584.22C525.27 581.82 524.15 578.9 523.44 575.85C522.72 572.8 522.34 569.33 522.35 565.93C522.36 562.52 522.75 558.85 523.48 555.43C524.21 552 525.34 548.49 526.72 545.37C528.1 542.26 529.85 539.25 531.75 536.75C533.64 534.26 535.85 532.04 538.07 530.41C540.29 528.77 542.74 527.57 545.07 526.96C547.41 526.35 549.85 526.27 552.07 526.74C554.29 527.21 556.49 528.28 558.37 529.78C560.26 531.29 562 533.39 563.37 535.78C564.73 538.18 565.85 541.1 566.56 544.15C567.28 547.2 567.66 550.67 567.65 554.07C567.64 557.48 567.25 561.15 566.52 564.57Z" fill="#586F73" stroke="#586F73" stroke-width="3" stroke-linejoin="round" stroke-linecap="round"/><path d="M566.52 564.57C565.79 568 564.66 571.51 563.28 574.63C561.9 577.74 560.15 580.75 558.25 583.25C556.36 585.74 554.15 587.96 551.93 589.59C549.71 591.23 547.26 592.43 544.93 593.04C542.59 593.65 540.15 593.73 537.93 593.26C535.71 592.79 533.51 591.72 531.63 590.22C529.74 588.71 528 586.61 526.63 584.22C525.27 581.82 524.15 578.9 523.44 575.85C522.72 572.8 522.34 569.33 522.35 565.93C522.36 562.52 522.75 558.85 523.48 555.43C524.21 552 525.34 548.49 526.72 545.37C528.1 542.26 529.85 539.25 531.75 536.75C533.64 534.26 535.85 532.04 538.07 530.41C540.29 528.77 542.74 527.57 545.07 526.96C547.41 526.35 549.85 526.27 552.07 526.74C554.29 527.21 556.49 528.28 558.37 529.78C560.26 531.29 562 533.39 563.37 535.78C564.73 538.18 565.85 541.1 566.56 544.15C567.28 547.2 567.66 550.67 567.65 554.07C567.64 557.48 567.25 561.15 566.52 564.57Z" fill="#C7D0CB" stroke="none"/></g><path d="M350 345C348.67 354.17 342.67 382.5 342 400C341.33 417.5 345.33 441.67 346 450" fill="none" stroke="#586F73" stroke-width="1.2" stroke-linecap="round" stroke-linejoin="round"/><path d="M550 345C551.33 354.17 557.33 382.5 558 400C558.67 417.5 554.67 441.67 554 450" fill="none" stroke="#586F73" stroke-width="1.2" stroke-linecap="round" stroke-linejoin="round"/><g><path d="M920 440L1090 440L1090 620L920 620Z" fill="#586F73" stroke="#586F73" stroke-width="3" stroke-linejoin="round" stroke-linecap="round"/><path d="M920 440L1090 440L1090 620L920 620Z" fill="#B8C8CA" stroke="none"/></g><g><path d="M1090 460C1101.67 449.17 1140 463.33 1160 470C1180 476.67 1191.67 483.33 1210 500C1228.33 516.67 1255 551.67 1270 570C1285 588.33 1301.67 606.67 1300 610C1298.33 613.33 1276.67 600 1260 590C1243.33 580 1213.33 556.67 1200 550C1186.67 543.33 1188.33 541.67 1180 550C1171.67 558.33 1156.67 579.17 1150 600C1143.33 620.83 1146.67 664.17 1140 675C1133.33 685.83 1113.33 675.83 1110 665C1106.67 654.17 1116.67 628.33 1120 610C1123.33 591.67 1131.67 566.67 1130 555C1128.33 543.33 1116.67 543.33 1110 540C1103.33 536.67 1093.33 548.33 1090 535C1086.67 521.67 1078.33 470.83 1090 460Z" fill="#8A7146" stroke="#8A7146" stroke-width="3" stroke-linejoin="round" stroke-linecap="round"/><path d="M1090 460C1101.67 449.17 1140 463.33 1160 470C1180 476.67 1191.67 483.33 1210 500C1228.33 516.67 1255 551.67 1270 570C1285 588.33 1301.67 606.67 1300 610C1298.33 613.33 1276.67 600 1260 590C1243.33 580 1213.33 556.67 1200 550C1186.67 543.33 1188.33 541.67 1180 550C1171.67 558.33 1156.67 579.17 1150 600C1143.33 620.83 1146.67 664.17 1140 675C1133.33 685.83 1113.33 675.83 1110 665C1106.67 654.17 1116.67 628.33 1120 610C1123.33 591.67 1131.67 566.67 1130 555C1128.33 543.33 1116.67 543.33 1110 540C1103.33 536.67 1093.33 548.33 1090 535C1086.67 521.67 1078.33 470.83 1090 460Z" fill="#E4CFA8" stroke="none"/></g><g><path d="M1167.95 501.3L1168.19 495.23L1168.76 486.96L1169.55 476.83L1170.45 465.42L1171.32 453.25L1172.05 440.84L1172.5 428.65L1172.56 417.1L1172.06 406.52L1170.71 396.98L1168.39 388.18L1164.7 380.4L1160.04 373.89L1154.9 368.67L1149.74 364.61L1144.94 361.48L1140.82 359.1L1137.81 357.37L1136.52 356.46L1135.86 355.65L1128.56 352.36L1120.55 352.56L1113.42 356.22L1108.59 362.6L1107.01 370.46L1108.99 378.22L1114.14 384.35L1117.37 386.48L1121.47 388.55L1124.97 390.08L1128.1 391.48L1130.88 392.89L1133.26 394.37L1135.22 395.93L1136.82 397.68L1138.17 399.88L1139.29 403.02L1139.73 408.71L1139.76 417.14L1139.33 427.36L1138.51 438.68L1137.43 450.5L1136.19 462.26L1134.92 473.46L1133.72 483.6L1132.72 492.24L1132.05 498.7L1133.26 506.61L1137.79 513.22L1144.73 517.21L1152.72 517.79L1160.17 514.85L1165.61 508.96Z" fill="#8A7146" stroke="#8A7146" stroke-width="3" stroke-linejoin="round" stroke-linecap="round"/><path d="M1167.95 501.3L1168.19 495.23L1168.76 486.96L1169.55 476.83L1170.45 465.42L1171.32 453.25L1172.05 440.84L1172.5 428.65L1172.56 417.1L1172.06 406.52L1170.71 396.98L1168.39 388.18L1164.7 380.4L1160.04 373.89L1154.9 368.67L1149.74 364.61L1144.94 361.48L1140.82 359.1L1137.81 357.37L1136.52 356.46L1135.86 355.65L1128.56 352.36L1120.55 352.56L1113.42 356.22L1108.59 362.6L1107.01 370.46L1108.99 378.22L1114.14 384.35L1117.37 386.48L1121.47 388.55L1124.97 390.08L1128.1 391.48L1130.88 392.89L1133.26 394.37L1135.22 395.93L1136.82 397.68L1138.17 399.88L1139.29 403.02L1139.73 408.71L1139.76 417.14L1139.33 427.36L1138.51 438.68L1137.43 450.5L1136.19 462.26L1134.92 473.46L1133.72 483.6L1132.72 492.24L1132.05 498.7L1133.26 506.61L1137.79 513.22L1144.73 517.21L1152.72 517.79L1160.17 514.85L1165.61 508.96Z" fill="#E4CFA8" stroke="none"/></g><g data-structure-id="inferior-articular-facet" data-anchor="1126,648"><path d="M1139.52 644.38C1140.08 646.47 1140.44 648.72 1140.54 650.82C1140.64 652.92 1140.5 655.08 1140.14 656.99C1139.77 658.9 1139.14 660.75 1138.35 662.28C1137.55 663.81 1136.5 665.17 1135.35 666.17C1134.2 667.17 1132.83 667.91 1131.44 668.28C1130.04 668.66 1128.49 668.7 1126.99 668.41C1125.49 668.12 1123.9 667.47 1122.45 666.54C1120.99 665.61 1119.53 664.33 1118.25 662.85C1116.98 661.38 1115.78 659.59 1114.82 657.71C1113.86 655.84 1113.04 653.71 1112.48 651.62C1111.92 649.53 1111.56 647.28 1111.46 645.18C1111.36 643.08 1111.5 640.92 1111.86 639.01C1112.23 637.1 1112.86 635.25 1113.65 633.72C1114.45 632.19 1115.5 630.83 1116.65 629.83C1117.8 628.83 1119.17 628.09 1120.56 627.72C1121.96 627.34 1123.51 627.3 1125.01 627.59C1126.51 627.88 1128.1 628.53 1129.55 629.46C1131.01 630.39 1132.47 631.67 1133.75 633.15C1135.02 634.62 1136.22 636.41 1137.18 638.29C1138.14 640.16 1138.96 642.29 1139.52 644.38Z" fill="#586F73" stroke="#586F73" stroke-width="3" stroke-linejoin="round" stroke-linecap="round"/><path d="M1139.52 644.38C1140.08 646.47 1140.44 648.72 1140.54 650.82C1140.64 652.92 1140.5 655.08 1140.14 656.99C1139.77 658.9 1139.14 660.75 1138.35 662.28C1137.55 663.81 1136.5 665.17 1135.35 666.17C1134.2 667.17 1132.83 667.91 1131.44 668.28C1130.04 668.66 1128.49 668.7 1126.99 668.41C1125.49 668.12 1123.9 667.47 1122.45 666.54C1120.99 665.61 1119.53 664.33 1118.25 662.85C1116.98 661.38 1115.78 659.59 1114.82 657.71C1113.86 655.84 1113.04 653.71 1112.48 651.62C1111.92 649.53 1111.56 647.28 1111.46 645.18C1111.36 643.08 1111.5 640.92 1111.86 639.01C1112.23 637.1 1112.86 635.25 1113.65 633.72C1114.45 632.19 1115.5 630.83 1116.65 629.83C1117.8 628.83 1119.17 628.09 1120.56 627.72C1121.96 627.34 1123.51 627.3 1125.01 627.59C1126.51 627.88 1128.1 628.53 1129.55 629.46C1131.01 630.39 1132.47 631.67 1133.75 633.15C1135.02 634.62 1136.22 636.41 1137.18 638.29C1138.14 640.16 1138.96 642.29 1139.52 644.38Z" fill="#C7D0CB" stroke="none"/></g><g data-structure-id="superior-costal-facet" data-anchor="1084,452"><path d="M1096 452C1096 453.44 1095.79 454.95 1095.41 456.33C1095.03 457.7 1094.43 459.06 1093.71 460.23C1092.98 461.4 1092.05 462.48 1091.05 463.33C1090.05 464.17 1088.88 464.87 1087.71 465.31C1086.53 465.76 1085.24 466 1084 466C1082.76 466 1081.47 465.76 1080.29 465.31C1079.12 464.87 1077.95 464.17 1076.95 463.33C1075.95 462.48 1075.02 461.4 1074.29 460.23C1073.57 459.06 1072.97 457.7 1072.59 456.33C1072.21 454.95 1072 453.44 1072 452C1072 450.56 1072.21 449.05 1072.59 447.67C1072.97 446.3 1073.57 444.94 1074.29 443.77C1075.02 442.6 1075.95 441.52 1076.95 440.67C1077.95 439.83 1079.12 439.13 1080.29 438.69C1081.47 438.24 1082.76 438 1084 438C1085.24 438 1086.53 438.24 1087.71 438.69C1088.88 439.13 1090.05 439.83 1091.05 440.67C1092.05 441.52 1092.98 442.6 1093.71 443.77C1094.43 444.94 1095.03 446.3 1095.41 447.67C1095.79 449.05 1096 450.56 1096 452Z" fill="#586F73" stroke="#586F73" stroke-width="3" stroke-linejoin="round" stroke-linecap="round"/><path d="M1096 452C1096 453.44 1095.79 454.95 1095.41 456.33C1095.03 457.7 1094.43 459.06 1093.71 460.23C1092.98 461.4 1092.05 462.48 1091.05 463.33C1090.05 464.17 1088.88 464.87 1087.71 465.31C1086.53 465.76 1085.24 466 1084 466C1082.76 466 1081.47 465.76 1080.29 465.31C1079.12 464.87 1077.95 464.17 1076.95 463.33C1075.95 462.48 1075.02 461.4 1074.29 460.23C1073.57 459.06 1072.97 457.7 1072.59 456.33C1072.21 454.95 1072 453.44 1072 452C1072 450.56 1072.21 449.05 1072.59 447.67C1072.97 446.3 1073.57 444.94 1074.29 443.77C1075.02 442.6 1075.95 441.52 1076.95 440.67C1077.95 439.83 1079.12 439.13 1080.29 438.69C1081.47 438.24 1082.76 438 1084 438C1085.24 438 1086.53 438.24 1087.71 438.69C1088.88 439.13 1090.05 439.83 1091.05 440.67C1092.05 441.52 1092.98 442.6 1093.71 443.77C1094.43 444.94 1095.03 446.3 1095.41 447.67C1095.79 449.05 1096 450.56 1096 452Z" fill="#C7D0CB" stroke="none"/></g><g data-structure-id="inferior-costal-facet" data-anchor="1084,605"><path d="M1096 605C1096 606.44 1095.79 607.95 1095.41 609.33C1095.03 610.7 1094.43 612.06 1093.71 613.23C1092.98 614.4 1092.05 615.48 1091.05 616.33C1090.05 617.17 1088.88 617.87 1087.71 618.31C1086.53 618.76 1085.24 619 1084 619C1082.76 619 1081.47 618.76 1080.29 618.31C1079.12 617.87 1077.95 617.17 1076.95 616.33C1075.95 615.48 1075.02 614.4 1074.29 613.23C1073.57 612.06 1072.97 610.7 1072.59 609.33C1072.21 607.95 1072 606.44 1072 605C1072 603.56 1072.21 602.05 1072.59 600.67C1072.97 599.3 1073.57 597.94 1074.29 596.77C1075.02 595.6 1075.95 594.52 1076.95 593.67C1077.95 592.83 1079.12 592.13 1080.29 591.69C1081.47 591.24 1082.76 591 1084 591C1085.24 591 1086.53 591.24 1087.71 591.69C1088.88 592.13 1090.05 592.83 1091.05 593.67C1092.05 594.52 1092.98 595.6 1093.71 596.77C1094.43 597.94 1095.03 599.3 1095.41 600.67C1095.79 602.05 1096 603.56 1096 605Z" fill="#586F73" stroke="#586F73" stroke-width="3" stroke-linejoin="round" stroke-linecap="round"/><path d="M1096 605C1096 606.44 1095.79 607.95 1095.41 609.33C1095.03 610.7 1094.43 612.06 1093.71 613.23C1092.98 614.4 1092.05 615.48 1091.05 616.33C1090.05 617.17 1088.88 617.87 1087.71 618.31C1086.53 618.76 1085.24 619 1084 619C1082.76 619 1081.47 618.76 1080.29 618.31C1079.12 617.87 1077.95 617.17 1076.95 616.33C1075.95 615.48 1075.02 614.4 1074.29 613.23C1073.57 612.06 1072.97 610.7 1072.59 609.33C1072.21 607.95 1072 606.44 1072 605C1072 603.56 1072.21 602.05 1072.59 600.67C1072.97 599.3 1073.57 597.94 1074.29 596.77C1075.02 595.6 1075.95 594.52 1076.95 593.67C1077.95 592.83 1079.12 592.13 1080.29 591.69C1081.47 591.24 1082.76 591 1084 591C1085.24 591 1086.53 591.24 1087.71 591.69C1088.88 592.13 1090.05 592.83 1091.05 593.67C1092.05 594.52 1092.98 595.6 1093.71 596.77C1094.43 597.94 1095.03 599.3 1095.41 600.67C1095.79 602.05 1096 603.56 1096 605Z" fill="#C7D0CB" stroke="none"/></g><g data-structure-id="intervertebral-disc" data-anchor="1005,639"><path d="M920 624L1090 624L1090 654L920 654Z" fill="#8A7146" stroke="#8A7146" stroke-width="3" stroke-linejoin="round" stroke-linecap="round"/><path d="M920 624L1090 624L1090 654L920 654Z" fill="#E4D7B0" stroke="none"/></g><g><path d="M920 660L1090 660L1090 800L920 800Z" fill="#586F73" stroke="#586F73" stroke-width="3" stroke-linejoin="round" stroke-linecap="round"/><path d="M920 660L1090 660L1090 800L920 800Z" fill="#B8C8CA" stroke="none"/></g>
</svg>
