<svg xmlns="http://www.w3.org/2000/svg" viewBox="0 0 1450 1000" width="1450" height="1000"><rect width="1450" height="1000" fill="#ECEAE2"/>
<path d="M44 30H706Q720 30 720 44V956Q720 970 706 970H44Q30 970 30 956V44Q30 30 44 30Z" fill="#F2EFE8" stroke="#CFCABD" stroke-width="1.4"/>
<path d="M754 30H1406Q1420 30 1420 44V956Q1420 970 1406 970H754Q740 970 740 956V44Q740 30 754 30Z" fill="#F2EFE8" stroke="#CFCABD" stroke-width="1.4"/>
<path d="M66 110H684Q690 110 690 116V174Q690 180 684 180H66Q60 180 60 174V116Q60 110 66 110Z" fill="#E9C6B4" stroke="#A07A68" stroke-width="1.4" stroke-linejoin="round"/>
<path d="M66 180H684Q690 180 690 186V774Q690 780 684 780H66Q60 780 60 774V186Q60 180 66 180Z" fill="#F1DFD2" stroke="#C3A593" stroke-width="1.4" stroke-linejoin="round"/>
<path d="M66 780H684Q690 780 690 786V934Q690 940 684 940H66Q60 940 60 934V786Q60 780 66 780Z" fill="#F2E6B4" stroke="#B8A560" stroke-width="1.4" stroke-linejoin="round"/>
<path d="M367.33 127.73L365.28 134.64L362.25 143.52L358.45 154.21L354.23 166.31L349.87 179.47L345.69 193.37L342 207.7L339.1 222.15L337.32 236.45L337.01 250.38L338.64 264.02L342.07 277.53L346.75 290.82L352.21 303.96L357.99 316.98L363.66 329.9L368.79 342.69L372.97 355.35L375.82 367.82L377 380.17L376.34 392.8L374.1 406.01L370.59 419.7L366.17 433.72L361.2 447.97L356.08 462.33L351.2 476.73L346.94 491.1L343.73 505.39L342.02 519.48L341.87 533.59L342.84 547.98L344.68 562.44L347.14 576.69L350 590.47L353.02 603.47L355.98 615.39L358.63 625.92L360.76 634.71L362.16 641.6L377.84 638.4L376.37 631.19L374.17 622.08L371.5 611.51L368.58 599.73L365.63 587.03L362.86 573.71L360.5 560.06L358.76 546.42L357.86 533.11L357.98 520.52L359.49 508.14L362.42 495.14L366.44 481.58L371.2 467.59L376.3 453.28L381.35 438.76L385.97 424.09L389.74 409.35L392.24 394.57L393 379.83L391.62 365.28L388.39 351.05L383.82 337.21L378.42 323.7L372.63 310.52L366.91 297.64L361.68 285.08L357.37 272.87L354.37 261.08L352.99 249.62L353.28 237.66L354.9 224.73L357.6 211.27L361.11 197.67L365.13 184.28L369.37 171.45L373.55 159.52L377.35 148.8L380.52 139.55L382.67 132.27Z" fill="#C9A8B8" stroke="#7E5A6E" stroke-width="1.6" stroke-linejoin="round"/>
<path d="M363 114A12 8 0 1 0 387 114A12 8 0 1 0 363 114Z" fill="#7E5A6E" stroke="#4A3228" stroke-width="1.4" stroke-linejoin="round"/>
<path d="M460.4 719.39L460.34 721.22L460.31 723.55L460.29 726.07L460.26 728.77L460.21 731.56L460.12 734.35L459.97 737.03L459.77 739.45L459.51 741.43L459.21 742.99L458.79 744.6L458.27 746.39L457.69 748.13L457.06 749.8L456.38 751.39L455.68 752.88L454.95 754.25L454.22 755.48L453.5 756.56L452.77 757.51L451.98 758.43L451.12 759.33L450.23 760.18L449.31 760.95L448.37 761.65L447.43 762.27L446.48 762.82L445.52 763.29L444.58 763.69L443.61 764.02L442.52 764.3L441.3 764.55L439.97 764.75L438.53 764.88L437 764.94L435.37 764.93L433.67 764.83L431.88 764.65L430.03 764.38L428.13 764.02L426.17 763.56L424.08 762.97L421.88 762.27L419.56 761.45L417.15 760.5L414.66 759.45L412.1 758.3L409.49 757.04L406.84 755.69L404.18 754.28L401.54 752.79L398.83 751.18L396.05 749.43L393.2 747.57L390.29 745.6L387.34 743.54L384.36 741.41L381.37 739.21L378.36 736.95L375.38 734.69L372.45 732.4L369.51 730.03L366.53 727.56L363.52 725.02L360.49 722.41L357.45 719.75L354.41 717.06L351.38 714.36L348.36 711.65L345.4 709L342.51 706.38L339.65 703.74L336.78 701.06L333.91 698.34L331.05 695.62L328.2 692.9L325.38 690.19L322.58 687.52L319.81 684.9L317.12 682.38L314.53 679.95L311.98 677.56L309.46 675.18L306.96 672.83L304.49 670.51L302.05 668.24L299.64 666.03L297.27 663.89L294.93 661.83L292.66 659.88L290.49 658.07L288.4 656.35L286.33 654.68L284.29 653.08L282.27 651.55L280.27 650.09L278.27 648.7L276.26 647.38L274.2 646.14L272.1 644.99L269.99 643.98L267.83 643.08L265.56 642.3L263.1 641.66L260.4 641.21L257.41 641.05L254.09 641.32L250.5 642.2L246.85 643.83L243.43 646.26L240.62 649.28L238.62 652.43L237.32 655.44L236.51 658.24L236.04 660.85L235.81 663.32L235.76 665.69L235.85 667.99L236.06 670.26L236.37 672.52L236.78 674.78L237.27 677.08L237.85 679.41L238.5 681.8L239.24 684.24L240.05 686.73L240.93 689.27L241.89 691.85L242.92 694.47L244.01 697.09L245.16 699.72L246.39 702.42L247.69 705.2L249.06 708.03L250.51 710.92L252.03 713.85L253.62 716.8L255.28 719.76L257 722.73L258.76 725.65L260.56 728.53L262.41 731.43L264.34 734.37L266.34 737.33L268.41 740.3L270.53 743.26L272.72 746.21L274.96 749.12L277.27 751.99L279.6 754.77L281.94 757.46L284.32 760.1L286.76 762.73L289.26 765.33L291.82 767.89L294.44 770.4L297.11 772.85L299.83 775.23L302.62 777.52L305.42 779.68L308.22 781.71L311.04 783.65L313.91 785.51L316.84 787.29L319.81 788.97L322.84 790.56L325.92 792.03L329.05 793.39L332.23 794.62L335.45 795.69L338.66 796.6L341.88 797.36L345.12 797.98L348.37 798.45L351.64 798.76L354.91 798.93L358.19 798.94L361.46 798.78L364.73 798.46L368 797.97L371.26 797.29L374.47 796.44L377.6 795.43L380.67 794.27L383.65 792.97L386.56 791.55L389.4 790.01L392.15 788.36L394.83 786.61L397.47 784.73L400.09 782.69L402.65 780.51L405.1 778.24L407.45 775.89L409.72 773.48L411.9 771L413.99 768.48L416.01 765.92L417.95 763.33L419.84 760.68L421.71 757.9L423.53 755.01L425.25 752.08L426.9 749.12L428.47 746.14L429.97 743.15L431.4 740.16L432.76 737.19L434.05 734.25L435.29 731.3L436.49 728.27L437.63 725.18L438.71 722.1L439.71 719.02L440.65 715.96L441.52 712.94L442.33 709.96L443.08 707.05L443.76 704.2L444.4 701.41L444.99 698.59L445.52 695.76L445.98 692.97L446.38 690.23L446.72 687.55L446.99 684.93L447.22 682.38L447.38 679.92L447.49 677.54L447.55 675.21L447.54 672.9L447.46 670.6L447.3 668.34L447.07 666.13L446.75 663.96L446.34 661.82L445.83 659.69L445.18 657.53L444.35 655.33L443.25 653.01L441.79 650.62L439.92 648.25L437.6 646.01L434.79 644.02L431.56 642.45L428.06 641.44L424.49 641.05L421.04 641.23L417.86 641.9L415 642.92L412.51 644.16L410.38 645.5L408.52 646.88L406.83 648.31L405.27 649.79L403.79 651.31L402.37 652.88L401 654.51L399.66 656.2L398.32 657.98L396.98 659.87L395.65 661.85L394.34 663.9L393.04 666L391.75 668.17L390.46 670.4L389.18 672.66L387.91 674.97L386.65 677.31L385.38 679.7L384.08 682.19L382.78 684.78L381.47 687.43L380.18 690.12L378.89 692.83L377.6 695.57L376.33 698.31L375.07 701.03L373.83 703.74L372.58 706.43L371.33 709.19L370.06 712L368.8 714.83L367.56 717.65L366.33 720.45L365.12 723.22L363.92 725.94L362.75 728.59L361.6 731.16L360.47 733.65L359.33 736.16L358.18 738.67L357.06 741.14L355.96 743.55L354.88 745.89L353.83 748.13L352.81 750.26L351.83 752.27L350.89 754.14L349.98 755.88L349.07 757.57L348.16 759.22L347.29 760.76L346.47 762.17L345.7 763.44L345 764.56L344.37 765.49L343.85 766.22L343.47 766.71L343.23 766.99L343.08 767.14L343.09 767.14L343.33 766.95L343.89 766.57L344.85 766.07L346.3 765.52L348.28 765.09L350.68 764.99L353.28 765.36L355.77 766.23L357.82 767.41L359.24 768.57L360.09 769.49L360.54 770.1L360.72 770.39L360.72 770.4L360.62 770.15L360.43 769.67L360.21 769.01L359.97 768.21L359.72 767.31L359.47 766.21L359.21 764.91L358.94 763.44L358.68 761.82L358.43 760.07L358.19 758.22L357.96 756.28L357.75 754.26L357.55 752.21L357.37 750.11L357.2 747.9L357.05 745.58L356.92 743.17L356.8 740.69L356.7 738.16L356.61 735.59L356.54 733L356.48 730.4L356.43 727.83L356.4 725.26L356.39 722.64L356.39 719.97L356.4 717.27L356.43 714.57L356.48 711.87L356.53 709.2L356.6 706.57L356.68 704L356.77 701.51L356.88 699.07L356.99 696.63L357.12 694.21L357.27 691.83L357.42 689.51L357.59 687.25L357.76 685.07L357.94 683L358.13 681.05L358.33 679.23L358.53 677.5L358.75 675.84L358.97 674.27L359.19 672.81L359.42 671.48L359.64 670.29L359.86 669.27L360.05 668.45L360.2 667.88L360.3 667.56L360.33 667.47L360.27 667.62L360.01 668.1L359.45 668.99L358.36 670.32L356.4 672.05L353.23 673.83L348.87 674.94L344.21 674.72L340.38 673.41L337.86 671.82L336.45 670.53L335.75 669.71L335.46 669.31L335.43 669.25L335.55 669.49L335.78 669.96L336.09 670.64L336.45 671.49L336.83 672.44L337.22 673.49L337.65 674.7L338.11 676.11L338.61 677.68L339.12 679.39L339.67 681.22L340.23 683.16L340.8 685.19L341.4 687.3L341.99 689.43L342.59 691.59L343.19 693.85L343.81 696.22L344.45 698.69L345.1 701.25L345.77 703.87L346.45 706.54L347.15 709.24L347.86 711.97L348.57 714.66L349.28 717.32L349.99 720.03L350.72 722.8L351.46 725.61L352.22 728.45L352.99 731.3L353.77 734.15L354.57 736.99L355.38 739.79L356.19 742.52L356.99 745.16L357.8 747.78L358.63 750.41L359.46 753.03L360.32 755.63L361.18 758.19L362.06 760.72L362.96 763.19L363.88 765.61L364.81 767.93L365.73 770.13L366.66 772.26L367.6 774.34L368.58 776.39L369.59 778.39L370.63 780.35L371.72 782.27L372.88 784.15L374.13 786.01L375.48 787.82L376.91 789.53L378.45 791.16L380.15 792.74L382.06 794.25L384.22 795.68L386.7 796.97L389.55 798.04L392.76 798.76L396.27 798.99L399.92 798.62L403.39 797.65L406.41 796.27L408.96 794.65L411.1 792.9L412.91 791.09L414.46 789.26L415.81 787.39L417 785.51L418.07 783.59L419.04 781.63L419.92 779.61L420.72 777.55L421.46 775.44L422.14 773.28L422.78 771.07L423.37 768.81L423.92 766.49L424.44 764.12L424.91 761.7L425.35 759.25L425.74 756.74L426.11 754.16L426.45 751.5L426.75 748.77L427.02 745.99L427.26 743.17L427.46 740.31L427.63 737.43L427.75 734.54L427.83 731.66L427.88 728.79L427.88 725.87L427.86 722.91L427.8 719.91L427.69 716.89L427.55 713.86L427.37 710.83L427.14 707.82L426.86 704.83L426.53 701.91L426.16 699.06L425.75 696.22L425.29 693.38L424.79 690.54L424.23 687.71L423.62 684.91L422.95 682.13L422.21 679.39L421.4 676.68L420.52 674.06L419.59 671.57L418.61 669.15L417.56 666.76L416.41 664.4L415.18 662.07L413.83 659.78L412.35 657.53L410.73 655.32L408.92 653.16L406.94 651.12L404.88 649.26L402.71 647.58L400.39 646.05L397.93 644.68L395.34 643.5L392.62 642.52L389.8 641.78L386.91 641.28L383.96 641.03L381 641.04L378.07 641.3L375.24 641.78L372.52 642.44L369.89 643.26L367.34 644.22L364.87 645.3L362.45 646.49L360.09 647.79L357.78 649.18L355.46 650.68L353.12 652.34L350.8 654.11L348.52 655.96L346.28 657.9L344.07 659.9L341.89 661.96L339.73 664.08L337.59 666.24L335.47 668.44L333.33 670.71L331.15 673.11L328.96 675.61L326.78 678.17L324.62 680.78L322.48 683.43L320.35 686.11L318.24 688.8L316.16 691.49L314.11 694.16L312.07 696.85L309.99 699.6L307.91 702.44L305.84 705.29L303.79 708.15L301.77 711.01L299.77 713.85L297.81 716.65L295.89 719.4L294.02 722.08L292.17 724.7L290.32 727.34L288.47 729.99L286.65 732.62L284.87 735.21L283.12 737.75L281.42 740.22L279.77 742.6L278.18 744.87L276.66 747.03L275.19 749.07L273.74 751.07L272.31 753.03L270.93 754.91L269.6 756.7L268.34 758.39L267.14 759.96L266.02 761.4L264.99 762.69L264.07 763.81L263.26 764.76L262.53 765.57L261.87 766.27L261.33 766.82L260.94 767.19L260.73 767.37L260.8 767.33L261.26 767.02L262.37 766.41L264.62 765.57L268.79 765L274.77 766.16L280.12 769.68L283.08 773.74L284.25 776.87L284.59 778.91L284.64 780.12L284.6 780.75L284.57 780.96L284.59 780.86L284.7 780.45L284.92 779.71L285.23 778.72L285.62 777.58L286.09 776.3L286.62 774.9L287.23 773.41L287.91 771.83L288.65 770.17L289.46 768.46L290.35 766.65L291.36 764.67L292.46 762.55L293.63 760.35L294.86 758.09L296.15 755.77L297.5 753.42L298.91 751.04L300.36 748.66L301.86 746.29L303.43 743.9L305.12 741.41L306.89 738.83L308.72 736.22L310.6 733.59L312.53 730.96L314.5 728.35L316.5 725.77L318.53 723.25L320.59 720.79L322.68 718.38L324.88 715.95L327.16 713.47L329.49 711.02L331.85 708.6L334.23 706.24L336.63 703.94L339.03 701.73L341.44 699.61L343.83 697.61L346.23 695.7L348.71 693.83L351.25 691.99L353.82 690.21L356.4 688.51L358.97 686.9L361.54 685.39L364.07 683.98L366.58 682.69L369.03 681.53L371.45 680.49L373.91 679.53L376.41 678.65L378.91 677.85L381.4 677.15L383.88 676.54L386.33 676.04L388.75 675.63L391.11 675.32L393.41 675.12L395.65 675.02L397.87 675.01L400.11 675.11L402.36 675.3L404.62 675.58L406.88 675.96L409.13 676.42L411.36 676.98L413.55 677.62L415.71 678.34L417.79 679.13L419.81 679.99L421.83 680.96L423.88 682.06L425.94 683.26L428 684.57L430.05 685.97L432.08 687.46L434.08 689.02L436.03 690.64L437.9 692.29L439.67 693.96L441.42 695.74L443.16 697.64L444.89 699.63L446.58 701.72L448.24 703.87L449.85 706.07L451.41 708.31L452.89 710.57L454.29 712.79L455.58 714.99L456.82 717.24L458.02 719.57L459.17 721.95L460.25 724.36L461.28 726.79L462.23 729.21L463.11 731.6L463.91 733.94L464.58 736.06L465.1 738L465.56 740.12L465.97 742.49L466.33 744.98L466.64 747.52L466.91 750.03L467.14 752.43L467.36 754.7L467.57 756.84L467.78 758.55L501.52 754.33L501.36 753.07L501.2 751.42L500.99 749.2L500.73 746.58L500.42 743.64L500.03 740.46L499.54 737.11L498.93 733.62L498.15 730.03L497.22 726.54L496.21 723.33L495.15 720.24L494 717.11L492.76 713.95L491.42 710.77L489.99 707.6L488.46 704.43L486.84 701.28L485.13 698.16L483.33 695.12L481.49 692.17L479.56 689.26L477.55 686.35L475.43 683.46L473.23 680.6L470.93 677.78L468.54 675.01L466.06 672.31L463.48 669.69L460.83 667.18L458.15 664.82L455.42 662.55L452.59 660.34L449.69 658.21L446.69 656.17L443.61 654.22L440.45 652.37L437.21 650.64L433.88 649.04L430.51 647.59L427.12 646.31L423.7 645.17L420.23 644.16L416.7 643.28L413.14 642.54L409.54 641.94L405.9 641.48L402.23 641.17L398.55 641.02L394.84 641.03L391.13 641.2L387.42 641.52L383.73 642L380.05 642.62L376.4 643.38L372.77 644.27L369.16 645.28L365.6 646.41L362.07 647.66L358.55 649.03L355.02 650.55L351.51 652.21L348.05 653.99L344.65 655.87L341.3 657.85L338.01 659.91L334.78 662.04L331.61 664.24L328.5 666.49L325.42 668.81L322.34 671.26L319.28 673.82L316.28 676.46L313.35 679.15L310.49 681.89L307.7 684.66L304.98 687.45L302.33 690.25L299.76 693.03L297.24 695.83L294.72 698.72L292.24 701.69L289.84 704.67L287.51 707.67L285.25 710.66L283.07 713.63L280.97 716.57L278.95 719.45L277.02 722.27L275.14 725.05L273.29 727.86L271.49 730.71L269.77 733.52L268.13 736.3L266.56 739.02L265.08 741.68L263.68 744.25L262.37 746.73L261.14 749.1L259.97 751.39L258.83 753.68L257.76 755.96L256.76 758.18L255.85 760.32L255.01 762.39L254.25 764.37L253.56 766.26L252.95 768.06L252.4 769.77L251.91 771.47L251.45 773.26L251.07 775.15L250.79 777.16L250.65 779.36L250.73 781.93L251.26 785.09L252.74 789.1L256.16 793.8L262.09 797.71L268.79 799L273.81 798.3L277.06 797.07L279.32 795.82L281.06 794.63L282.54 793.46L283.88 792.29L285.14 791.09L286.37 789.85L287.59 788.55L288.83 787.16L290.11 785.67L291.41 784.09L292.73 782.43L294.08 780.7L295.46 778.9L296.86 777.03L298.29 775.09L299.76 773.1L301.24 771.07L302.77 768.96L304.36 766.74L306.01 764.41L307.68 762.01L309.39 759.55L311.11 757.04L312.86 754.5L314.63 751.94L316.4 749.38L318.19 746.82L319.99 744.25L321.85 741.6L323.75 738.88L325.67 736.13L327.61 733.37L329.55 730.61L331.49 727.87L333.43 725.16L335.36 722.5L337.26 719.91L339.17 717.37L341.12 714.81L343.1 712.23L345.08 709.68L347.05 707.16L349 704.7L350.93 702.31L352.83 700.02L354.7 697.83L356.51 695.76L358.29 693.8L360.1 691.88L361.92 689.99L363.71 688.18L365.46 686.46L367.17 684.85L368.81 683.36L370.38 682L371.87 680.79L373.25 679.74L374.54 678.83L375.8 678.01L377.04 677.27L378.19 676.64L379.24 676.11L380.18 675.7L380.98 675.4L381.64 675.19L382.13 675.07L382.45 675.02L382.58 675L382.6 675L382.58 675L382.55 675L382.52 674.99L382.53 674.99L382.59 675.02L382.7 675.08L382.87 675.2L383.11 675.39L383.36 675.6L383.62 675.87L383.96 676.29L384.41 676.9L384.93 677.7L385.5 678.66L386.09 679.78L386.7 681.03L387.3 682.41L387.9 683.89L388.47 685.41L389 686.97L389.5 688.67L390 690.52L390.48 692.51L390.94 694.6L391.37 696.79L391.77 699.04L392.14 701.35L392.47 703.68L392.78 706L393.04 708.31L393.26 710.7L393.45 713.16L393.6 715.69L393.72 718.25L393.81 720.83L393.86 723.41L393.88 725.97L393.88 728.49L393.84 730.94L393.77 733.33L393.67 735.73L393.53 738.14L393.36 740.54L393.16 742.91L392.94 745.23L392.68 747.48L392.41 749.65L392.12 751.71L391.81 753.63L391.49 755.46L391.14 757.23L390.77 758.94L390.39 760.56L389.99 762.07L389.59 763.47L389.19 764.71L388.82 765.8L388.47 766.68L388.18 767.34L387.94 767.83L387.75 768.18L387.64 768.36L387.65 768.35L387.82 768.14L388.23 767.74L388.94 767.17L390.04 766.47L391.59 765.76L393.58 765.21L395.74 764.99L397.72 765.12L399.38 765.49L400.65 765.96L401.53 766.42L402.09 766.78L402.37 767.01L402.45 767.07L402.35 766.97L402.16 766.74L401.88 766.37L401.49 765.78L400.99 764.97L400.42 763.96L399.79 762.78L399.12 761.45L398.43 760L397.71 758.43L396.99 756.76L396.27 755.04L395.56 753.27L394.84 751.37L394.1 749.33L393.34 747.17L392.58 744.91L391.81 742.56L391.04 740.15L390.27 737.68L389.5 735.19L388.74 732.7L388 730.23L387.27 727.69L386.53 725.06L385.8 722.38L385.06 719.65L384.33 716.89L383.6 714.12L382.87 711.36L382.14 708.62L381.43 705.94L380.74 703.34L380.06 700.73L379.39 698.1L378.72 695.47L378.05 692.84L377.38 690.24L376.72 687.67L376.06 685.15L375.4 682.69L374.75 680.34L374.13 678.11L373.52 675.94L372.91 673.8L372.3 671.69L371.7 669.64L371.09 667.63L370.47 665.68L369.84 663.78L369.2 661.93L368.54 660.17L367.89 658.55L367.24 657.01L366.55 655.49L365.8 653.97L364.97 652.43L364 650.83L362.8 649.12L361.2 647.22L358.91 645.12L355.53 642.97L350.87 641.37L345.39 641.11L340.22 642.42L336.26 644.66L333.55 647.07L331.71 649.33L330.42 651.36L329.47 653.22L328.72 654.96L328.09 656.67L327.55 658.41L327.07 660.16L326.66 661.91L326.29 663.69L325.95 665.51L325.63 667.39L325.33 669.32L325.05 671.3L324.79 673.33L324.54 675.41L324.31 677.59L324.09 679.86L323.88 682.22L323.68 684.66L323.5 687.15L323.33 689.7L323.18 692.29L323.04 694.9L322.91 697.53L322.8 700.17L322.7 702.84L322.62 705.59L322.54 708.39L322.48 711.23L322.44 714.1L322.4 716.98L322.39 719.86L322.39 722.73L322.4 725.57L322.44 728.35L322.49 731.1L322.55 733.87L322.63 736.65L322.72 739.42L322.83 742.19L322.96 744.92L323.11 747.61L323.28 750.26L323.48 752.84L323.69 755.33L323.93 757.72L324.18 760.07L324.45 762.39L324.75 764.68L325.07 766.92L325.42 769.12L325.81 771.28L326.24 773.4L326.72 775.49L327.26 777.51L327.84 779.42L328.47 781.27L329.19 783.13L330.02 785L331.01 786.92L332.21 788.9L333.73 790.96L335.69 793.1L338.25 795.22L341.5 797.09L345.23 798.39L349.11 798.95L352.84 798.78L356.19 798.05L359.05 796.96L361.47 795.68L363.52 794.3L365.3 792.88L366.88 791.42L368.35 789.9L369.77 788.25L371.1 786.56L372.32 784.85L373.49 783.11L374.61 781.33L375.71 779.52L376.79 777.66L377.87 775.76L378.93 773.82L380.02 771.81L381.15 769.65L382.29 767.37L383.43 765.04L384.57 762.65L385.71 760.22L386.85 757.76L387.99 755.27L389.13 752.77L390.26 750.26L391.42 747.74L392.61 745.12L393.82 742.4L395.03 739.66L396.25 736.89L397.47 734.11L398.69 731.33L399.9 728.58L401.1 725.87L402.29 723.22L403.49 720.61L404.71 717.96L405.94 715.28L407.18 712.6L408.41 709.95L409.63 707.35L410.84 704.8L412.04 702.32L413.21 699.94L414.35 697.68L415.48 695.51L416.61 693.38L417.75 691.26L418.88 689.22L419.99 687.25L421.07 685.38L422.12 683.62L423.13 681.98L424.08 680.5L424.97 679.18L425.78 678.03L426.57 676.98L427.33 676.02L428.03 675.2L428.64 674.51L429.15 673.98L429.53 673.63L429.72 673.46L429.67 673.49L429.29 673.73L428.46 674.14L427.2 674.59L425.57 674.93L423.62 675.03L421.48 674.8L419.35 674.18L417.41 673.24L415.82 672.12L414.62 670.96L413.79 669.91L413.27 669.05L413.01 668.53L412.95 668.38L413 668.54L413.1 668.95L413.22 669.57L413.33 670.36L413.43 671.3L413.5 672.37L413.55 673.55L413.55 674.84L413.51 676.32L413.44 677.98L413.32 679.76L413.15 681.65L412.94 683.62L412.69 685.66L412.38 687.75L412.03 689.86L411.64 691.99L411.18 694.15L410.66 696.43L410.09 698.83L409.46 701.27L408.78 703.76L408.06 706.26L407.29 708.77L406.48 711.25L405.64 713.69L404.75 716.08L403.81 718.43L402.8 720.84L401.72 723.31L400.6 725.77L399.43 728.2L398.23 730.6L397 732.93L395.75 735.18L394.48 737.34L393.2 739.37L391.89 741.32L390.51 743.26L389.05 745.21L387.57 747.09L386.06 748.9L384.55 750.62L383.04 752.23L381.53 753.74L380.05 755.11L378.61 756.34L377.17 757.46L375.67 758.52L374.11 759.54L372.55 760.48L370.98 761.33L369.42 762.1L367.87 762.77L366.35 763.34L364.87 763.82L363.42 764.21L362 764.5L360.54 764.72L359.02 764.87L357.44 764.95L355.81 764.94L354.14 764.86L352.45 764.69L350.72 764.44L348.98 764.11L347.22 763.7L345.48 763.2L343.74 762.62L341.93 761.92L340.04 761.11L338.09 760.17L336.09 759.12L334.05 757.97L331.99 756.71L329.91 755.37L327.83 753.94L325.8 752.47L323.81 750.93L321.81 749.28L319.76 747.5L317.7 745.6L315.62 743.61L313.54 741.53L311.47 739.38L309.42 737.17L307.4 734.92L305.44 732.68L303.56 730.43L301.7 728.11L299.84 725.7L298 723.22L296.18 720.68L294.39 718.11L292.64 715.52L290.95 712.94L289.3 710.37L287.74 707.86L286.26 705.41L284.83 702.94L283.43 700.45L282.09 697.95L280.79 695.45L279.55 692.98L278.37 690.55L277.26 688.19L276.23 685.91L275.29 683.74L274.43 681.69L273.65 679.7L272.92 677.75L272.27 675.87L271.68 674.08L271.17 672.38L270.74 670.81L270.39 669.4L270.13 668.17L269.95 667.16L269.83 666.36L269.78 665.74L269.76 665.33L269.76 665.17L269.74 665.32L269.65 665.83L269.38 666.76L268.78 668.14L267.64 669.91L265.86 671.81L263.65 673.39L261.37 674.41L259.33 674.92L257.71 675.05L256.59 675L255.92 674.89L255.64 674.82L255.7 674.84L256.03 674.98L256.55 675.23L257.24 675.61L258.14 676.15L259.25 676.88L260.53 677.77L261.95 678.81L263.51 679.99L265.17 681.3L266.94 682.72L268.79 684.24L270.69 685.83L272.62 687.48L274.63 689.26L276.75 691.17L278.98 693.21L281.29 695.36L283.68 697.61L286.15 699.93L288.68 702.31L291.27 704.75L293.88 707.19L296.48 709.64L299.14 712.16L301.88 714.77L304.7 717.46L307.57 720.21L310.5 723.01L313.48 725.82L316.51 728.65L319.57 731.48L322.63 734.25L325.66 736.97L328.73 739.71L331.84 742.49L335 745.29L338.21 748.09L341.45 750.88L344.72 753.64L348.01 756.37L351.32 759.04L354.62 761.61L357.87 764.08L361.11 766.51L364.39 768.92L367.7 771.29L371.02 773.62L374.37 775.88L377.72 778.07L381.1 780.18L384.48 782.2L387.84 784.1L391.14 785.86L394.43 787.52L397.72 789.11L401.03 790.6L404.35 792L407.67 793.3L411.01 794.49L414.35 795.55L417.71 796.49L421.06 797.27L424.39 797.91L427.69 798.39L430.98 798.72L434.26 798.91L437.52 798.94L440.76 798.81L443.97 798.51L447.16 798.04L450.32 797.4L453.45 796.56L456.57 795.5L459.6 794.24L462.5 792.81L465.28 791.21L467.93 789.46L470.44 787.58L472.83 785.57L475.09 783.45L477.21 781.22L479.23 778.86L481.16 776.32L482.95 773.66L484.58 770.93L486.06 768.14L487.41 765.3L488.63 762.42L489.73 759.51L490.71 756.56L491.58 753.59L492.39 750.39L493.09 746.8L493.57 743.07L493.89 739.42L494.09 735.86L494.2 732.45L494.26 729.24L494.29 726.35L494.3 723.88L494.33 722L494.38 720.61Z" fill="#C9A8B8" stroke="#7E5A6E" stroke-width="1.3" stroke-linejoin="round"/>
<path d="M294 700A6 5 0 1 0 306 700A6 5 0 1 0 294 700Z" fill="#A99ABD" stroke="#6F6381" stroke-width="1" stroke-linejoin="round"/>
<path d="M394 745A6 5 0 1 0 406 745A6 5 0 1 0 394 745Z" fill="#A99ABD" stroke="#6F6381" stroke-width="1" stroke-linejoin="round"/>
<path d="M434 690A6 5 0 1 0 446 690A6 5 0 1 0 434 690Z" fill="#A99ABD" stroke="#6F6381" stroke-width="1" stroke-linejoin="round"/>
<path d="M776 110H1384Q1390 110 1390 116V174Q1390 180 1384 180H776Q770 180 770 174V116Q770 110 776 110Z" fill="#E9C6B4" stroke="#A07A68" stroke-width="1.4" stroke-linejoin="round"/>
<path d="M776 180H1384Q1390 180 1390 186V694Q1390 700 1384 700H776Q770 700 770 694V186Q770 180 776 180Z" fill="#F1DFD2" stroke="#C3A593" stroke-width="1.4" stroke-linejoin="round"/>
<path d="M776 700H1384Q1390 700 1390 706V934Q1390 940 1384 940H776Q770 940 770 934V706Q770 700 776 700Z" fill="#F2E6B4" stroke="#B8A560" stroke-width="1.4" stroke-linejoin="round"/>
<path d="M999 190L999 206.15L999 227.76L999 253.61L999 282.48L999 313.13L999 344.32L999 374.84L999 403.44L999 428.91L999 450L999 467.57L999 483.36L999 497.49L999 510.08L999 521.25L999 531.12L999 539.81L999 547.44L999 554.13L999 560L1061 560L1061 554.13L1061 547.44L1061 539.81L1061 531.12L1061 521.25L1061 510.08L1061 497.49L1061 483.36L1061 467.57L1061 450L1061 428.91L1061 403.44L1061 374.84L1061 344.32L1061 313.13L1061 282.48L1061 253.61L1061 227.76L1061 206.15L1061 190Z" fill="#EBCDD2" stroke="#8A6068" stroke-width="1.6" stroke-linejoin="round"/>
<path d="M1022 60L1022 66.75L1022 74.16L1022 82.52L1022 92.08L1022 103.13L1022 115.92L1022 130.73L1022 147.84L1022 167.51L1022 190L1022 217.67L1022 251.52L1022 289.86L1022 330.96L1022 373.13L1022 414.64L1022 453.79L1022 488.88L1022 518.19L1022 540L1038 540L1038 518.19L1038 488.88L1038 453.79L1038 414.64L1038 373.13L1038 330.96L1038 289.86L1038 251.52L1038 217.67L1038 190L1038 167.51L1038 147.84L1038 130.73L1038 115.92L1038 103.13L1038 92.08L1038 82.52L1038 74.16L1038 66.75L1038 60Z" fill="#7A5A4A" stroke="#4A3228" stroke-width="1.3" stroke-linejoin="round"/>
<path d="M1100 380A30 24 0 1 0 1160 380A30 24 0 1 0 1100 380Z" fill="#F0E0A0" stroke="#9A8A4A" stroke-width="1.8" stroke-linejoin="round"/>
<path d="M1148 408A28 22 0 1 0 1204 408A28 22 0 1 0 1148 408Z" fill="#F0E0A0" stroke="#9A8A4A" stroke-width="1.8" stroke-linejoin="round"/>
<path d="M1102 436A28 22 0 1 0 1158 436A28 22 0 1 0 1102 436Z" fill="#F0E0A0" stroke="#9A8A4A" stroke-width="1.8" stroke-linejoin="round"/>
<path d="M1111.3 387.11L1109.47 386.86L1107.11 386.52L1104.3 386.12L1101.17 385.66L1097.81 385.16L1094.34 384.64L1090.84 384.11L1087.44 383.59L1084.24 383.09L1081.34 382.62L1078.57 382.16L1075.69 381.66L1072.78 381.13L1069.88 380.6L1067.08 380.08L1064.41 379.59L1061.95 379.13L1059.76 378.73L1057.88 378.39L1056.39 378.14L1053.61 391.86L1055.05 392.2L1056.88 392.63L1059.06 393.13L1061.51 393.69L1064.17 394.29L1067 394.92L1069.91 395.55L1072.87 396.18L1075.8 396.8L1078.66 397.38L1081.63 397.96L1084.88 398.57L1088.31 399.2L1091.82 399.84L1095.31 400.46L1098.67 401.06L1101.79 401.62L1104.57 402.12L1106.91 402.55L1108.7 402.89Z" fill="#F5EBBE" stroke="#9A8A4A" stroke-width="1.3" stroke-linejoin="round"/>
<path d="M1276.6 799.09L1276.51 801.5L1276.46 804.55L1276.43 807.81L1276.4 811.26L1276.32 814.82L1276.19 818.36L1275.97 821.72L1275.67 824.71L1275.32 827.09L1274.91 828.92L1274.32 830.86L1273.57 833.07L1272.73 835.24L1271.81 837.33L1270.83 839.31L1269.8 841.18L1268.74 842.91L1267.65 844.47L1266.57 845.86L1265.46 847.12L1264.22 848.36L1262.86 849.59L1261.42 850.76L1259.91 851.85L1258.34 852.86L1256.72 853.78L1255.04 854.61L1253.33 855.34L1251.58 855.97L1249.75 856.5L1247.76 856.96L1245.57 857.34L1243.22 857.64L1240.73 857.83L1238.1 857.92L1235.35 857.9L1232.48 857.76L1229.52 857.5L1226.46 857.12L1223.35 856.61L1220.15 855.96L1216.8 855.16L1213.29 854.2L1209.65 853.08L1205.88 851.82L1202.01 850.41L1198.06 848.88L1194.04 847.21L1189.97 845.44L1185.9 843.57L1181.83 841.6L1177.69 839.47L1173.44 837.18L1169.1 834.74L1164.69 832.17L1160.22 829.49L1155.72 826.71L1151.19 823.85L1146.65 820.93L1142.16 817.99L1137.73 815.01L1133.29 811.93L1128.79 808.73L1124.25 805.43L1119.69 802.04L1115.11 798.61L1110.54 795.13L1105.98 791.63L1101.45 788.14L1097 784.71L1092.66 781.33L1088.35 777.9L1084.03 774.43L1079.72 770.92L1075.42 767.4L1071.15 763.89L1066.92 760.4L1062.73 756.96L1058.58 753.59L1054.55 750.33L1050.66 747.2L1046.84 744.11L1043.05 741.04L1039.31 738.01L1035.61 735.02L1031.96 732.1L1028.36 729.26L1024.82 726.52L1021.34 723.87L1017.96 721.38L1014.74 719.07L1011.62 716.86L1008.55 714.73L1005.52 712.69L1002.55 710.75L999.61 708.9L996.69 707.15L993.78 705.52L990.84 703.99L987.89 702.61L984.96 701.39L982.02 700.34L978.98 699.44L975.78 698.72L972.37 698.24L968.67 698.07L964.63 698.35L960.27 699.27L955.72 701.02L951.22 703.78L947.24 707.45L944.23 711.55L942.17 715.64L940.86 719.54L940.1 723.21L939.72 726.67L939.64 729.96L939.79 733.13L940.12 736.23L940.61 739.29L941.24 742.33L942 745.39L942.89 748.48L943.9 751.62L945.02 754.83L946.25 758.09L947.6 761.41L949.05 764.78L950.61 768.19L952.27 771.6L954 775.03L955.84 778.53L957.8 782.12L959.88 785.8L962.06 789.54L964.35 793.33L966.74 797.15L969.23 800.99L971.82 804.82L974.47 808.59L977.17 812.31L979.95 816.06L982.84 819.85L985.84 823.67L988.93 827.49L992.12 831.32L995.4 835.11L998.75 838.86L1002.2 842.55L1005.68 846.12L1009.17 849.57L1012.72 852.97L1016.36 856.34L1020.09 859.67L1023.9 862.95L1027.78 866.16L1031.74 869.28L1035.77 872.3L1039.88 875.21L1044.01 877.95L1048.12 880.52L1052.26 882.96L1056.47 885.31L1060.75 887.54L1065.08 889.66L1069.47 891.63L1073.92 893.47L1078.42 895.15L1082.98 896.66L1087.55 897.97L1092.11 899.08L1096.67 900.01L1101.25 900.76L1105.84 901.33L1110.44 901.71L1115.04 901.91L1119.64 901.92L1124.22 901.74L1128.79 901.35L1133.35 900.76L1137.9 899.94L1142.4 898.92L1146.82 897.69L1151.16 896.27L1155.41 894.69L1159.58 892.94L1163.65 891.03L1167.63 888.99L1171.51 886.8L1175.34 884.46L1179.16 881.9L1182.89 879.16L1186.5 876.29L1189.97 873.31L1193.33 870.23L1196.57 867.06L1199.69 863.83L1202.7 860.54L1205.6 857.21L1208.44 853.8L1211.24 850.21L1213.97 846.48L1216.56 842.69L1219.05 838.85L1221.41 834.99L1223.68 831.11L1225.83 827.23L1227.88 823.38L1229.82 819.55L1231.7 815.72L1233.52 811.78L1235.25 807.75L1236.88 803.72L1238.4 799.71L1239.82 795.72L1241.14 791.78L1242.37 787.9L1243.5 784.1L1244.55 780.4L1245.51 776.75L1246.41 773.05L1247.22 769.34L1247.92 765.67L1248.53 762.07L1249.05 758.54L1249.47 755.09L1249.81 751.74L1250.07 748.49L1250.24 745.34L1250.32 742.25L1250.31 739.15L1250.18 736.06L1249.94 733.03L1249.57 730.05L1249.07 727.12L1248.43 724.21L1247.61 721.31L1246.59 718.38L1245.28 715.39L1243.57 712.3L1241.35 709.17L1238.63 706.19L1235.39 703.49L1231.67 701.23L1227.6 699.52L1223.34 698.46L1219.06 698.06L1214.93 698.25L1211.05 698.95L1207.45 700.06L1204.2 701.45L1201.33 703.01L1198.73 704.67L1196.34 706.41L1194.08 708.24L1191.92 710.15L1189.83 712.15L1187.79 714.23L1185.8 716.39L1183.81 718.67L1181.8 721.1L1179.8 723.66L1177.83 726.3L1175.88 729.03L1173.94 731.83L1172.01 734.7L1170.08 737.64L1168.17 740.62L1166.27 743.64L1164.36 746.73L1162.41 749.96L1160.45 753.32L1158.49 756.74L1156.54 760.21L1154.6 763.73L1152.68 767.26L1150.76 770.8L1148.87 774.32L1147 777.81L1145.14 781.29L1143.25 784.85L1141.35 788.49L1139.46 792.14L1137.59 795.79L1135.75 799.4L1133.93 802.98L1132.14 806.48L1130.38 809.9L1128.67 813.2L1126.97 816.42L1125.25 819.65L1123.54 822.89L1121.85 826.08L1120.2 829.18L1118.59 832.19L1117.01 835.07L1115.49 837.82L1114.03 840.4L1112.63 842.79L1111.27 845.02L1109.91 847.2L1108.55 849.32L1107.26 851.3L1106.03 853.11L1104.88 854.75L1103.82 856.18L1102.88 857.39L1102.09 858.34L1101.49 859L1101.08 859.41L1100.8 859.67L1100.68 859.77L1100.85 859.65L1101.38 859.35L1102.34 858.91L1103.81 858.44L1105.79 858.07L1108.22 857.98L1110.9 858.31L1113.58 859.12L1115.95 860.29L1117.7 861.54L1118.84 862.59L1119.48 863.34L1119.77 863.74L1119.81 863.8L1119.69 863.56L1119.45 863.03L1119.14 862.24L1118.81 861.31L1118.48 860.23L1118.12 858.9L1117.74 857.3L1117.36 855.46L1116.98 853.43L1116.61 851.22L1116.26 848.88L1115.92 846.41L1115.6 843.84L1115.31 841.23L1115.04 838.56L1114.79 835.75L1114.57 832.79L1114.37 829.72L1114.2 826.54L1114.05 823.3L1113.91 820L1113.81 816.68L1113.72 813.35L1113.65 810.05L1113.6 806.76L1113.58 803.39L1113.58 799.97L1113.6 796.51L1113.65 793.04L1113.71 789.58L1113.8 786.15L1113.9 782.77L1114.02 779.48L1114.16 776.29L1114.31 773.15L1114.49 770.03L1114.68 766.93L1114.89 763.88L1115.12 760.9L1115.37 758.01L1115.62 755.24L1115.9 752.59L1116.18 750.11L1116.47 747.8L1116.77 745.6L1117.09 743.49L1117.41 741.51L1117.74 739.67L1118.07 738L1118.39 736.53L1118.69 735.28L1118.96 734.31L1119.16 733.66L1119.27 733.36L1119.28 733.34L1119.13 733.63L1118.71 734.32L1117.85 735.49L1116.3 737.11L1113.76 739.05L1109.97 740.89L1105.13 741.95L1100.08 741.74L1095.78 740.47L1092.73 738.81L1090.9 737.37L1089.93 736.4L1089.52 735.9L1089.46 735.81L1089.62 736.08L1089.95 736.65L1090.38 737.48L1090.91 738.55L1091.46 739.74L1092.03 741.05L1092.65 742.58L1093.34 744.36L1094.07 746.35L1094.84 748.54L1095.64 750.89L1096.48 753.37L1097.34 755.98L1098.23 758.7L1099.12 761.44L1100.01 764.21L1100.91 767.11L1101.84 770.16L1102.79 773.35L1103.77 776.64L1104.77 780.02L1105.8 783.47L1106.84 786.96L1107.91 790.48L1108.98 793.97L1110.04 797.41L1111.11 800.9L1112.21 804.47L1113.32 808.1L1114.46 811.77L1115.62 815.46L1116.79 819.15L1117.99 822.82L1119.21 826.46L1120.43 830L1121.65 833.42L1122.86 836.81L1124.11 840.22L1125.37 843.61L1126.65 846.98L1127.96 850.31L1129.29 853.6L1130.64 856.82L1132.04 859.97L1133.44 862.99L1134.84 865.85L1136.24 868.62L1137.68 871.33L1139.15 874L1140.67 876.6L1142.25 879.15L1143.9 881.64L1145.64 884.08L1147.52 886.48L1149.53 888.79L1151.63 890.95L1153.86 892.98L1156.27 894.91L1158.92 896.72L1161.84 898.38L1165.08 899.83L1168.66 900.99L1172.59 901.75L1176.8 901.99L1181.17 901.6L1185.41 900.59L1189.23 899.08L1192.61 897.23L1195.55 895.16L1198.12 892.96L1200.38 890.65L1202.39 888.27L1204.19 885.82L1205.81 883.32L1207.29 880.74L1208.64 878.06L1209.88 875.33L1211.01 872.55L1212.06 869.7L1213.03 866.78L1213.94 863.79L1214.79 860.74L1215.58 857.62L1216.3 854.45L1216.97 851.23L1217.57 847.94L1218.13 844.55L1218.64 841.07L1219.1 837.5L1219.52 833.87L1219.88 830.18L1220.19 826.44L1220.44 822.67L1220.63 818.89L1220.75 815.12L1220.81 811.37L1220.83 807.56L1220.79 803.69L1220.69 799.78L1220.54 795.84L1220.32 791.88L1220.04 787.92L1219.69 783.98L1219.26 780.06L1218.76 776.22L1218.2 772.49L1217.57 768.78L1216.88 765.06L1216.11 761.34L1215.27 757.64L1214.33 753.96L1213.31 750.3L1212.18 746.69L1210.94 743.12L1209.59 739.67L1208.17 736.4L1206.68 733.23L1205.07 730.1L1203.33 727.01L1201.45 723.97L1199.42 720.99L1197.2 718.08L1194.78 715.25L1192.12 712.52L1189.26 709.97L1186.31 707.7L1183.25 705.66L1180.03 703.83L1176.67 702.21L1173.17 700.84L1169.55 699.73L1165.83 698.88L1162.03 698.31L1158.18 698.03L1154.3 698.05L1150.45 698.34L1146.67 698.89L1142.99 699.66L1139.39 700.63L1135.86 701.77L1132.39 703.08L1128.97 704.53L1125.6 706.12L1122.27 707.84L1118.92 709.71L1115.53 711.77L1112.14 714L1108.8 716.34L1105.5 718.79L1102.23 721.34L1098.99 723.97L1095.77 726.68L1092.58 729.45L1089.42 732.28L1086.24 735.19L1082.99 738.26L1079.71 741.47L1076.46 744.76L1073.23 748.12L1070.01 751.54L1066.83 754.99L1063.68 758.45L1060.56 761.92L1057.48 765.37L1054.42 768.83L1051.31 772.39L1048.18 776.03L1045.08 779.72L1042.01 783.41L1038.97 787.1L1035.98 790.76L1033.04 794.37L1030.16 797.92L1027.35 801.37L1024.58 804.76L1021.81 808.16L1019.03 811.59L1016.3 814.98L1013.63 818.32L1011.01 821.6L1008.45 824.78L1005.98 827.85L1003.6 830.79L1001.31 833.57L999.11 836.21L996.93 838.79L994.79 841.32L992.72 843.75L990.73 846.06L988.82 848.24L987.02 850.27L985.34 852.14L983.79 853.81L982.39 855.27L981.26 856.41L980.44 857.17L979.81 857.71L979.24 858.14L978.71 858.51L978.18 858.86L977.61 859.2L976.91 859.61L975.98 860.14L974.69 860.91L973.6 861.61L997.76 898.39L997.89 898.29L998.06 898.2L998.85 897.75L1000.08 897.03L1001.64 896.08L1003.44 894.91L1005.42 893.51L1007.53 891.88L1009.73 890.01L1011.88 888L1013.88 886L1015.82 883.97L1017.79 881.85L1019.81 879.62L1021.87 877.29L1023.97 874.88L1026.12 872.39L1028.31 869.82L1030.54 867.19L1032.83 864.48L1035.22 861.61L1037.68 858.61L1040.2 855.51L1042.75 852.34L1045.34 849.11L1047.97 845.83L1050.62 842.53L1053.28 839.21L1055.95 835.91L1058.66 832.59L1061.45 829.18L1064.3 825.67L1067.19 822.13L1070.09 818.56L1073 815L1075.91 811.45L1078.82 807.96L1081.71 804.52L1084.58 801.18L1087.44 797.9L1090.37 794.6L1093.34 791.27L1096.31 787.97L1099.27 784.72L1102.2 781.54L1105.11 778.45L1107.97 775.48L1110.77 772.64L1113.51 769.96L1116.2 767.41L1118.93 764.91L1121.68 762.46L1124.38 760.1L1127.04 757.87L1129.63 755.76L1132.14 753.8L1134.56 752.01L1136.86 750.39L1139.02 748.97L1141.08 747.73L1143.11 746.59L1145.1 745.56L1146.99 744.67L1148.77 743.91L1150.42 743.29L1151.91 742.81L1153.24 742.45L1154.39 742.21L1155.33 742.07L1156.06 742.01L1156.66 742.01L1157.2 742.05L1157.7 742.12L1158.17 742.23L1158.64 742.37L1159.11 742.56L1159.6 742.8L1160.12 743.09L1160.67 743.46L1161.19 743.86L1161.68 744.29L1162.25 744.88L1162.94 745.69L1163.72 746.72L1164.56 747.94L1165.43 749.35L1166.31 750.93L1167.2 752.66L1168.07 754.52L1168.9 756.42L1169.66 758.36L1170.39 760.47L1171.12 762.79L1171.82 765.29L1172.49 767.93L1173.12 770.69L1173.71 773.55L1174.25 776.47L1174.75 779.43L1175.19 782.37L1175.58 785.29L1175.9 788.3L1176.18 791.43L1176.41 794.63L1176.59 797.89L1176.71 801.17L1176.79 804.46L1176.83 807.72L1176.82 810.93L1176.76 814.03L1176.66 817.07L1176.51 820.12L1176.31 823.18L1176.06 826.22L1175.76 829.23L1175.43 832.18L1175.06 835.04L1174.65 837.78L1174.22 840.39L1173.78 842.82L1173.3 845.12L1172.79 847.35L1172.25 849.48L1171.69 851.51L1171.12 853.4L1170.54 855.14L1169.97 856.69L1169.43 858.01L1168.95 859.08L1168.55 859.88L1168.21 860.46L1167.95 860.87L1167.79 861.09L1167.78 861.1L1167.98 860.9L1168.44 860.5L1169.24 859.95L1170.43 859.3L1172.07 858.66L1174.09 858.18L1176.21 857.99L1178.13 858.1L1179.73 858.4L1180.95 858.79L1181.79 859.17L1182.3 859.45L1182.51 859.59L1182.49 859.57L1182.27 859.37L1181.94 859.03L1181.5 858.53L1180.91 857.77L1180.17 856.73L1179.32 855.44L1178.39 853.94L1177.4 852.25L1176.37 850.39L1175.31 848.39L1174.23 846.26L1173.16 844.07L1172.12 841.81L1171.05 839.4L1169.95 836.79L1168.83 834.03L1167.69 831.13L1166.55 828.12L1165.4 825.02L1164.24 821.85L1163.09 818.64L1161.96 815.45L1160.86 812.27L1159.77 809.01L1158.67 805.65L1157.57 802.19L1156.47 798.68L1155.37 795.13L1154.27 791.56L1153.18 788L1152.09 784.45L1151.02 781L1149.99 777.65L1148.98 774.3L1147.97 770.91L1146.96 767.51L1145.96 764.13L1144.96 760.76L1143.96 757.44L1142.97 754.18L1141.97 750.98L1141 747.93L1140.06 745.05L1139.14 742.24L1138.22 739.47L1137.31 736.75L1136.39 734.08L1135.47 731.47L1134.54 728.92L1133.58 726.43L1132.6 724.01L1131.59 721.69L1130.6 719.56L1129.6 717.54L1128.55 715.54L1127.41 713.54L1126.15 711.53L1124.68 709.44L1122.89 707.24L1120.58 704.89L1117.43 702.4L1113.09 700.02L1107.53 698.38L1101.25 698.12L1095.2 699.44L1090.24 701.86L1086.55 704.69L1083.89 707.5L1081.95 710.14L1080.47 712.61L1079.3 714.95L1078.32 717.26L1077.46 719.61L1076.73 721.96L1076.08 724.3L1075.51 726.67L1074.98 729.08L1074.5 731.55L1074.04 734.09L1073.62 736.68L1073.22 739.34L1072.84 742.06L1072.49 744.91L1072.15 747.88L1071.83 750.95L1071.54 754.12L1071.26 757.36L1071.01 760.67L1070.78 764.03L1070.56 767.43L1070.37 770.85L1070.2 774.27L1070.06 777.74L1069.93 781.3L1069.82 784.93L1069.72 788.61L1069.65 792.33L1069.6 796.07L1069.58 799.81L1069.58 803.53L1069.6 807.22L1069.65 810.83L1069.73 814.4L1069.82 817.99L1069.94 821.6L1070.09 825.2L1070.26 828.79L1070.45 832.34L1070.68 835.85L1070.94 839.29L1071.23 842.66L1071.56 845.91L1071.91 849.04L1072.29 852.1L1072.71 855.13L1073.16 858.13L1073.65 861.08L1074.19 863.97L1074.79 866.83L1075.45 869.64L1076.2 872.42L1077.03 875.11L1077.93 877.66L1078.91 880.13L1080.02 882.61L1081.31 885.1L1082.82 887.63L1084.65 890.22L1086.89 892.84L1089.68 895.46L1093.16 897.93L1097.32 900L1101.86 901.37L1106.47 901.94L1110.89 901.77L1114.93 901.01L1118.51 899.83L1121.66 898.4L1124.43 896.8L1126.9 895.09L1129.15 893.31L1131.29 891.41L1133.37 889.34L1135.33 887.18L1137.16 884.98L1138.91 882.74L1140.6 880.44L1142.25 878.1L1143.88 875.69L1145.49 873.23L1147.09 870.73L1148.73 868.11L1150.43 865.31L1152.15 862.37L1153.87 859.35L1155.58 856.26L1157.29 853.11L1159 849.93L1160.71 846.71L1162.43 843.48L1164.13 840.25L1165.86 836.99L1167.65 833.6L1169.47 830.1L1171.3 826.55L1173.12 822.97L1174.95 819.38L1176.77 815.81L1178.59 812.26L1180.39 808.77L1182.18 805.36L1183.97 801.99L1185.79 798.58L1187.65 795.11L1189.5 791.66L1191.35 788.25L1193.18 784.89L1194.99 781.61L1196.77 778.43L1198.53 775.36L1200.23 772.45L1201.91 769.67L1203.61 766.92L1205.32 764.2L1207.01 761.57L1208.67 759.03L1210.29 756.62L1211.86 754.36L1213.36 752.25L1214.79 750.34L1216.12 748.64L1217.35 747.14L1218.55 745.78L1219.7 744.53L1220.77 743.44L1221.73 742.52L1222.56 741.78L1223.21 741.25L1223.63 740.94L1223.76 740.86L1223.5 740.99L1222.75 741.31L1221.54 741.68L1219.98 741.96L1218.1 742.05L1215.98 741.84L1213.76 741.29L1211.63 740.4L1209.74 739.25L1208.19 737.96L1207.01 736.68L1206.2 735.53L1205.76 734.75L1205.61 734.41L1205.63 734.47L1205.73 734.85L1205.88 735.5L1206.03 736.39L1206.16 737.48L1206.26 738.73L1206.32 740.13L1206.33 741.69L1206.27 743.51L1206.16 745.57L1205.99 747.8L1205.75 750.17L1205.44 752.65L1205.07 755.21L1204.62 757.84L1204.11 760.51L1203.53 763.18L1202.87 765.92L1202.1 768.81L1201.24 771.86L1200.31 774.98L1199.31 778.15L1198.24 781.34L1197.1 784.53L1195.91 787.69L1194.65 790.8L1193.34 793.84L1191.96 796.83L1190.45 799.91L1188.84 803.07L1187.17 806.23L1185.43 809.35L1183.65 812.42L1181.81 815.41L1179.94 818.3L1178.04 821.07L1176.13 823.69L1174.17 826.2L1172.08 828.72L1169.89 831.24L1167.65 833.68L1165.37 836.03L1163.07 838.28L1160.76 840.4L1158.45 842.39L1156.15 844.22L1153.89 845.88L1151.62 847.4L1149.24 848.85L1146.77 850.24L1144.26 851.54L1141.73 852.72L1139.19 853.79L1136.65 854.74L1134.11 855.56L1131.6 856.26L1129.12 856.83L1126.65 857.27L1124.12 857.6L1121.5 857.82L1118.8 857.93L1116.04 857.92L1113.23 857.8L1110.39 857.56L1107.51 857.21L1104.61 856.73L1101.71 856.14L1098.84 855.44L1095.98 854.62L1093.04 853.65L1090.01 852.52L1086.91 851.24L1083.76 849.82L1080.58 848.27L1077.37 846.59L1074.16 844.8L1070.96 842.91L1067.83 840.96L1064.77 838.92L1061.69 836.74L1058.56 834.4L1055.41 831.92L1052.26 829.31L1049.1 826.6L1045.97 823.8L1042.88 820.93L1039.83 818.01L1036.88 815.11L1034.04 812.19L1031.24 809.18L1028.44 806.06L1025.67 802.85L1022.94 799.58L1020.26 796.26L1017.64 792.92L1015.09 789.58L1012.63 786.26L1010.28 783.03L1008.07 779.88L1005.93 776.7L1003.84 773.5L1001.83 770.28L999.89 767.07L998.04 763.9L996.28 760.78L994.63 757.75L993.09 754.82L991.68 752.05L990.42 749.44L989.25 746.9L988.19 744.43L987.22 742.04L986.36 739.77L985.62 737.64L984.99 735.69L984.49 733.94L984.11 732.45L983.87 731.27L983.72 730.38L983.66 729.74L983.64 729.42L983.63 729.45L983.58 729.92L983.38 730.87L982.87 732.35L981.87 734.34L980.15 736.66L977.73 738.9L975.03 740.56L972.54 741.52L970.49 741.96L969.01 742.07L968.12 742.03L967.74 741.98L967.82 742L968.28 742.14L969.07 742.42L970.09 742.85L971.32 743.42L972.82 744.21L974.59 745.2L976.59 746.4L978.8 747.78L981.17 749.34L983.71 751.05L986.38 752.9L989.19 754.89L992.06 756.95L994.98 759.1L998.02 761.42L1001.23 763.9L1004.58 766.55L1008.06 769.33L1011.65 772.23L1015.35 775.23L1019.15 778.3L1023.03 781.45L1026.94 784.59L1030.86 787.75L1034.86 791.01L1038.97 794.39L1043.19 797.86L1047.5 801.41L1051.89 805.01L1056.36 808.64L1060.88 812.28L1065.46 815.91L1070.04 819.48L1074.58 822.99L1079.17 826.52L1083.84 830.1L1088.57 833.7L1093.37 837.3L1098.21 840.89L1103.09 844.44L1108 847.94L1112.93 851.36L1117.84 854.65L1122.68 857.82L1127.53 860.95L1132.41 864.03L1137.34 867.07L1142.28 870.04L1147.25 872.93L1152.22 875.73L1157.21 878.41L1162.19 880.97L1167.14 883.37L1172 885.6L1176.83 887.71L1181.67 889.71L1186.52 891.59L1191.36 893.35L1196.2 894.98L1201.03 896.45L1205.85 897.78L1210.66 898.93L1215.44 899.89L1220.16 900.66L1224.84 901.25L1229.49 901.66L1234.1 901.88L1238.67 901.92L1243.21 901.76L1247.69 901.41L1252.12 900.85L1256.5 900.08L1260.84 899.08L1265.14 897.82L1269.35 896.32L1273.42 894.59L1277.34 892.65L1281.11 890.51L1284.72 888.19L1288.17 885.69L1291.45 883.04L1294.56 880.23L1297.55 877.22L1300.42 873.98L1303.1 870.54L1305.56 867L1307.8 863.37L1309.85 859.65L1311.71 855.87L1313.39 852.03L1314.9 848.15L1316.24 844.22L1317.5 839.96L1318.58 835.13L1319.34 830.15L1319.82 825.32L1320.13 820.63L1320.3 816.15L1320.39 811.98L1320.43 808.22L1320.46 805.04L1320.49 802.66L1320.57 800.91Z" fill="#B9C4D8" stroke="#4F6C86" stroke-width="1.3" stroke-linejoin="round"/>
<path d="M1008.94 761.03L1009.46 756.22L1010.08 750.05L1010.8 742.8L1011.62 734.7L1012.53 725.98L1013.54 716.88L1014.64 707.64L1015.85 698.52L1017.14 689.75L1018.51 681.62L1020.11 673.81L1022.01 665.8L1024.16 657.63L1026.45 649.38L1028.8 641.09L1031.11 632.84L1033.31 624.67L1035.3 616.64L1036.98 608.8L1038.25 601.18L1039.08 593.66L1039.54 586.14L1039.7 578.73L1039.64 571.55L1039.41 564.7L1039.08 558.3L1038.72 552.48L1038.37 547.38L1038.12 543.15L1038 539.79L1022 540.21L1022.06 543.81L1022.27 548.3L1022.54 553.44L1022.84 559.14L1023.09 565.3L1023.24 571.81L1023.24 578.55L1023.02 585.38L1022.54 592.18L1021.75 598.82L1020.55 605.58L1018.94 612.8L1017 620.39L1014.81 628.28L1012.45 636.41L1010.03 644.7L1007.63 653.11L1005.35 661.56L1003.26 670.01L1001.49 678.38L999.96 686.97L998.55 696.04L997.26 705.4L996.06 714.8L994.97 724.02L993.98 732.82L993.1 740.96L992.32 748.19L991.64 754.26L991.06 758.97Z" fill="#B9C4D8" stroke="#4F6C86" stroke-width="1.6" stroke-linejoin="round"/>
</svg>
