<svg xmlns="http://www.w3.org/2000/svg" viewBox="0 0 1450 1000" width="1450" height="1000"><rect width="1450" height="1000" fill="#ECEAE2"/>
<path d="M44 30H1406Q1420 30 1420 44V956Q1420 970 1406 970H44Q30 970 30 956V44Q30 30 44 30Z" fill="#F2EFE8" stroke="#CFCABD" stroke-width="1.4"/>
<path d="M90 70H1360Q1380 70 1380 90V910Q1380 930 1360 930H90Q70 930 70 910V90Q70 70 90 70Z" fill="#EFE3E0" stroke="#CFC1BE" stroke-width="1.4" stroke-linejoin="round"/>
<path d="M160.76 656.48A43.07976215099916 40.49497642193921 15.323991347104311 1 0 243.86 679.25A43.07976215099916 40.49497642193921 15.323991347104311 1 0 160.76 656.48Z" fill="#CC8F88" stroke="#8A524D" stroke-width="1.3" stroke-linejoin="round"/>
<path d="M184.86 663.08A18.093500103419647 16.37030961737968 15.323991347104311 1 0 219.76 672.64A18.093500103419647 16.37030961737968 15.323991347104311 1 0 184.86 663.08Z" fill="#E3B5AE" stroke="#CC8F88" stroke-width="0.8" stroke-linejoin="round"/>
<path d="M1023.66 166.54A39.28238585172221 36.92544270061887 141.78737249225378 1 0 961.93 215.14A39.28238585172221 36.92544270061887 141.78737249225378 1 0 1023.66 166.54Z" fill="#CC8F88" stroke="#8A524D" stroke-width="1.3" stroke-linejoin="round"/>
<path d="M1005.76 180.64A16.49860205772333 14.92730662365444 141.78737249225378 1 0 979.83 201.05A16.49860205772333 14.92730662365444 141.78737249225378 1 0 1005.76 180.64Z" fill="#E3B5AE" stroke="#CC8F88" stroke-width="0.8" stroke-linejoin="round"/>
<path d="M445.03 350.19A40.130659313406795 37.722819754602384 93.30168848857284 1 0 440.4 430.32A40.130659313406795 37.722819754602384 93.30168848857284 1 0 445.03 350.19Z" fill="#CC8F88" stroke="#8A524D" stroke-width="1.3" stroke-linejoin="round"/>
<path d="M443.69 373.43A16.854876911630853 15.249650539094583 93.30168848857284 1 0 441.74 407.08A16.854876911630853 15.249650539094583 93.30168848857284 1 0 443.69 373.43Z" fill="#E3B5AE" stroke="#CC8F88" stroke-width="0.8" stroke-linejoin="round"/>
<path d="M989.28 681.66A38.21584921004251 35.922898257439954 54.682615203782916 1 0 1033.46 744.02A38.21584921004251 35.922898257439954 54.682615203782916 1 0 989.28 681.66Z" fill="#CC8F88" stroke="#8A524D" stroke-width="1.3" stroke-linejoin="round"/>
<path d="M1002.09 699.74A16.05065666821785 14.522022699816153 54.682615203782916 1 0 1020.65 725.94A16.05065666821785 14.522022699816153 54.682615203782916 1 0 1002.09 699.74Z" fill="#E3B5AE" stroke="#CC8F88" stroke-width="0.8" stroke-linejoin="round"/>
<path d="M248.04 524.67A38.300385246519 36.00236213172786 65.06609623320401 1 0 280.34 594.13A38.300385246519 36.00236213172786 65.06609623320401 1 0 248.04 524.67Z" fill="#CC8F88" stroke="#8A524D" stroke-width="1.3" stroke-linejoin="round"/>
<path d="M257.41 544.82A16.08616180353798 14.55414639367722 65.06609623320401 1 0 270.97 573.99A16.08616180353798 14.55414639367722 65.06609623320401 1 0 257.41 544.82Z" fill="#E3B5AE" stroke="#CC8F88" stroke-width="0.8" stroke-linejoin="round"/>
<path d="M1330.34 120.75A40.173948265612125 37.7635113696754 139.59677580278367 1 0 1269.16 172.83A40.173948265612125 37.7635113696754 139.59677580278367 1 0 1330.34 120.75Z" fill="#CC8F88" stroke="#8A524D" stroke-width="1.3" stroke-linejoin="round"/>
<path d="M1312.6 135.85A16.873058271557092 15.266100340932608 139.59677580278367 1 0 1286.9 157.73A16.873058271557092 15.266100340932608 139.59677580278367 1 0 1312.6 135.85Z" fill="#E3B5AE" stroke="#CC8F88" stroke-width="0.8" stroke-linejoin="round"/>
<path d="M112.51 254.46A43.15708904527128 40.567663702554995 31.78464030381292 1 0 185.88 299.93A43.15708904527128 40.567663702554995 31.78464030381292 1 0 112.51 254.46Z" fill="#CC8F88" stroke="#8A524D" stroke-width="1.3" stroke-linejoin="round"/>
<path d="M133.78 267.65A18.125977399013937 16.399693837203085 31.78464030381292 1 0 164.6 286.74A18.125977399013937 16.399693837203085 31.78464030381292 1 0 133.78 267.65Z" fill="#E3B5AE" stroke="#CC8F88" stroke-width="0.8" stroke-linejoin="round"/>
<path d="M611.81 266.7A41.704700930509716 39.20241887467913 81.98293567635119 1 0 623.44 349.29A41.704700930509716 39.20241887467913 81.98293567635119 1 0 611.81 266.7Z" fill="#CC8F88" stroke="#8A524D" stroke-width="1.3" stroke-linejoin="round"/>
<path d="M615.18 290.65A17.51597439081408 15.847786353593692 81.98293567635119 1 0 620.07 325.34A17.51597439081408 15.847786353593692 81.98293567635119 1 0 615.18 290.65Z" fill="#E3B5AE" stroke="#CC8F88" stroke-width="0.8" stroke-linejoin="round"/>
<path d="M787.05 309.04A43.968895295169204 41.33076157745905 25.727980714291334 1 0 866.27 347.21A43.968895295169204 41.33076157745905 25.727980714291334 1 0 787.05 309.04Z" fill="#CC8F88" stroke="#8A524D" stroke-width="1.3" stroke-linejoin="round"/>
<path d="M810.02 320.11A18.466936023971066 16.708180212164297 25.727980714291334 1 0 843.29 336.14A18.466936023971066 16.708180212164297 25.727980714291334 1 0 810.02 320.11Z" fill="#E3B5AE" stroke="#CC8F88" stroke-width="0.8" stroke-linejoin="round"/>
<path d="M285.82 109.93A41.0949010993354 38.62920703337527 50.0633729249239 1 0 338.58 172.94A41.0949010993354 38.62920703337527 50.0633729249239 1 0 285.82 109.93Z" fill="#CC8F88" stroke="#8A524D" stroke-width="1.3" stroke-linejoin="round"/>
<path d="M301.12 128.2A17.259858461720867 15.616062417747454 50.0633729249239 1 0 323.28 154.67A17.259858461720867 15.616062417747454 50.0633729249239 1 0 301.12 128.2Z" fill="#E3B5AE" stroke="#CC8F88" stroke-width="0.8" stroke-linejoin="round"/>
<path d="M373.29 496.34A39.17024514172226 36.820030433218925 111.32799255196005 1 0 344.8 569.32A39.17024514172226 36.820030433218925 111.32799255196005 1 0 373.29 496.34Z" fill="#CC8F88" stroke="#8A524D" stroke-width="1.3" stroke-linejoin="round"/>
<path d="M365.03 517.51A16.45150295952335 14.88469315385446 111.32799255196005 1 0 353.06 548.16A16.45150295952335 14.88469315385446 111.32799255196005 1 0 365.03 517.51Z" fill="#E3B5AE" stroke="#CC8F88" stroke-width="0.8" stroke-linejoin="round"/>
<path d="M942.33 847.92A38.1608207304962 35.87117148666643 46.28511062823236 1 0 995.08 903.08A38.1608207304962 35.87117148666643 46.28511062823236 1 0 942.33 847.92Z" fill="#CC8F88" stroke="#8A524D" stroke-width="1.3" stroke-linejoin="round"/>
<path d="M957.63 863.92A16.027544706808403 14.501111877588555 46.28511062823236 1 0 979.78 887.09A16.027544706808403 14.501111877588555 46.28511062823236 1 0 957.63 863.92Z" fill="#E3B5AE" stroke="#CC8F88" stroke-width="0.8" stroke-linejoin="round"/>
<path d="M541.22 697.97A40.050888089928776 37.64783480453305 57.42889598943293 1 0 584.34 765.48A40.050888089928776 37.64783480453305 57.42889598943293 1 0 541.22 697.97Z" fill="#CC8F88" stroke="#8A524D" stroke-width="1.3" stroke-linejoin="round"/>
<path d="M553.73 717.55A16.821372997770084 15.219337474172935 57.42889598943293 1 0 571.84 745.9A16.821372997770084 15.219337474172935 57.42889598943293 1 0 553.73 717.55Z" fill="#E3B5AE" stroke="#CC8F88" stroke-width="0.8" stroke-linejoin="round"/>
<path d="M1347.11 520.1A42.21837319852784 39.68527080661617 151.94062183611095 1 0 1272.6 559.82A42.21837319852784 39.68527080661617 151.94062183611095 1 0 1347.11 520.1Z" fill="#CC8F88" stroke="#8A524D" stroke-width="1.3" stroke-linejoin="round"/>
<path d="M1325.51 531.62A17.731716743381693 16.04298181544058 151.94062183611095 1 0 1294.21 548.3A17.731716743381693 16.04298181544058 151.94062183611095 1 0 1325.51 531.62Z" fill="#E3B5AE" stroke="#CC8F88" stroke-width="0.8" stroke-linejoin="round"/>
<path d="M747.32 846.66A41.689999281894416 39.18859932498075 164.13309417665005 1 0 667.12 869.45A41.689999281894416 39.18859932498075 164.13309417665005 1 0 747.32 846.66Z" fill="#CC8F88" stroke="#8A524D" stroke-width="1.3" stroke-linejoin="round"/>
<path d="M724.06 853.27A17.509799698395653 15.842199727119878 164.13309417665005 1 0 690.38 862.84A17.509799698395653 15.842199727119878 164.13309417665005 1 0 724.06 853.27Z" fill="#E3B5AE" stroke="#CC8F88" stroke-width="0.8" stroke-linejoin="round"/>
<path d="M911.55 516.08A38.58896996779367 36.27363176972605 139.561488032341 1 0 852.81 566.14A38.58896996779367 36.27363176972605 139.561488032341 1 0 911.55 516.08Z" fill="#CC8F88" stroke="#8A524D" stroke-width="1.3" stroke-linejoin="round"/>
<path d="M894.51 530.6A16.207367386473344 14.663808587761595 139.561488032341 1 0 869.84 551.62A16.207367386473344 14.663808587761595 139.561488032341 1 0 894.51 530.6Z" fill="#E3B5AE" stroke="#CC8F88" stroke-width="0.8" stroke-linejoin="round"/>
<path d="M604.79 390.85A38.41339636687189 36.10859258485958 0.1192582631483674 1 0 681.62 391.01A38.41339636687189 36.10859258485958 0.1192582631483674 1 0 604.79 390.85Z" fill="#CC8F88" stroke="#8A524D" stroke-width="1.3" stroke-linejoin="round"/>
<path d="M627.07 390.9A16.133626474086196 14.59709061941132 0.1192582631483674 1 0 659.34 390.97A16.133626474086196 14.59709061941132 0.1192582631483674 1 0 627.07 390.9Z" fill="#E3B5AE" stroke="#CC8F88" stroke-width="0.8" stroke-linejoin="round"/>
<path d="M224.34 171.33A41.48306820448488 38.99408411221579 165.5843409569934 1 0 143.98 191.98A41.48306820448488 38.99408411221579 165.5843409569934 1 0 224.34 171.33Z" fill="#CC8F88" stroke="#8A524D" stroke-width="1.3" stroke-linejoin="round"/>
<path d="M201.03 177.32A17.42288864588365 15.763565917704254 165.5843409569934 1 0 167.29 185.99A17.42288864588365 15.763565917704254 165.5843409569934 1 0 201.03 177.32Z" fill="#E3B5AE" stroke="#CC8F88" stroke-width="0.8" stroke-linejoin="round"/>
<path d="M611.09 775.19A42.571236229036 40.01696205529384 72.01631971634924 1 0 637.38 856.17A42.571236229036 40.01696205529384 72.01631971634924 1 0 611.09 775.19Z" fill="#CC8F88" stroke="#8A524D" stroke-width="1.3" stroke-linejoin="round"/>
<path d="M618.72 798.68A17.87991921619512 16.177069767033682 72.01631971634924 1 0 629.76 832.69A17.87991921619512 16.177069767033682 72.01631971634924 1 0 618.72 798.68Z" fill="#E3B5AE" stroke="#CC8F88" stroke-width="0.8" stroke-linejoin="round"/>
<path d="M760.78 464.13A40.472627551760525 38.04426989865489 113.76006072387099 1 0 728.16 538.22A40.472627551760525 38.04426989865489 113.76006072387099 1 0 760.78 464.13Z" fill="#CC8F88" stroke="#8A524D" stroke-width="1.3" stroke-linejoin="round"/>
<path d="M751.32 485.62A16.99850357173942 15.379598469669 113.76006072387099 1 0 737.62 516.73A16.99850357173942 15.379598469669 113.76006072387099 1 0 751.32 485.62Z" fill="#E3B5AE" stroke="#CC8F88" stroke-width="0.8" stroke-linejoin="round"/>
<path d="M436.61 136.77A42.302558582276106 39.76440506733954 112.21712916623801 1 0 404.61 215.09A42.302558582276106 39.76440506733954 112.21712916623801 1 0 436.61 136.77Z" fill="#CC8F88" stroke="#8A524D" stroke-width="1.3" stroke-linejoin="round"/>
<path d="M427.33 159.48A17.767074604555965 16.07497226126492 112.21712916623801 1 0 413.89 192.37A17.767074604555965 16.07497226126492 112.21712916623801 1 0 427.33 159.48Z" fill="#E3B5AE" stroke="#CC8F88" stroke-width="0.8" stroke-linejoin="round"/>
<path d="M225.31 741.87A38.83426859928295 36.50421248332597 130.6988786906004 1 0 174.66 800.75A38.83426859928295 36.50421248332597 130.6988786906004 1 0 225.31 741.87Z" fill="#CC8F88" stroke="#8A524D" stroke-width="1.3" stroke-linejoin="round"/>
<path d="M210.62 758.94A16.31039281169884 14.75702206772752 130.6988786906004 1 0 189.35 783.67A16.31039281169884 14.75702206772752 130.6988786906004 1 0 210.62 758.94Z" fill="#E3B5AE" stroke="#CC8F88" stroke-width="0.8" stroke-linejoin="round"/>
<path d="M1334.39 738.06A38.571358477231115 36.25707696859725 176.57162876799703 1 0 1257.39 742.68A38.571358477231115 36.25707696859725 176.57162876799703 1 0 1334.39 738.06Z" fill="#CC8F88" stroke="#8A524D" stroke-width="1.3" stroke-linejoin="round"/>
<path d="M1312.06 739.4A16.199970560437066 14.657116221347824 176.57162876799703 1 0 1279.72 741.34A16.199970560437066 14.657116221347824 176.57162876799703 1 0 1312.06 739.4Z" fill="#E3B5AE" stroke="#CC8F88" stroke-width="0.8" stroke-linejoin="round"/>
<path d="M1128.91 254.97A40.431349645834416 38.00546866708435 50.569211058318615 1 0 1180.27 317.42A40.431349645834416 38.00546866708435 50.569211058318615 1 0 1128.91 254.97Z" fill="#CC8F88" stroke="#8A524D" stroke-width="1.3" stroke-linejoin="round"/>
<path d="M1143.81 273.08A16.981166851250453 15.363912865417078 50.569211058318615 1 0 1165.38 299.31A16.981166851250453 15.363912865417078 50.569211058318615 1 0 1143.81 273.08Z" fill="#E3B5AE" stroke="#CC8F88" stroke-width="0.8" stroke-linejoin="round"/>
<path d="M802.88 169.62A42.725531263742596 40.16199938791804 10.295669445767999 1 0 886.96 184.89A42.725531263742596 40.16199938791804 10.295669445767999 1 0 802.88 169.62Z" fill="#CC8F88" stroke="#8A524D" stroke-width="1.3" stroke-linejoin="round"/>
<path d="M827.26 174.05A17.94472313077189 16.235701880222187 10.295669445767999 1 0 862.58 180.47A17.94472313077189 16.235701880222187 10.295669445767999 1 0 827.26 174.05Z" fill="#E3B5AE" stroke="#CC8F88" stroke-width="0.8" stroke-linejoin="round"/>
<path d="M84.21 867.63A41.21008661808446 38.73748142099939 25.33124621026218 1 0 158.7 902.9A41.21008661808446 38.73748142099939 25.33124621026218 1 0 84.21 867.63Z" fill="#CC8F88" stroke="#8A524D" stroke-width="1.3" stroke-linejoin="round"/>
<path d="M105.81 877.86A17.308236379595474 15.659832914872096 25.33124621026218 1 0 137.1 892.67A17.308236379595474 15.659832914872096 25.33124621026218 1 0 105.81 877.86Z" fill="#E3B5AE" stroke="#CC8F88" stroke-width="0.8" stroke-linejoin="round"/>
<path d="M629.57 87.03A38.913757319096476 36.57893187995069 99.53930695541203 1 0 616.67 163.79A38.913757319096476 36.57893187995069 99.53930695541203 1 0 629.57 87.03Z" fill="#CC8F88" stroke="#8A524D" stroke-width="1.3" stroke-linejoin="round"/>
<path d="M625.83 109.29A16.34377807402052 14.78722778125666 99.53930695541203 1 0 620.41 141.53A16.34377807402052 14.78722778125666 99.53930695541203 1 0 625.83 109.29Z" fill="#E3B5AE" stroke="#CC8F88" stroke-width="0.8" stroke-linejoin="round"/>
<path d="M1169.22 787.66A40.15589355537668 37.74653994205408 4.100136095657945 1 0 1249.32 793.4A40.15589355537668 37.74653994205408 4.100136095657945 1 0 1169.22 787.66Z" fill="#CC8F88" stroke="#8A524D" stroke-width="1.3" stroke-linejoin="round"/>
<path d="M1192.45 789.32A16.865475293258203 15.259239551043137 4.100136095657945 1 0 1226.09 791.73A16.865475293258203 15.259239551043137 4.100136095657945 1 0 1192.45 789.32Z" fill="#E3B5AE" stroke="#CC8F88" stroke-width="0.8" stroke-linejoin="round"/>
<path d="M491.94 450.86A41.96418731054291 39.44633607191034 68.98467829450965 1 0 522.03 529.2A41.96418731054291 39.44633607191034 68.98467829450965 1 0 491.94 450.86Z" fill="#CC8F88" stroke="#8A524D" stroke-width="1.3" stroke-linejoin="round"/>
<path d="M500.66 473.58A17.624958670428022 15.946391178006307 68.98467829450965 1 0 513.31 506.48A17.624958670428022 15.946391178006307 68.98467829450965 1 0 500.66 473.58Z" fill="#E3B5AE" stroke="#CC8F88" stroke-width="0.8" stroke-linejoin="round"/>
<path d="M1332.1 271.22A40.251007264479995 37.83594682861119 98.499492011033 1 0 1320.2 350.84A40.251007264479995 37.83594682861119 98.499492011033 1 0 1332.1 271.22Z" fill="#CC8F88" stroke="#8A524D" stroke-width="1.3" stroke-linejoin="round"/>
<path d="M1328.65 294.31A16.9054230510816 15.295382760502399 98.499492011033 1 0 1323.65 327.75A16.9054230510816 15.295382760502399 98.499492011033 1 0 1328.65 294.31Z" fill="#E3B5AE" stroke="#CC8F88" stroke-width="0.8" stroke-linejoin="round"/>
<path d="M266.58 468.45A43.92821273347363 41.29251996946521 171.4977908693254 1 0 179.69 481.44A43.92821273347363 41.29251996946521 171.4977908693254 1 0 266.58 468.45Z" fill="#CC8F88" stroke="#8A524D" stroke-width="1.3" stroke-linejoin="round"/>
<path d="M241.39 472.22A18.449849348058923 16.69272083871998 171.4977908693254 1 0 204.89 477.68A18.449849348058923 16.69272083871998 171.4977908693254 1 0 241.39 472.22Z" fill="#E3B5AE" stroke="#CC8F88" stroke-width="0.8" stroke-linejoin="round"/>
<path d="M440.3 817.35A41.411004192661494 38.926343941101806 155.10593131184578 1 0 365.17 852.21A41.411004192661494 38.926343941101806 155.10593131184578 1 0 440.3 817.35Z" fill="#CC8F88" stroke="#8A524D" stroke-width="1.3" stroke-linejoin="round"/>
<path d="M418.51 827.46A17.392621760917827 15.736181593211368 155.10593131184578 1 0 386.96 842.1A17.392621760917827 15.736181593211368 155.10593131184578 1 0 418.51 827.46Z" fill="#E3B5AE" stroke="#CC8F88" stroke-width="0.8" stroke-linejoin="round"/>
<path d="M1098.74 394.32A42.86463595693931 40.292757799522946 107.47896725311875 1 0 1072.99 476.09A42.86463595693931 40.292757799522946 107.47896725311875 1 0 1098.74 394.32Z" fill="#CC8F88" stroke="#8A524D" stroke-width="1.3" stroke-linejoin="round"/>
<path d="M1091.27 418.04A18.00314710191451 16.288561663636937 107.47896725311875 1 0 1080.45 452.38A18.00314710191451 16.288561663636937 107.47896725311875 1 0 1091.27 418.04Z" fill="#E3B5AE" stroke="#CC8F88" stroke-width="0.8" stroke-linejoin="round"/>
<path d="M1145.37 178.29A43.58905237959698 40.97370923682116 144.8566949274391 1 0 1074.08 228.47A43.58905237959698 40.97370923682116 144.8566949274391 1 0 1145.37 178.29Z" fill="#CC8F88" stroke="#8A524D" stroke-width="1.3" stroke-linejoin="round"/>
<path d="M1124.7 192.84A18.30740199943073 16.56383990424685 144.8566949274391 1 0 1094.76 213.92A18.30740199943073 16.56383990424685 144.8566949274391 1 0 1124.7 192.84Z" fill="#E3B5AE" stroke="#CC8F88" stroke-width="0.8" stroke-linejoin="round"/>
<path d="M443.11 269.95A38.33416002476588 36.03411042327993 33.94893785007298 1 0 506.7 312.76A38.33416002476588 36.03411042327993 33.94893785007298 1 0 443.11 269.95Z" fill="#CC8F88" stroke="#8A524D" stroke-width="1.3" stroke-linejoin="round"/>
<path d="M461.55 282.36A16.10034721040167 14.566980809411033 33.94893785007298 1 0 488.26 300.34A16.10034721040167 14.566980809411033 33.94893785007298 1 0 461.55 282.36Z" fill="#E3B5AE" stroke="#CC8F88" stroke-width="0.8" stroke-linejoin="round"/>
<path d="M73.6 441.81A41.695619540754706 39.193882368309424 15.974476905539632 1 0 153.78 464.76A41.695619540754706 39.193882368309424 15.974476905539632 1 0 73.6 441.81Z" fill="#CC8F88" stroke="#8A524D" stroke-width="1.3" stroke-linejoin="round"/>
<path d="M96.85 448.47A17.512160207116974 15.844335425486788 15.974476905539632 1 0 130.53 458.1A17.512160207116974 15.844335425486788 15.974476905539632 1 0 96.85 448.47Z" fill="#E3B5AE" stroke="#CC8F88" stroke-width="0.8" stroke-linejoin="round"/>
<path d="M1051.52 778.53A38.140217882581055 35.85180480962619 107.62233203742653 1 0 1028.42 851.23A38.140217882581055 35.85180480962619 107.62233203742653 1 0 1051.52 778.53Z" fill="#CC8F88" stroke="#8A524D" stroke-width="1.3" stroke-linejoin="round"/>
<path d="M1044.82 799.61A16.018891510684043 14.493282795380802 107.62233203742653 1 0 1035.12 830.15A16.018891510684043 14.493282795380802 107.62233203742653 1 0 1044.82 799.61Z" fill="#E3B5AE" stroke="#CC8F88" stroke-width="0.8" stroke-linejoin="round"/>
<path d="M884.02 653.54A39.8483231626451 37.45742377288639 105.86129024159163 1 0 862.24 730.21A39.8483231626451 37.45742377288639 105.86129024159163 1 0 884.02 653.54Z" fill="#CC8F88" stroke="#8A524D" stroke-width="1.3" stroke-linejoin="round"/>
<path d="M877.71 675.78A16.736295728310942 15.142362801805138 105.86129024159163 1 0 868.56 707.98A16.736295728310942 15.142362801805138 105.86129024159163 1 0 877.71 675.78Z" fill="#E3B5AE" stroke="#CC8F88" stroke-width="0.8" stroke-linejoin="round"/>
<path d="M715.4 77.68A39.11814630078152 36.77105752273462 56.631485810503364 1 0 758.43 143.02A39.11814630078152 36.77105752273462 56.631485810503364 1 0 715.4 77.68Z" fill="#CC8F88" stroke="#8A524D" stroke-width="1.3" stroke-linejoin="round"/>
<path d="M727.88 96.63A16.429621446328238 14.864895594296977 56.631485810503364 1 0 745.95 124.07A16.429621446328238 14.864895594296977 56.631485810503364 1 0 727.88 96.63Z" fill="#E3B5AE" stroke="#CC8F88" stroke-width="0.8" stroke-linejoin="round"/>
<path d="M594.31 485.89A38.712409613188356 36.389665036397055 90.83400556817651 1 0 593.19 563.3A38.712409613188356 36.389665036397055 90.83400556817651 1 0 594.31 485.89Z" fill="#CC8F88" stroke="#8A524D" stroke-width="1.3" stroke-linejoin="round"/>
<path d="M593.99 508.34A16.259212037539108 14.710715653011576 90.83400556817651 1 0 593.51 540.85A16.259212037539108 14.710715653011576 90.83400556817651 1 0 593.99 508.34Z" fill="#E3B5AE" stroke="#CC8F88" stroke-width="0.8" stroke-linejoin="round"/>
<path d="M522.77 112.48A38.22821409162134 35.934521246124056 104.31791540700942 1 0 503.86 186.56A38.22821409162134 35.934521246124056 104.31791540700942 1 0 522.77 112.48Z" fill="#CC8F88" stroke="#8A524D" stroke-width="1.3" stroke-linejoin="round"/>
<path d="M517.28 133.96A16.055849918480963 14.52672135481611 104.31791540700942 1 0 509.34 165.07A16.055849918480963 14.52672135481611 104.31791540700942 1 0 517.28 133.96Z" fill="#E3B5AE" stroke="#CC8F88" stroke-width="0.8" stroke-linejoin="round"/>
<path d="M971.45 444.14A41.63486981857568 39.136777629461136 153.03517563734204 1 0 897.23 481.9A41.63486981857568 39.136777629461136 153.03517563734204 1 0 971.45 444.14Z" fill="#CC8F88" stroke="#8A524D" stroke-width="1.3" stroke-linejoin="round"/>
<path d="M949.93 455.09A17.486645323801785 15.821250531058759 153.03517563734204 1 0 918.75 470.95A17.486645323801785 15.821250531058759 153.03517563734204 1 0 949.93 455.09Z" fill="#E3B5AE" stroke="#CC8F88" stroke-width="0.8" stroke-linejoin="round"/>
<path d="M1029.81 489.59A42.689886269159615 40.128493093010036 70.75742235872895 1 0 1057.95 570.2A42.689886269159615 40.128493093010036 70.75742235872895 1 0 1029.81 489.59Z" fill="#CC8F88" stroke="#8A524D" stroke-width="1.3" stroke-linejoin="round"/>
<path d="M1037.97 512.97A17.929752233047036 16.222156782280653 70.75742235872895 1 0 1049.79 546.83A17.929752233047036 16.222156782280653 70.75742235872895 1 0 1037.97 512.97Z" fill="#E3B5AE" stroke="#CC8F88" stroke-width="0.8" stroke-linejoin="round"/>
<path d="M1327.76 819.02A38.41168958786875 36.106988212596626 90.82965204957873 1 0 1326.65 895.84A38.41168958786875 36.106988212596626 90.82965204957873 1 0 1327.76 819.02Z" fill="#CC8F88" stroke="#8A524D" stroke-width="1.3" stroke-linejoin="round"/>
<path d="M1327.44 841.3A16.132909626904876 14.596442043390125 90.82965204957873 1 0 1326.97 873.56A16.132909626904876 14.596442043390125 90.82965204957873 1 0 1327.44 841.3Z" fill="#E3B5AE" stroke="#CC8F88" stroke-width="0.8" stroke-linejoin="round"/>
<path d="M1272.47 325.4A38.98704092716798 36.6478184715379 171.47106366232038 1 0 1195.36 336.97A38.98704092716798 36.6478184715379 171.47106366232038 1 0 1272.47 325.4Z" fill="#CC8F88" stroke="#8A524D" stroke-width="1.3" stroke-linejoin="round"/>
<path d="M1250.11 328.76A16.374557189410552 14.815075552323833 171.47106366232038 1 0 1217.72 333.61A16.374557189410552 14.815075552323833 171.47106366232038 1 0 1250.11 328.76Z" fill="#E3B5AE" stroke="#CC8F88" stroke-width="0.8" stroke-linejoin="round"/>
<path d="M842.05 608.33A40.282729253172874 37.8657654979825 159.7963624773547 1 0 766.44 636.15A40.282729253172874 37.8657654979825 159.7963624773547 1 0 842.05 608.33Z" fill="#CC8F88" stroke="#8A524D" stroke-width="1.3" stroke-linejoin="round"/>
<path d="M820.13 616.4A16.918746286332606 15.307437116205692 159.7963624773547 1 0 788.37 628.08A16.918746286332606 15.307437116205692 159.7963624773547 1 0 820.13 616.4Z" fill="#E3B5AE" stroke="#CC8F88" stroke-width="0.8" stroke-linejoin="round"/>
<path d="M1220.87 153.81A41.03841719450429 38.57611216283403 83.91270275227726 1 0 1229.57 235.43A41.03841719450429 38.57611216283403 83.91270275227726 1 0 1220.87 153.81Z" fill="#CC8F88" stroke="#8A524D" stroke-width="1.3" stroke-linejoin="round"/>
<path d="M1223.39 177.48A17.2361352216918 15.59459853391163 83.91270275227726 1 0 1227.05 211.76A17.2361352216918 15.59459853391163 83.91270275227726 1 0 1223.39 177.48Z" fill="#E3B5AE" stroke="#CC8F88" stroke-width="0.8" stroke-linejoin="round"/>
<path d="M708.05 236.52A41.1403703968972 38.671948173083365 73.53909430559725 1 0 731.37 315.43A41.1403703968972 38.671948173083365 73.53909430559725 1 0 708.05 236.52Z" fill="#CC8F88" stroke="#8A524D" stroke-width="1.3" stroke-linejoin="round"/>
<path d="M714.81 259.4A17.278955566696823 15.633340750820935 73.53909430559725 1 0 724.6 292.54A17.278955566696823 15.633340750820935 73.53909430559725 1 0 714.81 259.4Z" fill="#E3B5AE" stroke="#CC8F88" stroke-width="0.8" stroke-linejoin="round"/>
<path d="M304.19 866.56A38.77525024721399 36.448735232381146 145.0245510879904 1 0 240.65 911.01A38.77525024721399 36.448735232381146 145.0245510879904 1 0 304.19 866.56Z" fill="#CC8F88" stroke="#8A524D" stroke-width="1.3" stroke-linejoin="round"/>
<path d="M285.77 879.45A16.285605103829877 14.734595093941316 145.0245510879904 1 0 259.08 898.12A16.285605103829877 14.734595093941316 145.0245510879904 1 0 285.77 879.45Z" fill="#E3B5AE" stroke="#CC8F88" stroke-width="0.8" stroke-linejoin="round"/>
<path d="M1227.89 502.77A40.30116312438622 37.88309333692305 148.98080435581505 1 0 1158.81 544.31A40.30116312438622 37.88309333692305 148.98080435581505 1 0 1227.89 502.77Z" fill="#CC8F88" stroke="#8A524D" stroke-width="1.3" stroke-linejoin="round"/>
<path d="M1207.86 514.82A16.926488512242212 15.314441987266765 148.98080435581505 1 0 1178.85 532.26A16.926488512242212 15.314441987266765 148.98080435581505 1 0 1207.86 514.82Z" fill="#E3B5AE" stroke="#CC8F88" stroke-width="0.8" stroke-linejoin="round"/>
<path d="M854.12 748.88A40.28391698701307 37.86688196779229 70.17647311091423 1 0 881.44 824.67A40.28391698701307 37.86688196779229 70.17647311091423 1 0 854.12 748.88Z" fill="#CC8F88" stroke="#8A524D" stroke-width="1.3" stroke-linejoin="round"/>
<path d="M862.04 770.86A16.91924513454549 15.307888455064967 70.17647311091423 1 0 873.52 802.69A16.91924513454549 15.307888455064967 70.17647311091423 1 0 862.04 770.86Z" fill="#E3B5AE" stroke="#CC8F88" stroke-width="0.8" stroke-linejoin="round"/>
<path d="M807.47 422.84A38.30372303491458 36.00549965281971 60.03297099843621 1 0 845.73 489.2A38.30372303491458 36.00549965281971 60.03297099843621 1 0 807.47 422.84Z" fill="#CC8F88" stroke="#8A524D" stroke-width="1.3" stroke-linejoin="round"/>
<path d="M818.56 442.08A16.087563674664125 14.555414753267542 60.03297099843621 1 0 834.64 469.96A16.087563674664125 14.555414753267542 60.03297099843621 1 0 818.56 442.08Z" fill="#E3B5AE" stroke="#CC8F88" stroke-width="0.8" stroke-linejoin="round"/>
<path d="M256 330A74 74 0 1 0 404 330A74 74 0 1 0 256 330Z" fill="#E7DFDC" stroke="#A59490" stroke-width="1.6" stroke-linejoin="round"/>
<path d="M328.39 329.51A1.6 1.6 0 1 0 331.59 329.51A1.6 1.6 0 1 0 328.39 329.51Z" fill="#D2B5B0" stroke="#D2B5B0" stroke-width="0.3" stroke-linejoin="round"/>
<path d="M305.46 304.26A1.6 1.6 0 1 0 308.66 304.26A1.6 1.6 0 1 0 305.46 304.26Z" fill="#D2B5B0" stroke="#D2B5B0" stroke-width="0.3" stroke-linejoin="round"/>
<path d="M356.98 356.66A1.6 1.6 0 1 0 360.18 356.66A1.6 1.6 0 1 0 356.98 356.66Z" fill="#D2B5B0" stroke="#D2B5B0" stroke-width="0.3" stroke-linejoin="round"/>
<path d="M304.45 387.88A1.6 1.6 0 1 0 307.65 387.88A1.6 1.6 0 1 0 304.45 387.88Z" fill="#D2B5B0" stroke="#D2B5B0" stroke-width="0.3" stroke-linejoin="round"/>
<path d="M355.27 331.99A1.6 1.6 0 1 0 358.47 331.99A1.6 1.6 0 1 0 355.27 331.99Z" fill="#D2B5B0" stroke="#D2B5B0" stroke-width="0.3" stroke-linejoin="round"/>
<path d="M318.39 286.22A1.6 1.6 0 1 0 321.59 286.22A1.6 1.6 0 1 0 318.39 286.22Z" fill="#D2B5B0" stroke="#D2B5B0" stroke-width="0.3" stroke-linejoin="round"/>
<path d="M345.13 337.95A1.6 1.6 0 1 0 348.33 337.95A1.6 1.6 0 1 0 345.13 337.95Z" fill="#D2B5B0" stroke="#D2B5B0" stroke-width="0.3" stroke-linejoin="round"/>
<path d="M288.75 359.67A1.6 1.6 0 1 0 291.95 359.67A1.6 1.6 0 1 0 288.75 359.67Z" fill="#D2B5B0" stroke="#D2B5B0" stroke-width="0.3" stroke-linejoin="round"/>
<path d="M345.26 312.24A1.6 1.6 0 1 0 348.46 312.24A1.6 1.6 0 1 0 345.26 312.24Z" fill="#D2B5B0" stroke="#D2B5B0" stroke-width="0.3" stroke-linejoin="round"/>
<path d="M315.74 328.81A1.6 1.6 0 1 0 318.94 328.81A1.6 1.6 0 1 0 315.74 328.81Z" fill="#D2B5B0" stroke="#D2B5B0" stroke-width="0.3" stroke-linejoin="round"/>
<path d="M330.21 299.07A1.6 1.6 0 1 0 333.41 299.07A1.6 1.6 0 1 0 330.21 299.07Z" fill="#D2B5B0" stroke="#D2B5B0" stroke-width="0.3" stroke-linejoin="round"/>
<path d="M374.34 366.77A1.6 1.6 0 1 0 377.54 366.77A1.6 1.6 0 1 0 374.34 366.77Z" fill="#D2B5B0" stroke="#D2B5B0" stroke-width="0.3" stroke-linejoin="round"/>
<path d="M357.79 325.71A1.6 1.6 0 1 0 360.99 325.71A1.6 1.6 0 1 0 357.79 325.71Z" fill="#D2B5B0" stroke="#D2B5B0" stroke-width="0.3" stroke-linejoin="round"/>
<path d="M336.55 335.55A1.6 1.6 0 1 0 339.75 335.55A1.6 1.6 0 1 0 336.55 335.55Z" fill="#D2B5B0" stroke="#D2B5B0" stroke-width="0.3" stroke-linejoin="round"/>
<path d="M266.34 346.41A1.6 1.6 0 1 0 269.54 346.41A1.6 1.6 0 1 0 266.34 346.41Z" fill="#D2B5B0" stroke="#D2B5B0" stroke-width="0.3" stroke-linejoin="round"/>
<path d="M379.01 323.47A1.6 1.6 0 1 0 382.21 323.47A1.6 1.6 0 1 0 379.01 323.47Z" fill="#D2B5B0" stroke="#D2B5B0" stroke-width="0.3" stroke-linejoin="round"/>
<path d="M378.07 311.32A1.6 1.6 0 1 0 381.27 311.32A1.6 1.6 0 1 0 378.07 311.32Z" fill="#D2B5B0" stroke="#D2B5B0" stroke-width="0.3" stroke-linejoin="round"/>
<path d="M286.32 323.44A1.6 1.6 0 1 0 289.52 323.44A1.6 1.6 0 1 0 286.32 323.44Z" fill="#D2B5B0" stroke="#D2B5B0" stroke-width="0.3" stroke-linejoin="round"/>
<path d="M276.72 315.2A16.28 14.0008 0 1 0 309.28 315.2A16.28 14.0008 0 1 0 276.72 315.2Z" fill="#8E83A6" stroke="#5E5578" stroke-width="1.4" stroke-linejoin="round"/>
<path d="M307.85 286.12A16.28 14.0008 25 1 0 337.35 299.88A16.28 14.0008 25 1 0 307.85 286.12Z" fill="#8E83A6" stroke="#5E5578" stroke-width="1.4" stroke-linejoin="round"/>
<path d="M293 315.2L322.6 293" fill="none" stroke="#5E5578" stroke-width="2" stroke-linecap="round" stroke-linejoin="round"/>
<path d="M345.44 302.73A16.28 14.0008 50 1 0 366.36 327.67A16.28 14.0008 50 1 0 345.44 302.73Z" fill="#8E83A6" stroke="#5E5578" stroke-width="1.4" stroke-linejoin="round"/>
<path d="M322.6 293L355.9 315.2" fill="none" stroke="#5E5578" stroke-width="2" stroke-linecap="round" stroke-linejoin="round"/>
<path d="M351.69 336.47A16.28 14.0008 75 1 0 360.11 367.93A16.28 14.0008 75 1 0 351.69 336.47Z" fill="#8E83A6" stroke="#5E5578" stroke-width="1.4" stroke-linejoin="round"/>
<path d="M355.9 315.2L355.9 352.2" fill="none" stroke="#5E5578" stroke-width="2" stroke-linecap="round" stroke-linejoin="round"/>
<path d="M325.43 350.97A16.28 14.0008 100 1 0 319.77 383.03A16.28 14.0008 100 1 0 325.43 350.97Z" fill="#8E83A6" stroke="#5E5578" stroke-width="1.4" stroke-linejoin="round"/>
<path d="M355.9 352.2L322.6 367" fill="none" stroke="#5E5578" stroke-width="2" stroke-linecap="round" stroke-linejoin="round"/>
<path d="M588 640A52 52 0 1 0 692 640A52 52 0 1 0 588 640Z" fill="#BBD0DC" stroke="#6F8D9A" stroke-width="1.6" stroke-linejoin="round"/>
<path d="M595.8 640A41.6 39.52 0 1 0 679 640A41.6 39.52 0 1 0 595.8 640Z" fill="#7F7699" stroke="#5E5578" stroke-width="1.4" stroke-linejoin="round"/>
<path d="M621.28 634.8A8.32 7.280000000000001 0 1 0 637.92 634.8A8.32 7.280000000000001 0 1 0 621.28 634.8Z" fill="#968DAE" stroke="#968DAE" stroke-width="0.3" stroke-linejoin="round"/>
<path d="M888 330A92 92 0 1 0 1072 330A92 92 0 1 0 888 330Z" fill="#CBD0DA" stroke="#7F8798" stroke-width="1.6" stroke-linejoin="round"/>
<path d="M929.4 320.8L931.2 311.05L934.63 301.48L939.45 292.65L945.44 285.1L952.4 279.4L961.05 275.46L971.54 272.92L982.76 271.89L993.62 272.48L1003 274.8L1011.5 279.73L1019.85 287.2L1027.18 295.89L1032.59 304.46L1035.2 311.6L1034.21 317.75L1030.2 323.78L1024.38 329.04L1017.98 332.87L1012.2 334.6L1006.75 332.61L1000.83 327.35L994.87 321.24L989.31 316.72L984.6 316.2L981.18 321.02L978.75 329.56L976.65 339.83L974.22 349.84L970.8 357.6L965.94 363.93L960.09 370.15L953.91 375.04L948.06 377.4L943.2 376L938.97 369.45L934.92 358.56L931.61 345.42L929.58 332.13Z" fill="#9A8FB0" stroke="#5E5578" stroke-width="1.4" stroke-linejoin="round"/>
<path d="M1104 660A76 76 0 1 0 1256 660A76 76 0 1 0 1104 660Z" fill="#E4C2A8" stroke="#A8745A" stroke-width="1.6" stroke-linejoin="round"/>
<path d="M1198.64 634.93A3 3 0 1 0 1204.64 634.93A3 3 0 1 0 1198.64 634.93Z" fill="#D08A66" stroke="#A8605A" stroke-width="0.6" stroke-linejoin="round"/>
<path d="M1156 645.92A3 3 0 1 0 1162 645.92A3 3 0 1 0 1156 645.92Z" fill="#D08A66" stroke="#A8605A" stroke-width="0.6" stroke-linejoin="round"/>
<path d="M1171.3 658.46A3 3 0 1 0 1177.3 658.46A3 3 0 1 0 1171.3 658.46Z" fill="#D08A66" stroke="#A8605A" stroke-width="0.6" stroke-linejoin="round"/>
<path d="M1162.01 614.92A3 3 0 1 0 1168.01 614.92A3 3 0 1 0 1162.01 614.92Z" fill="#D08A66" stroke="#A8605A" stroke-width="0.6" stroke-linejoin="round"/>
<path d="M1225.7 700.95A3 3 0 1 0 1231.7 700.95A3 3 0 1 0 1225.7 700.95Z" fill="#D08A66" stroke="#A8605A" stroke-width="0.6" stroke-linejoin="round"/>
<path d="M1114.43 682.87A3 3 0 1 0 1120.43 682.87A3 3 0 1 0 1114.43 682.87Z" fill="#D08A66" stroke="#A8605A" stroke-width="0.6" stroke-linejoin="round"/>
<path d="M1132.3 680.76A3 3 0 1 0 1138.3 680.76A3 3 0 1 0 1132.3 680.76Z" fill="#D08A66" stroke="#A8605A" stroke-width="0.6" stroke-linejoin="round"/>
<path d="M1199.95 656.85A3 3 0 1 0 1205.95 656.85A3 3 0 1 0 1199.95 656.85Z" fill="#D08A66" stroke="#A8605A" stroke-width="0.6" stroke-linejoin="round"/>
<path d="M1202.69 652.53A3 3 0 1 0 1208.69 652.53A3 3 0 1 0 1202.69 652.53Z" fill="#D08A66" stroke="#A8605A" stroke-width="0.6" stroke-linejoin="round"/>
<path d="M1154.77 669.21A3 3 0 1 0 1160.77 669.21A3 3 0 1 0 1154.77 669.21Z" fill="#D08A66" stroke="#A8605A" stroke-width="0.6" stroke-linejoin="round"/>
<path d="M1214.53 683.87A3 3 0 1 0 1220.53 683.87A3 3 0 1 0 1214.53 683.87Z" fill="#D08A66" stroke="#A8605A" stroke-width="0.6" stroke-linejoin="round"/>
<path d="M1144.93 691.11A3 3 0 1 0 1150.93 691.11A3 3 0 1 0 1144.93 691.11Z" fill="#D08A66" stroke="#A8605A" stroke-width="0.6" stroke-linejoin="round"/>
<path d="M1232.42 691.75A3 3 0 1 0 1238.42 691.75A3 3 0 1 0 1232.42 691.75Z" fill="#D08A66" stroke="#A8605A" stroke-width="0.6" stroke-linejoin="round"/>
<path d="M1198.64 692.65A3 3 0 1 0 1204.64 692.65A3 3 0 1 0 1198.64 692.65Z" fill="#D08A66" stroke="#A8605A" stroke-width="0.6" stroke-linejoin="round"/>
<path d="M1209.14 605.97A3 3 0 1 0 1215.14 605.97A3 3 0 1 0 1209.14 605.97Z" fill="#D08A66" stroke="#A8605A" stroke-width="0.6" stroke-linejoin="round"/>
<path d="M1168 709.25A3 3 0 1 0 1174 709.25A3 3 0 1 0 1168 709.25Z" fill="#D08A66" stroke="#A8605A" stroke-width="0.6" stroke-linejoin="round"/>
<path d="M1170.35 691.77A3 3 0 1 0 1176.35 691.77A3 3 0 1 0 1170.35 691.77Z" fill="#D08A66" stroke="#A8605A" stroke-width="0.6" stroke-linejoin="round"/>
<path d="M1204.48 653.21A3 3 0 1 0 1210.48 653.21A3 3 0 1 0 1204.48 653.21Z" fill="#D08A66" stroke="#A8605A" stroke-width="0.6" stroke-linejoin="round"/>
<path d="M1186.68 711.1A3 3 0 1 0 1192.68 711.1A3 3 0 1 0 1186.68 711.1Z" fill="#D08A66" stroke="#A8605A" stroke-width="0.6" stroke-linejoin="round"/>
<path d="M1113.65 679.32A3 3 0 1 0 1119.65 679.32A3 3 0 1 0 1113.65 679.32Z" fill="#D08A66" stroke="#A8605A" stroke-width="0.6" stroke-linejoin="round"/>
<path d="M1171.02 610.84A3 3 0 1 0 1177.02 610.84A3 3 0 1 0 1171.02 610.84Z" fill="#D08A66" stroke="#A8605A" stroke-width="0.6" stroke-linejoin="round"/>
<path d="M1202.63 624.85A3 3 0 1 0 1208.63 624.85A3 3 0 1 0 1202.63 624.85Z" fill="#D08A66" stroke="#A8605A" stroke-width="0.6" stroke-linejoin="round"/>
<path d="M1140.54 634.7A3 3 0 1 0 1146.54 634.7A3 3 0 1 0 1140.54 634.7Z" fill="#D08A66" stroke="#A8605A" stroke-width="0.6" stroke-linejoin="round"/>
<path d="M1126.19 676.38A3 3 0 1 0 1132.19 676.38A3 3 0 1 0 1126.19 676.38Z" fill="#D08A66" stroke="#A8605A" stroke-width="0.6" stroke-linejoin="round"/>
<path d="M1148.6 708.95A3 3 0 1 0 1154.6 708.95A3 3 0 1 0 1148.6 708.95Z" fill="#D08A66" stroke="#A8605A" stroke-width="0.6" stroke-linejoin="round"/>
<path d="M1210.21 629.93A3 3 0 1 0 1216.21 629.93A3 3 0 1 0 1210.21 629.93Z" fill="#D08A66" stroke="#A8605A" stroke-width="0.6" stroke-linejoin="round"/>
<path d="M1176.04 620.97A3 3 0 1 0 1182.04 620.97A3 3 0 1 0 1176.04 620.97Z" fill="#D08A66" stroke="#A8605A" stroke-width="0.6" stroke-linejoin="round"/>
<path d="M1135.12 644.55A3 3 0 1 0 1141.12 644.55A3 3 0 1 0 1135.12 644.55Z" fill="#D08A66" stroke="#A8605A" stroke-width="0.6" stroke-linejoin="round"/>
<path d="M1209.35 697.92A3 3 0 1 0 1215.35 697.92A3 3 0 1 0 1209.35 697.92Z" fill="#D08A66" stroke="#A8605A" stroke-width="0.6" stroke-linejoin="round"/>
<path d="M1188.6 680.59A3 3 0 1 0 1194.6 680.59A3 3 0 1 0 1188.6 680.59Z" fill="#D08A66" stroke="#A8605A" stroke-width="0.6" stroke-linejoin="round"/>
<path d="M1139.36 643.12A3 3 0 1 0 1145.36 643.12A3 3 0 1 0 1139.36 643.12Z" fill="#D08A66" stroke="#A8605A" stroke-width="0.6" stroke-linejoin="round"/>
<path d="M1153.81 720.17A3 3 0 1 0 1159.81 720.17A3 3 0 1 0 1153.81 720.17Z" fill="#D08A66" stroke="#A8605A" stroke-width="0.6" stroke-linejoin="round"/>
<path d="M1196.85 597.55A3 3 0 1 0 1202.85 597.55A3 3 0 1 0 1196.85 597.55Z" fill="#D08A66" stroke="#A8605A" stroke-width="0.6" stroke-linejoin="round"/>
<path d="M1120.16 695.36A3 3 0 1 0 1126.16 695.36A3 3 0 1 0 1120.16 695.36Z" fill="#D08A66" stroke="#A8605A" stroke-width="0.6" stroke-linejoin="round"/>
<path d="M1199.38 617.19A3 3 0 1 0 1205.38 617.19A3 3 0 1 0 1199.38 617.19Z" fill="#D08A66" stroke="#A8605A" stroke-width="0.6" stroke-linejoin="round"/>
<path d="M1152.3 647A3 3 0 1 0 1158.3 647A3 3 0 1 0 1152.3 647Z" fill="#D08A66" stroke="#A8605A" stroke-width="0.6" stroke-linejoin="round"/>
<path d="M1217.67 697.89A3 3 0 1 0 1223.67 697.89A3 3 0 1 0 1217.67 697.89Z" fill="#D08A66" stroke="#A8605A" stroke-width="0.6" stroke-linejoin="round"/>
<path d="M1223.76 668.08A3 3 0 1 0 1229.76 668.08A3 3 0 1 0 1223.76 668.08Z" fill="#D08A66" stroke="#A8605A" stroke-width="0.6" stroke-linejoin="round"/>
<path d="M1205.44 655.72A3 3 0 1 0 1211.44 655.72A3 3 0 1 0 1205.44 655.72Z" fill="#D08A66" stroke="#A8605A" stroke-width="0.6" stroke-linejoin="round"/>
<path d="M1188.95 704.22A3 3 0 1 0 1194.95 704.22A3 3 0 1 0 1188.95 704.22Z" fill="#D08A66" stroke="#A8605A" stroke-width="0.6" stroke-linejoin="round"/>
<path d="M1153.54 632.6A3 3 0 1 0 1159.54 632.6A3 3 0 1 0 1153.54 632.6Z" fill="#D08A66" stroke="#A8605A" stroke-width="0.6" stroke-linejoin="round"/>
<path d="M1182.29 647.01A3 3 0 1 0 1188.29 647.01A3 3 0 1 0 1182.29 647.01Z" fill="#D08A66" stroke="#A8605A" stroke-width="0.6" stroke-linejoin="round"/>
<path d="M1234.34 670.15A3 3 0 1 0 1240.34 670.15A3 3 0 1 0 1234.34 670.15Z" fill="#D08A66" stroke="#A8605A" stroke-width="0.6" stroke-linejoin="round"/>
<path d="M1184.9 712.88A3 3 0 1 0 1190.9 712.88A3 3 0 1 0 1184.9 712.88Z" fill="#D08A66" stroke="#A8605A" stroke-width="0.6" stroke-linejoin="round"/>
<path d="M1164.03 709.17A3 3 0 1 0 1170.03 709.17A3 3 0 1 0 1164.03 709.17Z" fill="#D08A66" stroke="#A8605A" stroke-width="0.6" stroke-linejoin="round"/>
<path d="M1203.88 718.21A3 3 0 1 0 1209.88 718.21A3 3 0 1 0 1203.88 718.21Z" fill="#D08A66" stroke="#A8605A" stroke-width="0.6" stroke-linejoin="round"/>
<path d="M1130.6 656.2A22.8 19.608 0 1 0 1176.2 656.2A22.8 19.608 0 1 0 1130.6 656.2Z" fill="#8E83A6" stroke="#5E5578" stroke-width="1.4" stroke-linejoin="round"/>
<path d="M1185.94 654.16A22.8 19.608 25 1 0 1227.26 673.44A22.8 19.608 25 1 0 1185.94 654.16Z" fill="#8E83A6" stroke="#5E5578" stroke-width="1.4" stroke-linejoin="round"/>
<path d="M1153.4 656.2L1206.6 663.8" fill="none" stroke="#5E5578" stroke-width="2" stroke-linecap="round" stroke-linejoin="round"/>
<path d="M358 700A62 62 0 1 0 482 700A62 62 0 1 0 358 700Z" fill="#CFC9DA" stroke="#7A7292" stroke-width="1.6" stroke-linejoin="round"/>
<path d="M380.94 693.8A17.360000000000003 14.929600000000002 0 1 0 415.66 693.8A17.360000000000003 14.929600000000002 0 1 0 380.94 693.8Z" fill="#8E86AE" stroke="#5E5578" stroke-width="1.4" stroke-linejoin="round"/>
<path d="M413.57 698.86A17.360000000000003 14.929600000000002 25 1 0 445.03 713.54A17.360000000000003 14.929600000000002 25 1 0 413.57 698.86Z" fill="#8E86AE" stroke="#5E5578" stroke-width="1.4" stroke-linejoin="round"/>
<path d="M398.3 693.8L429.3 706.2" fill="none" stroke="#5E5578" stroke-width="2" stroke-linecap="round" stroke-linejoin="round"/>
<path d="M439.84 677.4A17.360000000000003 14.929600000000002 50 1 0 462.16 704A17.360000000000003 14.929600000000002 50 1 0 439.84 677.4Z" fill="#8E86AE" stroke="#5E5578" stroke-width="1.4" stroke-linejoin="round"/>
<path d="M429.3 706.2L451 690.7" fill="none" stroke="#5E5578" stroke-width="2" stroke-linecap="round" stroke-linejoin="round"/>
<path d="M429.03 699.59A4.4 4.4 0 1 0 437.83 699.59A4.4 4.4 0 1 0 429.03 699.59Z" fill="#5E5688" stroke="#3F3A66" stroke-width="0.6" stroke-linejoin="round"/>
<path d="M430.62 678.57A4.4 4.4 0 1 0 439.42 678.57A4.4 4.4 0 1 0 430.62 678.57Z" fill="#5E5688" stroke="#3F3A66" stroke-width="0.6" stroke-linejoin="round"/>
<path d="M404.35 682.85A4.4 4.4 0 1 0 413.15 682.85A4.4 4.4 0 1 0 404.35 682.85Z" fill="#5E5688" stroke="#3F3A66" stroke-width="0.6" stroke-linejoin="round"/>
<path d="M429.26 727.33A4.4 4.4 0 1 0 438.06 727.33A4.4 4.4 0 1 0 429.26 727.33Z" fill="#5E5688" stroke="#3F3A66" stroke-width="0.6" stroke-linejoin="round"/>
<path d="M395.5 687.39A4.4 4.4 0 1 0 404.3 687.39A4.4 4.4 0 1 0 395.5 687.39Z" fill="#5E5688" stroke="#3F3A66" stroke-width="0.6" stroke-linejoin="round"/>
<path d="M460.26 732A4.4 4.4 0 1 0 469.06 732A4.4 4.4 0 1 0 460.26 732Z" fill="#5E5688" stroke="#3F3A66" stroke-width="0.6" stroke-linejoin="round"/>
<path d="M412.85 737.23A4.4 4.4 0 1 0 421.65 737.23A4.4 4.4 0 1 0 412.85 737.23Z" fill="#5E5688" stroke="#3F3A66" stroke-width="0.6" stroke-linejoin="round"/>
<path d="M401.97 697.69A4.4 4.4 0 1 0 410.77 697.69A4.4 4.4 0 1 0 401.97 697.69Z" fill="#5E5688" stroke="#3F3A66" stroke-width="0.6" stroke-linejoin="round"/>
<path d="M429.45 688.47A4.4 4.4 0 1 0 438.25 688.47A4.4 4.4 0 1 0 429.45 688.47Z" fill="#5E5688" stroke="#3F3A66" stroke-width="0.6" stroke-linejoin="round"/>
<path d="M378.51 669.8A4.4 4.4 0 1 0 387.31 669.8A4.4 4.4 0 1 0 378.51 669.8Z" fill="#5E5688" stroke="#3F3A66" stroke-width="0.6" stroke-linejoin="round"/>
<path d="M459.06 715.74A4.4 4.4 0 1 0 467.86 715.74A4.4 4.4 0 1 0 459.06 715.74Z" fill="#5E5688" stroke="#3F3A66" stroke-width="0.6" stroke-linejoin="round"/>
<path d="M462.34 717.28A4.4 4.4 0 1 0 471.14 717.28A4.4 4.4 0 1 0 462.34 717.28Z" fill="#5E5688" stroke="#3F3A66" stroke-width="0.6" stroke-linejoin="round"/>
<path d="M435.35 716.73A4.4 4.4 0 1 0 444.15 716.73A4.4 4.4 0 1 0 435.35 716.73Z" fill="#5E5688" stroke="#3F3A66" stroke-width="0.6" stroke-linejoin="round"/>
<path d="M407.51 686.49A4.4 4.4 0 1 0 416.31 686.49A4.4 4.4 0 1 0 407.51 686.49Z" fill="#5E5688" stroke="#3F3A66" stroke-width="0.6" stroke-linejoin="round"/>
<path d="M416.91 685.78A4.4 4.4 0 1 0 425.71 685.78A4.4 4.4 0 1 0 416.91 685.78Z" fill="#5E5688" stroke="#3F3A66" stroke-width="0.6" stroke-linejoin="round"/>
<path d="M428.89 703.99A4.4 4.4 0 1 0 437.69 703.99A4.4 4.4 0 1 0 428.89 703.99Z" fill="#5E5688" stroke="#3F3A66" stroke-width="0.6" stroke-linejoin="round"/>
<path d="M363.92 712.25A4.4 4.4 0 1 0 372.72 712.25A4.4 4.4 0 1 0 363.92 712.25Z" fill="#5E5688" stroke="#3F3A66" stroke-width="0.6" stroke-linejoin="round"/>
<path d="M429.93 678.57A4.4 4.4 0 1 0 438.73 678.57A4.4 4.4 0 1 0 429.93 678.57Z" fill="#5E5688" stroke="#3F3A66" stroke-width="0.6" stroke-linejoin="round"/>
<path d="M385.31 701.08A4.4 4.4 0 1 0 394.11 701.08A4.4 4.4 0 1 0 385.31 701.08Z" fill="#5E5688" stroke="#3F3A66" stroke-width="0.6" stroke-linejoin="round"/>
<path d="M459.23 680.08A4.4 4.4 0 1 0 468.03 680.08A4.4 4.4 0 1 0 459.23 680.08Z" fill="#5E5688" stroke="#3F3A66" stroke-width="0.6" stroke-linejoin="round"/>
<path d="M459.19 678.64A4.4 4.4 0 1 0 467.99 678.64A4.4 4.4 0 1 0 459.19 678.64Z" fill="#5E5688" stroke="#3F3A66" stroke-width="0.6" stroke-linejoin="round"/>
<path d="M381.6 731.53A4.4 4.4 0 1 0 390.4 731.53A4.4 4.4 0 1 0 381.6 731.53Z" fill="#5E5688" stroke="#3F3A66" stroke-width="0.6" stroke-linejoin="round"/>
<path d="M424.27 665A4.4 4.4 0 1 0 433.07 665A4.4 4.4 0 1 0 424.27 665Z" fill="#5E5688" stroke="#3F3A66" stroke-width="0.6" stroke-linejoin="round"/>
<path d="M431 742.2A4.4 4.4 0 1 0 439.8 742.2A4.4 4.4 0 1 0 431 742.2Z" fill="#5E5688" stroke="#3F3A66" stroke-width="0.6" stroke-linejoin="round"/>
<path d="M446.43 726.39A4.4 4.4 0 1 0 455.23 726.39A4.4 4.4 0 1 0 446.43 726.39Z" fill="#5E5688" stroke="#3F3A66" stroke-width="0.6" stroke-linejoin="round"/>
<path d="M446.56 718.56A4.4 4.4 0 1 0 455.36 718.56A4.4 4.4 0 1 0 446.56 718.56Z" fill="#5E5688" stroke="#3F3A66" stroke-width="0.6" stroke-linejoin="round"/>
<path d="M418.36 662.33A4.4 4.4 0 1 0 427.16 662.33A4.4 4.4 0 1 0 418.36 662.33Z" fill="#5E5688" stroke="#3F3A66" stroke-width="0.6" stroke-linejoin="round"/>
<path d="M430.26 665.11A4.4 4.4 0 1 0 439.06 665.11A4.4 4.4 0 1 0 430.26 665.11Z" fill="#5E5688" stroke="#3F3A66" stroke-width="0.6" stroke-linejoin="round"/>
<path d="M446.76 745.32A4.4 4.4 0 1 0 455.56 745.32A4.4 4.4 0 1 0 446.76 745.32Z" fill="#5E5688" stroke="#3F3A66" stroke-width="0.6" stroke-linejoin="round"/>
<path d="M443.1 652.04A4.4 4.4 0 1 0 451.9 652.04A4.4 4.4 0 1 0 443.1 652.04Z" fill="#5E5688" stroke="#3F3A66" stroke-width="0.6" stroke-linejoin="round"/>
<path d="M546 260L547.05 257.1L548.97 253.79L551.51 250.78L554.4 248.8L558.02 248.03L562.36 248.1L566.57 248.87L569.8 250.2L572 252.34L573.56 255.27L574.3 258.47L574 261.4L572.32 264.24L569.45 267.18L566.06 269.67L562.8 271.2L559.55 271.52L556.06 270.94L552.79 269.79L550.2 268.4L548.26 266.76L546.79 264.72L545.97 262.43Z" fill="#BDAAD0" stroke="#6F6381" stroke-width="1.1" stroke-linejoin="round"/>
<path d="M559.25 261.74A1.5 1.5 0 1 0 562.25 261.74A1.5 1.5 0 1 0 559.25 261.74Z" fill="#7A6A92" stroke="#7A6A92" stroke-width="0.3" stroke-linejoin="round"/>
<path d="M555.42 254.64A1.5 1.5 0 1 0 558.42 254.64A1.5 1.5 0 1 0 555.42 254.64Z" fill="#7A6A92" stroke="#7A6A92" stroke-width="0.3" stroke-linejoin="round"/>
<path d="M563.91 262.74A1.5 1.5 0 1 0 566.91 262.74A1.5 1.5 0 1 0 563.91 262.74Z" fill="#7A6A92" stroke="#7A6A92" stroke-width="0.3" stroke-linejoin="round"/>
<path d="M562.62 264.32A1.5 1.5 0 1 0 565.62 264.32A1.5 1.5 0 1 0 562.62 264.32Z" fill="#7A6A92" stroke="#7A6A92" stroke-width="0.3" stroke-linejoin="round"/>
<path d="M806 560L807.05 557.1L808.97 553.79L811.51 550.78L814.4 548.8L818.02 548.03L822.36 548.1L826.57 548.87L829.8 550.2L832 552.34L833.56 555.28L834.3 558.47L834 561.4L832.32 564.24L829.45 567.17L826.06 569.67L822.8 571.2L819.55 571.52L816.06 570.94L812.79 569.79L810.2 568.4L808.26 566.76L806.79 564.72L805.97 562.43Z" fill="#BDAAD0" stroke="#6F6381" stroke-width="1.1" stroke-linejoin="round"/>
<path d="M822.29 559.44A1.5 1.5 0 1 0 825.29 559.44A1.5 1.5 0 1 0 822.29 559.44Z" fill="#7A6A92" stroke="#7A6A92" stroke-width="0.3" stroke-linejoin="round"/>
<path d="M821.54 562.81A1.5 1.5 0 1 0 824.54 562.81A1.5 1.5 0 1 0 821.54 562.81Z" fill="#7A6A92" stroke="#7A6A92" stroke-width="0.3" stroke-linejoin="round"/>
<path d="M813.01 559.58A1.5 1.5 0 1 0 816.01 559.58A1.5 1.5 0 1 0 813.01 559.58Z" fill="#7A6A92" stroke="#7A6A92" stroke-width="0.3" stroke-linejoin="round"/>
<path d="M813.95 564.83A1.5 1.5 0 1 0 816.95 564.83A1.5 1.5 0 1 0 813.95 564.83Z" fill="#7A6A92" stroke="#7A6A92" stroke-width="0.3" stroke-linejoin="round"/>
<path d="M1236 400L1237.05 397.1L1238.98 393.79L1241.51 390.78L1244.4 388.8L1248.02 388.03L1252.36 388.1L1256.57 388.87L1259.8 390.2L1262 392.34L1263.56 395.28L1264.3 398.47L1264 401.4L1262.32 404.24L1259.45 407.18L1256.06 409.67L1252.8 411.2L1249.55 411.52L1246.06 410.94L1242.79 409.79L1240.2 408.4L1238.26 406.76L1236.79 404.73L1235.97 402.43Z" fill="#BDAAD0" stroke="#6F6381" stroke-width="1.1" stroke-linejoin="round"/>
<path d="M1253.76 404.93A1.5 1.5 0 1 0 1256.76 404.93A1.5 1.5 0 1 0 1253.76 404.93Z" fill="#7A6A92" stroke="#7A6A92" stroke-width="0.3" stroke-linejoin="round"/>
<path d="M1249.73 402.74A1.5 1.5 0 1 0 1252.73 402.74A1.5 1.5 0 1 0 1249.73 402.74Z" fill="#7A6A92" stroke="#7A6A92" stroke-width="0.3" stroke-linejoin="round"/>
<path d="M1242.25 398.26A1.5 1.5 0 1 0 1245.25 398.26A1.5 1.5 0 1 0 1242.25 398.26Z" fill="#7A6A92" stroke="#7A6A92" stroke-width="0.3" stroke-linejoin="round"/>
<path d="M1249.27 397.68A1.5 1.5 0 1 0 1252.27 397.68A1.5 1.5 0 1 0 1249.27 397.68Z" fill="#7A6A92" stroke="#7A6A92" stroke-width="0.3" stroke-linejoin="round"/>
<path d="M186 560L187.05 557.1L188.98 553.79L191.51 550.78L194.4 548.8L198.02 548.03L202.36 548.1L206.57 548.87L209.8 550.2L212 552.34L213.56 555.28L214.3 558.47L214 561.4L212.32 564.24L209.45 567.17L206.06 569.67L202.8 571.2L199.55 571.52L196.06 570.94L192.79 569.79L190.2 568.4L188.26 566.76L186.79 564.72L185.97 562.43Z" fill="#BDAAD0" stroke="#6F6381" stroke-width="1.1" stroke-linejoin="round"/>
<path d="M198.93 556.79A1.5 1.5 0 1 0 201.93 556.79A1.5 1.5 0 1 0 198.93 556.79Z" fill="#7A6A92" stroke="#7A6A92" stroke-width="0.3" stroke-linejoin="round"/>
<path d="M194.27 563.36A1.5 1.5 0 1 0 197.27 563.36A1.5 1.5 0 1 0 194.27 563.36Z" fill="#7A6A92" stroke="#7A6A92" stroke-width="0.3" stroke-linejoin="round"/>
<path d="M204.08 564.28A1.5 1.5 0 1 0 207.08 564.28A1.5 1.5 0 1 0 204.08 564.28Z" fill="#7A6A92" stroke="#7A6A92" stroke-width="0.3" stroke-linejoin="round"/>
<path d="M204.55 564.66A1.5 1.5 0 1 0 207.55 564.66A1.5 1.5 0 1 0 204.55 564.66Z" fill="#7A6A92" stroke="#7A6A92" stroke-width="0.3" stroke-linejoin="round"/>
<path d="M746 800L747.05 797.1L748.97 793.79L751.51 790.78L754.4 788.8L758.02 788.03L762.36 788.1L766.57 788.87L769.8 790.2L772 792.34L773.56 795.28L774.3 798.47L774 801.4L772.32 804.24L769.45 807.18L766.06 809.67L762.8 811.2L759.55 811.52L756.06 810.94L752.79 809.79L750.2 808.4L748.26 806.76L746.79 804.72L745.97 802.43Z" fill="#BDAAD0" stroke="#6F6381" stroke-width="1.1" stroke-linejoin="round"/>
<path d="M763.27 803.1A1.5 1.5 0 1 0 766.27 803.1A1.5 1.5 0 1 0 763.27 803.1Z" fill="#7A6A92" stroke="#7A6A92" stroke-width="0.3" stroke-linejoin="round"/>
<path d="M765 799.03A1.5 1.5 0 1 0 768 799.03A1.5 1.5 0 1 0 765 799.03Z" fill="#7A6A92" stroke="#7A6A92" stroke-width="0.3" stroke-linejoin="round"/>
<path d="M752.5 794.97A1.5 1.5 0 1 0 755.5 794.97A1.5 1.5 0 1 0 752.5 794.97Z" fill="#7A6A92" stroke="#7A6A92" stroke-width="0.3" stroke-linejoin="round"/>
<path d="M762.16 803.79A1.5 1.5 0 1 0 765.16 803.79A1.5 1.5 0 1 0 762.16 803.79Z" fill="#7A6A92" stroke="#7A6A92" stroke-width="0.3" stroke-linejoin="round"/>
</svg>
