<svg xmlns="http://www.w3.org/2000/svg" viewBox="0 0 1450 1000" width="1450" height="1000"><rect width="1450" height="1000" fill="#ECEAE2"/>
<path d="M44 30H816Q830 30 830 44V956Q830 970 816 970H44Q30 970 30 956V44Q30 30 44 30Z" fill="#F2EFE8" stroke="#CFCABD" stroke-width="1.4"/>
<path d="M864 30H1406Q1420 30 1420 44V956Q1420 970 1406 970H864Q850 970 850 956V44Q850 30 864 30Z" fill="#F2EFE8" stroke="#CFCABD" stroke-width="1.4"/>
<clipPath id="k1"><path d="M30 30L830 30L830 970L30 970Z"/></clipPath><g clip-path="url(#k1)">
<g transform="translate(430 -678) scale(1.8 1.8)">
<g fill="#B7A593" stroke="#B7A593" stroke-width="3.2" stroke-linejoin="round"><path d="M-40 50A40 50 0 1 0 40 50A40 50 0 1 0 -40 50Z"/><path d="M-18 90L-18 93.2L-18 97.6L-18 102.9L-18 108.8L-18 115L-18 121.2L-18 127.1L-18 132.4L-18 136.8L-18 140L18 140L18 136.8L18 132.4L18 127.1L18 121.2L18 115L18 108.8L18 102.9L18 97.6L18 93.2L18 90Z"/><path d="M0 122L7.38 122.11L14.63 122.44L21.88 123L29.26 123.78L36.92 124.78L45 126L54.06 127.13L64.11 128.11L74.44 129.31L84.33 131.11L93.09 133.88L100 138L105.03 143.25L108.74 149.3L111.31 156.31L112.93 164.48L113.76 173.98L114 185L113.33 198.23L111.56 213.67L109 230.44L106 247.67L102.89 264.48L100 280L97 294.32L93.56 308.15L90 321.56L86.67 334.63L83.89 347.42L82 360L81.29 372.55L81.56 385.04L82.38 397.25L83.33 408.96L84.01 419.95L84 430L84.03 439.23L84.59 447.85L84.88 455.75L84.07 462.81L81.38 468.94L76 474L67.27 477.87L55.7 480.59L42.25 482.38L27.85 483.41L13.45 483.88L0 484L-13.45 483.88L-27.85 483.41L-42.25 482.38L-55.7 480.59L-67.27 477.87L-76 474L-81.38 468.94L-84.07 462.81L-84.87 455.75L-84.59 447.85L-84.03 439.23L-84 430L-84.01 419.95L-83.33 408.96L-82.37 397.25L-81.56 385.04L-81.29 372.55L-82 360L-83.89 347.42L-86.67 334.63L-90 321.56L-93.56 308.15L-97 294.32L-100 280L-102.89 264.48L-106 247.67L-109 230.44L-111.56 213.67L-113.33 198.23L-114 185L-113.76 173.98L-112.93 164.48L-111.31 156.31L-108.74 149.3L-105.03 143.25L-100 138L-93.09 133.88L-84.33 131.11L-74.44 129.31L-64.11 128.11L-54.06 127.13L-45 126L-36.92 124.78L-29.26 123.78L-21.87 123L-14.63 122.44L-7.38 122.11Z"/><path d="M-121.85 137.81L-124.49 147.11L-128.08 159.08L-132.46 173.3L-137.41 189.28L-142.74 206.51L-148.26 224.52L-153.77 242.84L-159.07 260.98L-163.98 278.49L-168.3 294.9L-172.26 311.19L-176.19 328.36L-180.03 346L-183.72 363.68L-187.22 380.98L-190.45 397.48L-193.37 412.73L-195.92 426.31L-198.02 437.75L-199.63 446.69L-170.37 453.31L-167.95 444.44L-165.04 433.05L-161.72 419.63L-158.03 404.6L-154.03 388.39L-149.8 371.44L-145.38 354.19L-140.85 337.08L-136.27 320.56L-131.7 305.1L-126.78 289.52L-121.25 272.7L-115.29 255.13L-109.1 237.32L-102.88 219.74L-96.83 202.88L-91.14 187.23L-86 173.24L-81.6 161.38L-78.15 152.19Z"/><path d="M-206.74 479.05A17 32 10 1 0 -173.26 484.95A17 32 10 1 0 -206.74 479.05Z"/><path d="M-79.94 437.78L-79.62 449.68L-79.52 465.01L-79.6 483.22L-79.8 503.67L-80.07 525.74L-80.35 548.81L-80.58 572.28L-80.72 595.53L-80.7 617.98L-80.49 639.02L-80.08 659.94L-79.54 682.1L-78.9 704.92L-78.17 727.86L-77.37 750.34L-76.53 771.79L-75.65 791.64L-74.76 809.32L-73.87 824.23L-73 835.84L-27 836.16L-25.97 824.49L-24.96 809.5L-23.95 791.82L-22.93 772.02L-21.88 750.66L-20.77 728.33L-19.6 705.61L-18.35 683.08L-16.99 661.34L-15.51 640.98L-13.85 620.54L-11.99 598.58L-9.96 575.71L-7.84 552.57L-5.68 529.76L-3.52 507.92L-1.43 487.63L0.55 469.52L2.36 454.16L3.94 442.22Z"/><path d="M-84 860A26 14 0 1 0 -32 860A26 14 0 1 0 -84 860Z"/><path d="M78.15 152.19L81.6 161.38L86 173.24L91.14 187.23L96.83 202.88L102.88 219.74L109.1 237.32L115.29 255.13L121.25 272.7L126.78 289.52L131.7 305.1L136.27 320.56L140.85 337.08L145.38 354.19L149.8 371.44L154.03 388.39L158.03 404.6L161.72 419.63L165.04 433.05L167.95 444.44L170.37 453.31L199.63 446.69L198.02 437.75L195.92 426.31L193.37 412.73L190.45 397.48L187.22 380.98L183.72 363.68L180.03 346L176.19 328.36L172.26 311.19L168.3 294.9L163.98 278.49L159.07 260.98L153.77 242.84L148.26 224.52L142.74 206.51L137.41 189.28L132.46 173.3L128.08 159.08L124.49 147.11L121.85 137.81Z"/><path d="M173.26 484.95A17 32 -10 1 0 206.74 479.05A17 32 -10 1 0 173.26 484.95Z"/><path d="M-3.94 442.22L-2.36 454.16L-0.55 469.52L1.43 487.63L3.52 507.92L5.68 529.76L7.84 552.57L9.96 575.71L11.99 598.58L13.85 620.54L15.51 640.98L16.99 661.34L18.35 683.08L19.6 705.61L20.77 728.33L21.88 750.66L22.93 772.02L23.95 791.82L24.96 809.5L25.97 824.49L27 836.16L73 835.84L73.87 824.23L74.76 809.32L75.65 791.64L76.53 771.79L77.37 750.34L78.17 727.86L78.9 704.92L79.54 682.1L80.08 659.94L80.49 639.02L80.7 617.98L80.72 595.53L80.58 572.28L80.35 548.81L80.07 525.74L79.8 503.67L79.6 483.22L79.52 465.01L79.62 449.68L79.94 437.78Z"/><path d="M32 860A26 14 0 1 0 84 860A26 14 0 1 0 32 860Z"/></g>
<g fill="#E8DCCD" stroke="#E8DCCD" stroke-width="0.6"><path d="M-40 50A40 50 0 1 0 40 50A40 50 0 1 0 -40 50Z"/><path d="M-18 90L-18 93.2L-18 97.6L-18 102.9L-18 108.8L-18 115L-18 121.2L-18 127.1L-18 132.4L-18 136.8L-18 140L18 140L18 136.8L18 132.4L18 127.1L18 121.2L18 115L18 108.8L18 102.9L18 97.6L18 93.2L18 90Z"/><path d="M0 122L7.38 122.11L14.63 122.44L21.88 123L29.26 123.78L36.92 124.78L45 126L54.06 127.13L64.11 128.11L74.44 129.31L84.33 131.11L93.09 133.88L100 138L105.03 143.25L108.74 149.3L111.31 156.31L112.93 164.48L113.76 173.98L114 185L113.33 198.23L111.56 213.67L109 230.44L106 247.67L102.89 264.48L100 280L97 294.32L93.56 308.15L90 321.56L86.67 334.63L83.89 347.42L82 360L81.29 372.55L81.56 385.04L82.38 397.25L83.33 408.96L84.01 419.95L84 430L84.03 439.23L84.59 447.85L84.88 455.75L84.07 462.81L81.38 468.94L76 474L67.27 477.87L55.7 480.59L42.25 482.38L27.85 483.41L13.45 483.88L0 484L-13.45 483.88L-27.85 483.41L-42.25 482.38L-55.7 480.59L-67.27 477.87L-76 474L-81.38 468.94L-84.07 462.81L-84.87 455.75L-84.59 447.85L-84.03 439.23L-84 430L-84.01 419.95L-83.33 408.96L-82.37 397.25L-81.56 385.04L-81.29 372.55L-82 360L-83.89 347.42L-86.67 334.63L-90 321.56L-93.56 308.15L-97 294.32L-100 280L-102.89 264.48L-106 247.67L-109 230.44L-111.56 213.67L-113.33 198.23L-114 185L-113.76 173.98L-112.93 164.48L-111.31 156.31L-108.74 149.3L-105.03 143.25L-100 138L-93.09 133.88L-84.33 131.11L-74.44 129.31L-64.11 128.11L-54.06 127.13L-45 126L-36.92 124.78L-29.26 123.78L-21.87 123L-14.63 122.44L-7.38 122.11Z"/><path d="M-121.85 137.81L-124.49 147.11L-128.08 159.08L-132.46 173.3L-137.41 189.28L-142.74 206.51L-148.26 224.52L-153.77 242.84L-159.07 260.98L-163.98 278.49L-168.3 294.9L-172.26 311.19L-176.19 328.36L-180.03 346L-183.72 363.68L-187.22 380.98L-190.45 397.48L-193.37 412.73L-195.92 426.31L-198.02 437.75L-199.63 446.69L-170.37 453.31L-167.95 444.44L-165.04 433.05L-161.72 419.63L-158.03 404.6L-154.03 388.39L-149.8 371.44L-145.38 354.19L-140.85 337.08L-136.27 320.56L-131.7 305.1L-126.78 289.52L-121.25 272.7L-115.29 255.13L-109.1 237.32L-102.88 219.74L-96.83 202.88L-91.14 187.23L-86 173.24L-81.6 161.38L-78.15 152.19Z"/><path d="M-206.74 479.05A17 32 10 1 0 -173.26 484.95A17 32 10 1 0 -206.74 479.05Z"/><path d="M-79.94 437.78L-79.62 449.68L-79.52 465.01L-79.6 483.22L-79.8 503.67L-80.07 525.74L-80.35 548.81L-80.58 572.28L-80.72 595.53L-80.7 617.98L-80.49 639.02L-80.08 659.94L-79.54 682.1L-78.9 704.92L-78.17 727.86L-77.37 750.34L-76.53 771.79L-75.65 791.64L-74.76 809.32L-73.87 824.23L-73 835.84L-27 836.16L-25.97 824.49L-24.96 809.5L-23.95 791.82L-22.93 772.02L-21.88 750.66L-20.77 728.33L-19.6 705.61L-18.35 683.08L-16.99 661.34L-15.51 640.98L-13.85 620.54L-11.99 598.58L-9.96 575.71L-7.84 552.57L-5.68 529.76L-3.52 507.92L-1.43 487.63L0.55 469.52L2.36 454.16L3.94 442.22Z"/><path d="M-84 860A26 14 0 1 0 -32 860A26 14 0 1 0 -84 860Z"/><path d="M78.15 152.19L81.6 161.38L86 173.24L91.14 187.23L96.83 202.88L102.88 219.74L109.1 237.32L115.29 255.13L121.25 272.7L126.78 289.52L131.7 305.1L136.27 320.56L140.85 337.08L145.38 354.19L149.8 371.44L154.03 388.39L158.03 404.6L161.72 419.63L165.04 433.05L167.95 444.44L170.37 453.31L199.63 446.69L198.02 437.75L195.92 426.31L193.37 412.73L190.45 397.48L187.22 380.98L183.72 363.68L180.03 346L176.19 328.36L172.26 311.19L168.3 294.9L163.98 278.49L159.07 260.98L153.77 242.84L148.26 224.52L142.74 206.51L137.41 189.28L132.46 173.3L128.08 159.08L124.49 147.11L121.85 137.81Z"/><path d="M173.26 484.95A17 32 -10 1 0 206.74 479.05A17 32 -10 1 0 173.26 484.95Z"/><path d="M-3.94 442.22L-2.36 454.16L-0.55 469.52L1.43 487.63L3.52 507.92L5.68 529.76L7.84 552.57L9.96 575.71L11.99 598.58L13.85 620.54L15.51 640.98L16.99 661.34L18.35 683.08L19.6 705.61L20.77 728.33L21.88 750.66L22.93 772.02L23.95 791.82L24.96 809.5L25.97 824.49L27 836.16L73 835.84L73.87 824.23L74.76 809.32L75.65 791.64L76.53 771.79L77.37 750.34L78.17 727.86L78.9 704.92L79.54 682.1L80.08 659.94L80.49 639.02L80.7 617.98L80.72 595.53L80.58 572.28L80.35 548.81L80.07 525.74L79.8 503.67L79.6 483.22L79.52 465.01L79.62 449.68L79.94 437.78Z"/><path d="M32 860A26 14 0 1 0 84 860A26 14 0 1 0 32 860Z"/></g>
<path d="M-5.43 448.43L-6.48 450.07L-7.86 452.17L-9.53 454.69L-11.41 457.52L-13.44 460.6L-15.54 463.84L-17.66 467.18L-19.73 470.52L-21.69 473.81L-23.47 476.98L-25.16 480.2L-26.85 483.62L-28.52 487.16L-30.15 490.73L-31.71 494.24L-33.18 497.59L-34.52 500.7L-35.7 503.45L-36.68 505.75L-37.46 507.52L-26.54 512.48L-25.69 510.67L-24.62 508.33L-23.39 505.59L-22.02 502.53L-20.54 499.26L-18.97 495.86L-17.35 492.44L-15.71 489.08L-14.09 485.91L-12.53 483.02L-10.87 480.17L-9 477.13L-6.99 473.97L-4.9 470.78L-2.81 467.65L-0.78 464.65L1.12 461.87L2.84 459.38L4.3 457.24L5.43 455.57Z" fill="#8DA8C0" stroke="#4F6C86" stroke-width="1.2" stroke-linejoin="round"/>
<path d="M-5.43 455.57L-4.3 457.24L-2.84 459.38L-1.12 461.87L0.78 464.65L2.81 467.65L4.9 470.78L6.99 473.97L9 477.13L10.87 480.17L12.53 483.02L14.09 485.91L15.71 489.08L17.35 492.44L18.97 495.86L20.54 499.26L22.02 502.53L23.39 505.59L24.62 508.33L25.69 510.67L26.54 512.48L37.46 507.52L36.68 505.75L35.7 503.45L34.52 500.7L33.18 497.59L31.71 494.24L30.15 490.73L28.52 487.16L26.85 483.62L25.16 480.2L23.47 476.98L21.69 473.81L19.73 470.52L17.66 467.18L15.54 463.84L13.44 460.6L11.41 457.52L9.53 454.69L7.86 452.17L6.48 450.07L5.43 448.43Z" fill="#8DA8C0" stroke="#4F6C86" stroke-width="1.2" stroke-linejoin="round"/>
<path d="M-37.98 509.46L-38.32 513.56L-38.8 518.78L-39.38 524.96L-40.03 531.92L-40.72 539.45L-41.43 547.4L-42.11 555.58L-42.74 563.8L-43.3 571.9L-43.74 579.69L-44.08 587.54L-44.35 595.82L-44.57 604.38L-44.74 613.08L-44.87 621.78L-44.99 630.31L-45.1 638.53L-45.21 646.29L-45.34 653.44L-45.5 659.82L-45.68 665.47L-45.88 670.55L-46.08 675.13L-46.29 679.29L-46.49 683.11L-46.68 686.67L-46.86 690.05L-47.02 693.32L-47.15 696.56L-47.25 699.84L-47.3 703.11L-47.33 706.3L-47.32 709.38L-47.29 712.3L-47.25 715.05L-47.2 717.59L-47.14 719.89L-47.08 721.91L-47.03 723.63L-47 725.03L-37 724.97L-36.98 723.53L-36.98 721.77L-36.99 719.73L-37 717.45L-37 714.95L-36.99 712.26L-36.97 709.4L-36.93 706.42L-36.86 703.33L-36.75 700.16L-36.61 697.01L-36.44 693.88L-36.23 690.67L-36 687.33L-35.76 683.76L-35.5 679.91L-35.25 675.7L-34.99 671.05L-34.74 665.91L-34.5 660.18L-34.29 653.71L-34.12 646.51L-33.95 638.72L-33.79 630.49L-33.63 621.97L-33.44 613.32L-33.22 604.67L-32.96 596.18L-32.64 588.01L-32.26 580.31L-31.77 572.66L-31.18 564.68L-30.5 556.54L-29.77 548.44L-29.03 540.55L-28.29 533.04L-27.59 526.12L-26.96 519.94L-26.43 514.68L-26.02 510.54Z" fill="#8DA8C0" stroke="#4F6C86" stroke-width="1.2" stroke-linejoin="round"/>
<path d="M26.02 510.54L26.43 514.68L26.96 519.94L27.59 526.12L28.29 533.04L29.03 540.55L29.77 548.44L30.5 556.54L31.18 564.68L31.77 572.66L32.26 580.31L32.64 588.01L32.96 596.18L33.22 604.67L33.44 613.32L33.63 621.97L33.79 630.49L33.95 638.72L34.12 646.51L34.29 653.71L34.5 660.18L34.74 665.91L34.99 671.05L35.25 675.7L35.5 679.91L35.76 683.76L36 687.33L36.23 690.67L36.44 693.88L36.61 697.01L36.75 700.16L36.86 703.33L36.93 706.42L36.97 709.4L36.99 712.26L37 714.95L37 717.45L36.99 719.73L36.98 721.77L36.98 723.53L37 724.97L47 725.03L47.03 723.63L47.08 721.91L47.14 719.89L47.2 717.59L47.25 715.05L47.29 712.3L47.32 709.38L47.33 706.3L47.3 703.11L47.25 699.84L47.15 696.56L47.02 693.32L46.86 690.05L46.68 686.67L46.49 683.11L46.29 679.29L46.08 675.13L45.88 670.55L45.68 665.47L45.5 659.82L45.34 653.44L45.21 646.29L45.1 638.53L44.99 630.31L44.87 621.78L44.74 613.08L44.57 604.38L44.35 595.82L44.08 587.54L43.74 579.69L43.3 571.9L42.74 563.8L42.11 555.58L41.43 547.4L40.72 539.45L40.03 531.92L39.38 524.96L38.8 518.78L38.32 513.56L37.98 509.46Z" fill="#8DA8C0" stroke="#4F6C86" stroke-width="1.2" stroke-linejoin="round"/>
<path d="M-28 848L-27.97 843.92L-27.95 838.62L-27.92 832.35L-27.9 825.31L-27.87 817.75L-27.85 809.89L-27.82 801.95L-27.8 794.18L-27.77 786.78L-27.75 780L-27.74 773.53L-27.76 766.99L-27.8 760.44L-27.84 753.96L-27.88 747.61L-27.89 741.45L-27.87 735.55L-27.81 729.98L-27.69 724.81L-27.5 720.12L-27.23 716.08L-26.86 712.7L-26.43 709.83L-25.94 707.29L-25.43 704.91L-24.91 702.52L-24.4 699.98L-23.93 697.16L-23.54 693.92L-23.25 690.15L-23.05 685.96L-22.88 681.51L-22.76 676.83L-22.67 671.94L-22.62 666.88L-22.62 661.66L-22.66 656.32L-22.73 650.89L-22.85 645.41L-23 639.89L-23.21 634.18L-23.48 628.16L-23.8 621.93L-24.17 615.56L-24.57 609.16L-24.99 602.81L-25.43 596.6L-25.88 590.62L-26.33 584.96L-26.76 579.7L-27.22 574.68L-27.74 569.71L-28.28 564.87L-28.85 560.21L-29.41 555.8L-29.94 551.69L-30.44 547.95L-30.89 544.64L-31.25 541.82L-31.53 539.54L-38.47 540.46L-38.14 542.76L-37.72 545.6L-37.23 548.91L-36.68 552.63L-36.09 556.7L-35.49 561.07L-34.88 565.67L-34.3 570.45L-33.74 575.34L-33.24 580.3L-32.75 585.51L-32.26 591.14L-31.77 597.09L-31.28 603.27L-30.81 609.59L-30.36 615.96L-29.94 622.28L-29.57 628.48L-29.26 634.45L-29 640.11L-28.79 645.58L-28.63 651.03L-28.5 656.41L-28.42 661.7L-28.37 666.88L-28.37 671.9L-28.4 676.74L-28.48 681.37L-28.59 685.75L-28.75 689.85L-28.97 693.43L-29.28 696.44L-29.67 699.07L-30.1 701.48L-30.57 703.84L-31.05 706.31L-31.51 709.02L-31.92 712.1L-32.26 715.67L-32.5 719.88L-32.64 724.69L-32.71 729.92L-32.72 735.54L-32.69 741.46L-32.62 747.64L-32.54 754.01L-32.45 760.49L-32.36 767.03L-32.29 773.55L-32.25 780L-32.22 786.78L-32.2 794.18L-32.17 801.95L-32.15 809.89L-32.12 817.75L-32.1 825.31L-32.08 832.35L-32.05 838.62L-32.02 843.92L-32 848Z" fill="#8DA8C0" stroke="#4F6C86" stroke-width="1.2" stroke-linejoin="round"/>
<path d="M32 848L32.03 843.92L32.05 838.62L32.08 832.35L32.1 825.31L32.13 817.75L32.15 809.89L32.17 801.95L32.2 794.18L32.23 786.78L32.25 780L32.29 773.55L32.36 767.03L32.45 760.49L32.54 754.01L32.62 747.64L32.69 741.46L32.72 735.54L32.71 729.92L32.64 724.69L32.5 719.88L32.26 715.67L31.92 712.1L31.51 709.02L31.05 706.31L30.57 703.84L30.1 701.48L29.67 699.07L29.28 696.44L28.97 693.43L28.75 689.85L28.59 685.75L28.48 681.37L28.4 676.74L28.37 671.9L28.38 666.88L28.42 661.7L28.5 656.41L28.63 651.03L28.79 645.58L29 640.11L29.26 634.45L29.57 628.48L29.94 622.28L30.36 615.96L30.81 609.59L31.28 603.27L31.77 597.09L32.26 591.14L32.75 585.51L33.24 580.3L33.74 575.34L34.3 570.45L34.88 565.67L35.49 561.07L36.09 556.7L36.68 552.63L37.23 548.91L37.72 545.6L38.14 542.76L38.47 540.46L31.53 539.54L31.25 541.82L30.89 544.64L30.44 547.95L29.94 551.69L29.41 555.8L28.85 560.21L28.28 564.87L27.74 569.71L27.22 574.68L26.76 579.7L26.33 584.96L25.88 590.62L25.43 596.6L24.99 602.81L24.57 609.16L24.17 615.56L23.8 621.93L23.48 628.16L23.21 634.18L23 639.89L22.85 645.41L22.73 650.89L22.66 656.32L22.62 661.66L22.63 666.88L22.67 671.94L22.76 676.83L22.88 681.51L23.05 685.96L23.25 690.15L23.54 693.92L23.93 697.16L24.4 699.98L24.91 702.52L25.43 704.91L25.94 707.29L26.43 709.83L26.86 712.7L27.23 716.08L27.5 720.12L27.69 724.81L27.81 729.98L27.87 735.55L27.89 741.45L27.88 747.61L27.84 753.96L27.8 760.44L27.76 766.99L27.74 773.53L27.75 780L27.78 786.78L27.8 794.18L27.83 801.95L27.85 809.89L27.88 817.75L27.9 825.31L27.93 832.35L27.95 838.62L27.98 843.92L28 848Z" fill="#8DA8C0" stroke="#4F6C86" stroke-width="1.2" stroke-linejoin="round"/>
</g>
</g>
<path d="M870 50L1400 50L1400 950L870 950Z" fill="#EFE3D6" stroke="#EFE3D6" stroke-width="0.5" stroke-linejoin="round"/>
<path d="M870 250L1400 300" fill="none" stroke="#9A8A6A" stroke-width="20" stroke-linecap="round" stroke-linejoin="round"/>
<path d="M870 250L1400 300" fill="none" stroke="#D9CDB4" stroke-width="14" stroke-linecap="round" stroke-linejoin="round"/>
<path d="M965.02 118.81L964.77 141.34L964.36 170.18L963.8 204.27L963.14 242.52L962.39 283.86L961.59 327.19L960.78 371.44L959.97 415.54L959.21 458.4L958.51 498.94L957.82 539.95L957.05 584.09L956.25 630.12L955.43 676.76L954.64 722.76L953.89 766.86L953.23 807.8L952.67 844.32L952.26 875.16L952.01 899.05L1027.99 900.95L1028.93 877.06L1030.05 846.24L1031.3 809.74L1032.67 768.82L1034.11 724.74L1035.61 678.76L1037.12 632.14L1038.63 586.15L1040.09 542.03L1041.49 501.06L1042.88 460.56L1044.35 417.74L1045.85 373.68L1047.37 329.45L1048.86 286.14L1050.3 244.84L1051.67 206.61L1052.92 172.54L1054.04 143.7L1054.98 121.19Z" fill="#C98583" stroke="#7E4A49" stroke-width="1.2" stroke-linejoin="round"/>
<path d="M1130.06 117.49L1129.38 139.99L1128.38 168.82L1127.13 202.91L1125.69 241.18L1124.12 282.55L1122.48 325.92L1120.84 370.23L1119.26 414.4L1117.81 457.36L1116.54 498.02L1115.36 539.15L1114.17 583.38L1112.97 629.47L1111.81 676.16L1110.71 722.2L1109.7 766.32L1108.79 807.27L1108.03 843.79L1107.43 874.61L1107.02 898.48L1202.98 901.52L1204.08 877.61L1205.38 846.77L1206.85 810.27L1208.45 769.36L1210.16 725.3L1211.96 679.36L1213.82 632.79L1215.71 586.86L1217.6 542.83L1219.46 501.98L1221.42 461.6L1223.57 418.88L1225.84 374.89L1228.17 330.72L1230.51 287.45L1232.77 246.18L1234.91 207.97L1236.86 173.9L1238.56 145.05L1239.94 122.51Z" fill="#8DA8C0" stroke="#4F6C86" stroke-width="1.2" stroke-linejoin="round"/>
<path d="M1366.97 898.79L1366.74 888.09L1366.51 874.13L1366.23 857.39L1365.85 838.54L1365.35 818.23L1364.67 797.09L1363.78 775.73L1362.61 754.74L1361.12 734.68L1359.26 716.27L1357.09 699.12L1354.68 682.23L1352.01 665.5L1349.08 648.99L1345.89 632.8L1342.44 616.98L1338.74 601.62L1334.77 586.77L1330.52 572.49L1325.98 558.8L1321.04 545.7L1315.71 533.22L1310.06 521.4L1304.14 510.22L1298 499.66L1291.69 489.7L1285.28 480.31L1278.81 471.46L1272.36 463.13L1265.53 454.8L1257.59 446.22L1248.85 438.15L1240 430.98L1231.28 424.58L1222.9 418.9L1215.08 413.9L1208.11 409.56L1202.3 405.95L1198.15 403.22L1195.11 400.94L1154.89 463.06L1159.67 465.84L1165.66 469.09L1171.9 472.38L1178.42 475.86L1185.1 479.6L1191.78 483.58L1198.23 487.76L1204.23 492.09L1209.55 496.44L1214.47 501.2L1219.77 507.03L1225.44 513.6L1231.03 520.47L1236.51 527.71L1241.88 535.34L1247.09 543.41L1252.14 551.98L1256.99 561.09L1261.62 570.79L1266.02 581.2L1270.27 592.55L1274.42 604.85L1278.41 617.97L1282.23 631.78L1285.86 646.2L1289.29 661.12L1292.51 676.44L1295.49 692.07L1298.25 707.92L1300.74 723.73L1302.91 740.51L1304.78 759.18L1306.38 779.2L1307.74 799.87L1308.9 820.52L1309.89 840.5L1310.76 859.18L1311.54 875.95L1312.28 890.22L1313.03 901.21Z" fill="#8DA8C0" stroke="#4F6C86" stroke-width="1.2" stroke-linejoin="round"/>
<path d="M1338.54 553.07L1336.73 550.69L1334.44 547.56L1331.64 543.74L1328.42 539.4L1324.87 534.71L1321.04 529.81L1316.99 524.86L1312.76 519.98L1308.39 515.3L1303.9 510.97L1299.1 506.9L1293.9 502.94L1288.45 499.08L1282.9 495.37L1277.4 491.84L1272.13 488.54L1267.25 485.54L1262.97 482.91L1259.49 480.72L1256.88 478.97L1243.12 501.03L1246.09 502.76L1249.93 504.93L1254.34 507.42L1259.2 510.18L1264.35 513.16L1269.62 516.31L1274.82 519.56L1279.76 522.82L1284.26 526.02L1288.1 529.03L1291.68 532.25L1295.46 536.02L1299.32 540.19L1303.15 544.59L1306.88 549.04L1310.42 553.4L1313.72 557.51L1316.7 561.24L1319.33 564.46L1321.46 566.93Z" fill="#8DA8C0" stroke="#4F6C86" stroke-width="1.2" stroke-linejoin="round"/>
<path d="M1249.67 662.55L1251.02 657.81L1252.84 651.61L1255.02 644.17L1257.45 635.8L1260.02 626.79L1262.6 617.41L1265.09 607.95L1267.37 598.67L1269.34 589.83L1270.88 581.65L1271.98 573.77L1272.76 565.77L1273.28 557.8L1273.59 550L1273.75 542.51L1273.81 535.48L1273.81 529.06L1273.81 523.43L1273.86 518.78L1274 515.12L1250 514.88L1250.06 518.82L1250.22 523.77L1250.42 529.44L1250.61 535.72L1250.75 542.49L1250.79 549.6L1250.7 556.9L1250.41 564.23L1249.9 571.43L1249.12 578.35L1247.94 585.68L1246.29 593.97L1244.3 602.88L1242.07 612.11L1239.73 621.34L1237.4 630.28L1235.18 638.64L1233.18 646.15L1231.52 652.54L1230.33 657.45Z" fill="#8DA8C0" stroke="#4F6C86" stroke-width="1.2" stroke-linejoin="round"/>
<path d="M1010 682L1019.9 709L1010 703.6L1000.1 709Z" fill="#F2EFE8" stroke="#F2EFE8" stroke-width="0.5" stroke-linejoin="round"/>
<path d="M1170 682L1179.9 709L1170 703.6L1160.1 709Z" fill="#F2EFE8" stroke="#F2EFE8" stroke-width="0.5" stroke-linejoin="round"/>
<path d="M1320 682L1329.9 709L1320 703.6L1310.1 709Z" fill="#F2EFE8" stroke="#F2EFE8" stroke-width="0.5" stroke-linejoin="round"/>
</svg>
